G04*
G04 #@! TF.GenerationSoftware,Altium Limited,Altium Designer,21.0.9 (235)*
G04*
G04 Layer_Color=65535*
%FSLAX25Y25*%
%MOIN*%
G70*
G04*
G04 #@! TF.SameCoordinates,E712B7E2-4447-4AEC-BC64-13D1A33EA5FB*
G04*
G04*
G04 #@! TF.FilePolarity,Positive*
G04*
G01*
G75*
%ADD10C,0.00787*%
%ADD11C,0.00591*%
G36*
X55716Y72541D02*
X55123D01*
Y75515D01*
X53579D01*
Y72730D01*
X52986D01*
Y75515D01*
X51271D01*
Y72424D01*
X50678D01*
Y76181D01*
X55716D01*
Y72541D01*
D02*
G37*
G36*
Y69483D02*
X55712Y69432D01*
Y69381D01*
X55709Y69323D01*
X55705Y69199D01*
X55694Y69072D01*
X55683Y68948D01*
X55672Y68890D01*
X55665Y68839D01*
Y68835D01*
X55661Y68821D01*
X55658Y68802D01*
X55654Y68777D01*
X55647Y68744D01*
X55636Y68708D01*
X55625Y68668D01*
X55614Y68620D01*
X55581Y68522D01*
X55538Y68420D01*
X55490Y68315D01*
X55428Y68216D01*
X55425Y68213D01*
X55421Y68205D01*
X55410Y68191D01*
X55396Y68176D01*
X55381Y68154D01*
X55359Y68129D01*
X55334Y68100D01*
X55305Y68071D01*
X55272Y68042D01*
X55235Y68009D01*
X55152Y67940D01*
X55053Y67874D01*
X54944Y67812D01*
X54941Y67809D01*
X54930Y67805D01*
X54912Y67798D01*
X54890Y67787D01*
X54861Y67776D01*
X54824Y67765D01*
X54784Y67750D01*
X54740Y67736D01*
X54693Y67721D01*
X54638Y67707D01*
X54584Y67696D01*
X54522Y67685D01*
X54395Y67667D01*
X54256Y67659D01*
X54249D01*
X54227D01*
X54194Y67663D01*
X54151Y67667D01*
X54093Y67670D01*
X54031Y67681D01*
X53958Y67692D01*
X53881Y67710D01*
X53798Y67732D01*
X53710Y67761D01*
X53619Y67794D01*
X53528Y67834D01*
X53437Y67881D01*
X53346Y67936D01*
X53255Y67998D01*
X53172Y68071D01*
X53168Y68074D01*
X53153Y68089D01*
X53132Y68114D01*
X53102Y68151D01*
X53070Y68198D01*
X53030Y68256D01*
X52990Y68326D01*
X52950Y68409D01*
X52909Y68504D01*
X52869Y68609D01*
X52829Y68733D01*
X52797Y68864D01*
X52767Y69013D01*
X52757Y69094D01*
X52746Y69177D01*
X52738Y69265D01*
X52731Y69356D01*
X52728Y69450D01*
Y70837D01*
X50678D01*
Y71503D01*
X55716D01*
Y69483D01*
D02*
G37*
G36*
Y64504D02*
X55712Y64460D01*
Y64402D01*
X55709Y64336D01*
X55705Y64267D01*
X55698Y64187D01*
X55690Y64107D01*
X55683Y64023D01*
X55658Y63852D01*
X55643Y63772D01*
X55625Y63692D01*
X55603Y63615D01*
X55578Y63546D01*
Y63542D01*
X55570Y63532D01*
X55563Y63513D01*
X55552Y63488D01*
X55538Y63459D01*
X55516Y63426D01*
X55494Y63386D01*
X55468Y63346D01*
X55436Y63302D01*
X55403Y63255D01*
X55363Y63208D01*
X55319Y63160D01*
X55268Y63117D01*
X55217Y63069D01*
X55159Y63026D01*
X55097Y62986D01*
X55093Y62982D01*
X55083Y62975D01*
X55064Y62967D01*
X55039Y62953D01*
X55006Y62938D01*
X54966Y62920D01*
X54922Y62898D01*
X54875Y62880D01*
X54821Y62862D01*
X54762Y62840D01*
X54700Y62822D01*
X54635Y62807D01*
X54566Y62793D01*
X54493Y62782D01*
X54416Y62778D01*
X54340Y62774D01*
X54333D01*
X54318D01*
X54289Y62778D01*
X54249D01*
X54205Y62785D01*
X54151Y62793D01*
X54093Y62804D01*
X54027Y62818D01*
X53958Y62836D01*
X53885Y62858D01*
X53809Y62887D01*
X53732Y62920D01*
X53656Y62960D01*
X53583Y63007D01*
X53506Y63062D01*
X53437Y63124D01*
X53434Y63128D01*
X53423Y63139D01*
X53404Y63160D01*
X53379Y63189D01*
X53350Y63226D01*
X53317Y63273D01*
X53281Y63324D01*
X53241Y63386D01*
X53201Y63459D01*
X53161Y63535D01*
X53124Y63626D01*
X53084Y63721D01*
X53051Y63826D01*
X53019Y63939D01*
X52993Y64063D01*
X52971Y64194D01*
Y64190D01*
X52964Y64183D01*
X52960Y64169D01*
X52950Y64150D01*
X52939Y64129D01*
X52924Y64103D01*
X52891Y64045D01*
X52855Y63979D01*
X52811Y63914D01*
X52767Y63852D01*
X52720Y63794D01*
X52717Y63790D01*
X52709Y63779D01*
X52691Y63765D01*
X52673Y63743D01*
X52644Y63717D01*
X52615Y63688D01*
X52578Y63652D01*
X52535Y63615D01*
X52487Y63575D01*
X52436Y63532D01*
X52382Y63484D01*
X52324Y63437D01*
X52258Y63390D01*
X52192Y63339D01*
X52047Y63240D01*
X50678Y62370D01*
Y63204D01*
X51727Y63870D01*
X51730Y63874D01*
X51745Y63885D01*
X51770Y63899D01*
X51799Y63917D01*
X51839Y63943D01*
X51883Y63972D01*
X51930Y64005D01*
X51981Y64038D01*
X52094Y64114D01*
X52211Y64194D01*
X52320Y64274D01*
X52371Y64314D01*
X52418Y64351D01*
X52422Y64354D01*
X52429Y64358D01*
X52440Y64369D01*
X52458Y64383D01*
X52502Y64420D01*
X52553Y64463D01*
X52607Y64518D01*
X52666Y64573D01*
X52717Y64631D01*
X52757Y64689D01*
X52760Y64696D01*
X52771Y64715D01*
X52789Y64744D01*
X52808Y64784D01*
X52829Y64827D01*
X52855Y64878D01*
X52873Y64933D01*
X52891Y64991D01*
Y64995D01*
X52895Y65013D01*
X52899Y65042D01*
X52906Y65079D01*
X52909Y65130D01*
X52913Y65195D01*
X52917Y65272D01*
Y66134D01*
X50678D01*
Y66800D01*
X55716D01*
Y64504D01*
D02*
G37*
G36*
X53215Y61930D02*
X53252D01*
X53292Y61926D01*
X53339Y61923D01*
X53390Y61919D01*
X53445Y61912D01*
X53503Y61905D01*
X53565Y61897D01*
X53699Y61875D01*
X53845Y61850D01*
X54001Y61813D01*
X54162Y61770D01*
X54325Y61715D01*
X54489Y61650D01*
X54649Y61573D01*
X54806Y61482D01*
X54882Y61431D01*
X54955Y61380D01*
X55024Y61322D01*
X55093Y61260D01*
X55097Y61257D01*
X55101Y61253D01*
X55112Y61242D01*
X55123Y61228D01*
X55141Y61213D01*
X55159Y61191D01*
X55206Y61137D01*
X55257Y61071D01*
X55319Y60991D01*
X55381Y60896D01*
X55450Y60791D01*
X55516Y60671D01*
X55578Y60540D01*
X55639Y60398D01*
X55694Y60245D01*
X55738Y60077D01*
X55774Y59903D01*
X55785Y59812D01*
X55796Y59717D01*
X55800Y59622D01*
X55803Y59524D01*
Y59491D01*
X55800Y59455D01*
Y59408D01*
X55792Y59346D01*
X55785Y59273D01*
X55774Y59193D01*
X55763Y59105D01*
X55745Y59011D01*
X55723Y58909D01*
X55694Y58803D01*
X55661Y58698D01*
X55625Y58588D01*
X55578Y58479D01*
X55527Y58370D01*
X55468Y58264D01*
X55465Y58257D01*
X55454Y58239D01*
X55436Y58210D01*
X55406Y58174D01*
X55374Y58126D01*
X55334Y58072D01*
X55283Y58013D01*
X55228Y57948D01*
X55166Y57879D01*
X55097Y57810D01*
X55021Y57737D01*
X54937Y57668D01*
X54846Y57598D01*
X54751Y57529D01*
X54649Y57467D01*
X54540Y57409D01*
X54533Y57406D01*
X54515Y57395D01*
X54482Y57380D01*
X54435Y57362D01*
X54380Y57340D01*
X54311Y57314D01*
X54234Y57289D01*
X54147Y57260D01*
X54052Y57234D01*
X53947Y57209D01*
X53838Y57183D01*
X53718Y57162D01*
X53594Y57140D01*
X53463Y57125D01*
X53328Y57118D01*
X53190Y57114D01*
X53186D01*
X53183D01*
X53172D01*
X53157D01*
X53139D01*
X53113Y57118D01*
X53059D01*
X52993Y57125D01*
X52917Y57129D01*
X52826Y57140D01*
X52731Y57154D01*
X52626Y57169D01*
X52516Y57191D01*
X52403Y57216D01*
X52287Y57245D01*
X52167Y57282D01*
X52051Y57322D01*
X51934Y57369D01*
X51818Y57424D01*
X51810Y57427D01*
X51792Y57438D01*
X51759Y57456D01*
X51719Y57482D01*
X51668Y57511D01*
X51610Y57551D01*
X51544Y57598D01*
X51475Y57649D01*
X51402Y57708D01*
X51330Y57773D01*
X51253Y57846D01*
X51177Y57922D01*
X51104Y58010D01*
X51031Y58101D01*
X50966Y58199D01*
X50904Y58301D01*
X50900Y58308D01*
X50889Y58326D01*
X50875Y58359D01*
X50857Y58399D01*
X50831Y58454D01*
X50806Y58516D01*
X50776Y58585D01*
X50751Y58665D01*
X50722Y58756D01*
X50693Y58851D01*
X50667Y58949D01*
X50642Y59058D01*
X50624Y59167D01*
X50609Y59284D01*
X50598Y59404D01*
X50595Y59524D01*
Y59557D01*
X50598Y59593D01*
X50602Y59644D01*
X50605Y59706D01*
X50613Y59779D01*
X50624Y59863D01*
X50638Y59950D01*
X50656Y60048D01*
X50678Y60150D01*
X50707Y60256D01*
X50740Y60361D01*
X50776Y60470D01*
X50824Y60583D01*
X50875Y60692D01*
X50937Y60798D01*
X50940Y60805D01*
X50951Y60823D01*
X50973Y60853D01*
X50999Y60889D01*
X51035Y60936D01*
X51075Y60991D01*
X51126Y61049D01*
X51180Y61115D01*
X51246Y61180D01*
X51315Y61253D01*
X51392Y61322D01*
X51475Y61391D01*
X51566Y61460D01*
X51661Y61526D01*
X51763Y61588D01*
X51872Y61646D01*
X51879Y61650D01*
X51898Y61657D01*
X51930Y61672D01*
X51978Y61690D01*
X52032Y61712D01*
X52098Y61737D01*
X52171Y61763D01*
X52254Y61788D01*
X52345Y61817D01*
X52444Y61843D01*
X52545Y61868D01*
X52655Y61890D01*
X52771Y61908D01*
X52888Y61923D01*
X53008Y61930D01*
X53132Y61934D01*
X53135D01*
X53146D01*
X53164D01*
X53186D01*
X53215Y61930D01*
D02*
G37*
G36*
X55716Y55276D02*
X52149Y54082D01*
X52141Y54079D01*
X52127Y54075D01*
X52101Y54068D01*
X52069Y54057D01*
X52025Y54042D01*
X51978Y54028D01*
X51927Y54009D01*
X51868Y53991D01*
X51748Y53951D01*
X51625Y53911D01*
X51563Y53893D01*
X51504Y53875D01*
X51454Y53856D01*
X51402Y53842D01*
X51406D01*
X51417Y53838D01*
X51432Y53831D01*
X51454Y53824D01*
X51483Y53816D01*
X51519Y53806D01*
X51559Y53791D01*
X51606Y53776D01*
X51661Y53758D01*
X51719Y53736D01*
X51785Y53715D01*
X51858Y53693D01*
X51938Y53664D01*
X52021Y53638D01*
X52112Y53605D01*
X52211Y53573D01*
X55716Y52364D01*
Y51465D01*
X50678D01*
Y52109D01*
X54893D01*
X50678Y53576D01*
Y54180D01*
X54966Y55633D01*
X50678D01*
Y56277D01*
X55716D01*
Y55276D01*
D02*
G37*
G36*
X50758Y48764D02*
X50817Y48761D01*
X50878Y48753D01*
X50951Y48742D01*
X51028Y48724D01*
X51104Y48699D01*
X51108D01*
X51119Y48691D01*
X51137Y48684D01*
X51162Y48673D01*
X51195Y48662D01*
X51231Y48644D01*
X51271Y48622D01*
X51315Y48600D01*
X51366Y48575D01*
X51417Y48542D01*
X51530Y48473D01*
X51650Y48389D01*
X51774Y48291D01*
X51777Y48287D01*
X51788Y48276D01*
X51807Y48262D01*
X51832Y48240D01*
X51865Y48211D01*
X51901Y48174D01*
X51945Y48134D01*
X51992Y48083D01*
X52047Y48029D01*
X52105Y47971D01*
X52167Y47905D01*
X52236Y47832D01*
X52305Y47752D01*
X52378Y47668D01*
X52455Y47578D01*
X52535Y47483D01*
X52538Y47479D01*
X52542Y47472D01*
X52553Y47461D01*
X52564Y47446D01*
X52582Y47428D01*
X52600Y47406D01*
X52647Y47352D01*
X52702Y47283D01*
X52771Y47210D01*
X52844Y47126D01*
X52924Y47039D01*
X53008Y46944D01*
X53095Y46853D01*
X53183Y46758D01*
X53273Y46671D01*
X53361Y46584D01*
X53445Y46507D01*
X53528Y46435D01*
X53605Y46376D01*
X53608Y46373D01*
X53623Y46365D01*
X53645Y46351D01*
X53670Y46329D01*
X53707Y46307D01*
X53747Y46285D01*
X53794Y46256D01*
X53845Y46231D01*
X53900Y46205D01*
X53958Y46176D01*
X54085Y46129D01*
X54151Y46111D01*
X54216Y46096D01*
X54282Y46089D01*
X54347Y46085D01*
X54351D01*
X54365D01*
X54384D01*
X54409Y46089D01*
X54442Y46092D01*
X54478Y46100D01*
X54518Y46107D01*
X54562Y46118D01*
X54609Y46132D01*
X54660Y46151D01*
X54711Y46172D01*
X54762Y46198D01*
X54817Y46227D01*
X54868Y46263D01*
X54919Y46303D01*
X54966Y46351D01*
X54970Y46354D01*
X54977Y46362D01*
X54988Y46376D01*
X55006Y46398D01*
X55024Y46424D01*
X55046Y46456D01*
X55072Y46493D01*
X55093Y46533D01*
X55119Y46580D01*
X55141Y46631D01*
X55163Y46689D01*
X55181Y46748D01*
X55199Y46813D01*
X55210Y46882D01*
X55217Y46955D01*
X55221Y47032D01*
Y47075D01*
X55217Y47104D01*
X55214Y47144D01*
X55206Y47188D01*
X55199Y47235D01*
X55188Y47290D01*
X55174Y47344D01*
X55155Y47403D01*
X55133Y47461D01*
X55108Y47523D01*
X55075Y47581D01*
X55039Y47639D01*
X54999Y47698D01*
X54952Y47749D01*
X54948Y47752D01*
X54941Y47760D01*
X54922Y47774D01*
X54904Y47789D01*
X54875Y47810D01*
X54842Y47832D01*
X54802Y47858D01*
X54759Y47880D01*
X54711Y47905D01*
X54653Y47931D01*
X54595Y47952D01*
X54529Y47974D01*
X54457Y47989D01*
X54380Y48003D01*
X54300Y48011D01*
X54213Y48014D01*
X54278Y48651D01*
X54282D01*
X54285D01*
X54296Y48648D01*
X54311D01*
X54347Y48644D01*
X54395Y48633D01*
X54453Y48622D01*
X54522Y48608D01*
X54598Y48589D01*
X54678Y48568D01*
X54766Y48538D01*
X54853Y48506D01*
X54944Y48466D01*
X55035Y48418D01*
X55123Y48367D01*
X55206Y48305D01*
X55286Y48240D01*
X55359Y48164D01*
X55363Y48160D01*
X55374Y48145D01*
X55396Y48120D01*
X55417Y48087D01*
X55447Y48043D01*
X55479Y47992D01*
X55512Y47931D01*
X55549Y47861D01*
X55581Y47781D01*
X55614Y47698D01*
X55647Y47603D01*
X55676Y47501D01*
X55701Y47392D01*
X55720Y47275D01*
X55730Y47152D01*
X55734Y47021D01*
Y46988D01*
X55730Y46951D01*
X55727Y46900D01*
X55723Y46839D01*
X55712Y46769D01*
X55701Y46689D01*
X55683Y46606D01*
X55661Y46515D01*
X55636Y46424D01*
X55603Y46325D01*
X55563Y46231D01*
X55516Y46136D01*
X55465Y46045D01*
X55403Y45958D01*
X55330Y45874D01*
X55326Y45870D01*
X55312Y45856D01*
X55290Y45834D01*
X55257Y45808D01*
X55221Y45776D01*
X55174Y45739D01*
X55119Y45699D01*
X55057Y45659D01*
X54988Y45623D01*
X54912Y45583D01*
X54828Y45546D01*
X54740Y45514D01*
X54646Y45488D01*
X54548Y45466D01*
X54442Y45452D01*
X54333Y45448D01*
X54329D01*
X54318D01*
X54304D01*
X54282D01*
X54253Y45452D01*
X54224Y45455D01*
X54187Y45459D01*
X54147Y45463D01*
X54056Y45477D01*
X53954Y45499D01*
X53849Y45532D01*
X53739Y45572D01*
X53736D01*
X53725Y45579D01*
X53710Y45586D01*
X53689Y45597D01*
X53663Y45608D01*
X53630Y45626D01*
X53594Y45645D01*
X53554Y45670D01*
X53510Y45696D01*
X53463Y45725D01*
X53357Y45798D01*
X53303Y45838D01*
X53244Y45881D01*
X53186Y45932D01*
X53124Y45983D01*
X53121Y45987D01*
X53110Y45998D01*
X53092Y46012D01*
X53066Y46038D01*
X53033Y46071D01*
X52993Y46111D01*
X52946Y46154D01*
X52891Y46209D01*
X52833Y46271D01*
X52767Y46343D01*
X52695Y46420D01*
X52615Y46507D01*
X52531Y46602D01*
X52440Y46704D01*
X52342Y46817D01*
X52240Y46937D01*
X52236Y46944D01*
X52218Y46962D01*
X52196Y46988D01*
X52163Y47024D01*
X52127Y47071D01*
X52083Y47119D01*
X52036Y47173D01*
X51985Y47232D01*
X51879Y47355D01*
X51825Y47414D01*
X51774Y47472D01*
X51723Y47526D01*
X51679Y47574D01*
X51639Y47618D01*
X51603Y47650D01*
X51595Y47658D01*
X51574Y47676D01*
X51541Y47705D01*
X51501Y47741D01*
X51450Y47781D01*
X51395Y47825D01*
X51333Y47869D01*
X51271Y47909D01*
Y45441D01*
X50678D01*
Y48768D01*
X50682D01*
X50689D01*
X50700D01*
X50715D01*
X50736D01*
X50758Y48764D01*
D02*
G37*
G36*
X55650Y41477D02*
X55170D01*
X55163Y41480D01*
X55148Y41499D01*
X55115Y41524D01*
X55075Y41561D01*
X55024Y41604D01*
X54962Y41655D01*
X54890Y41713D01*
X54806Y41775D01*
X54715Y41844D01*
X54613Y41921D01*
X54500Y42001D01*
X54380Y42081D01*
X54249Y42168D01*
X54111Y42252D01*
X53965Y42343D01*
X53809Y42430D01*
X53805D01*
X53798Y42434D01*
X53787Y42441D01*
X53772Y42452D01*
X53750Y42463D01*
X53725Y42474D01*
X53696Y42492D01*
X53663Y42507D01*
X53627Y42529D01*
X53583Y42547D01*
X53492Y42594D01*
X53390Y42645D01*
X53273Y42700D01*
X53146Y42758D01*
X53008Y42816D01*
X52866Y42878D01*
X52713Y42937D01*
X52556Y42998D01*
X52396Y43053D01*
X52229Y43108D01*
X52061Y43159D01*
X52054Y43162D01*
X52032Y43166D01*
X51999Y43177D01*
X51952Y43188D01*
X51890Y43202D01*
X51821Y43220D01*
X51741Y43239D01*
X51650Y43257D01*
X51552Y43279D01*
X51446Y43297D01*
X51330Y43319D01*
X51210Y43337D01*
X51086Y43355D01*
X50955Y43370D01*
X50817Y43384D01*
X50678Y43395D01*
Y44032D01*
X50685D01*
X50704D01*
X50740Y44028D01*
X50784D01*
X50842Y44025D01*
X50911Y44018D01*
X50991Y44010D01*
X51079Y43999D01*
X51180Y43988D01*
X51290Y43974D01*
X51406Y43956D01*
X51534Y43934D01*
X51668Y43905D01*
X51810Y43876D01*
X51960Y43843D01*
X52112Y43803D01*
X52116D01*
X52123Y43799D01*
X52134Y43795D01*
X52149Y43792D01*
X52171Y43785D01*
X52196Y43777D01*
X52225Y43770D01*
X52258Y43759D01*
X52331Y43737D01*
X52422Y43708D01*
X52520Y43675D01*
X52633Y43639D01*
X52753Y43595D01*
X52880Y43548D01*
X53015Y43493D01*
X53153Y43439D01*
X53295Y43377D01*
X53441Y43308D01*
X53590Y43239D01*
X53736Y43162D01*
X53739D01*
X53743Y43159D01*
X53754Y43151D01*
X53772Y43144D01*
X53790Y43133D01*
X53812Y43119D01*
X53867Y43089D01*
X53932Y43049D01*
X54012Y43006D01*
X54100Y42951D01*
X54194Y42893D01*
X54296Y42831D01*
X54402Y42762D01*
X54511Y42685D01*
X54624Y42609D01*
X54846Y42445D01*
X54955Y42358D01*
X55057Y42270D01*
Y44738D01*
X55650D01*
Y41477D01*
D02*
G37*
G36*
X52564Y39773D02*
X54329Y41007D01*
Y40246D01*
X53470Y39675D01*
X53466Y39671D01*
X53459Y39668D01*
X53448Y39661D01*
X53430Y39650D01*
X53408Y39635D01*
X53383Y39620D01*
X53328Y39584D01*
X53263Y39544D01*
X53197Y39500D01*
X53128Y39457D01*
X53062Y39420D01*
X53066Y39417D01*
X53073Y39413D01*
X53084Y39406D01*
X53099Y39395D01*
X53142Y39366D01*
X53197Y39326D01*
X53255Y39282D01*
X53325Y39235D01*
X53394Y39187D01*
X53459Y39140D01*
X54329Y38525D01*
Y37782D01*
X52575Y39020D01*
X50678Y37691D01*
Y38445D01*
X51810Y39202D01*
X52087Y39377D01*
X50678Y40359D01*
Y41106D01*
X52564Y39773D01*
D02*
G37*
G36*
Y36253D02*
X54329Y37487D01*
Y36727D01*
X53470Y36155D01*
X53466Y36151D01*
X53459Y36148D01*
X53448Y36141D01*
X53430Y36130D01*
X53408Y36115D01*
X53383Y36101D01*
X53328Y36064D01*
X53263Y36024D01*
X53197Y35980D01*
X53128Y35937D01*
X53062Y35900D01*
X53066Y35897D01*
X53073Y35893D01*
X53084Y35886D01*
X53099Y35875D01*
X53142Y35846D01*
X53197Y35806D01*
X53255Y35762D01*
X53325Y35715D01*
X53394Y35667D01*
X53459Y35620D01*
X54329Y35005D01*
Y34262D01*
X52575Y35500D01*
X50678Y34171D01*
Y34925D01*
X51810Y35682D01*
X52087Y35857D01*
X50678Y36840D01*
Y37586D01*
X52564Y36253D01*
D02*
G37*
G36*
X52578Y31733D02*
X52607D01*
X52636D01*
X52713Y31729D01*
X52797Y31722D01*
X52895Y31714D01*
X53000Y31703D01*
X53117Y31689D01*
X53241Y31671D01*
X53372Y31653D01*
X53506Y31627D01*
X53645Y31594D01*
X53783Y31561D01*
X53925Y31521D01*
X54067Y31474D01*
X54071D01*
X54078Y31471D01*
X54089Y31467D01*
X54107Y31460D01*
X54129Y31452D01*
X54154Y31441D01*
X54184Y31430D01*
X54216Y31416D01*
X54253Y31401D01*
X54296Y31383D01*
X54387Y31343D01*
X54493Y31292D01*
X54609Y31238D01*
X54737Y31176D01*
X54871Y31103D01*
X55017Y31026D01*
X55166Y30939D01*
X55319Y30844D01*
X55479Y30742D01*
X55639Y30633D01*
X55800Y30517D01*
Y30073D01*
X55796D01*
X55792Y30076D01*
X55781Y30084D01*
X55767Y30091D01*
X55730Y30113D01*
X55683Y30138D01*
X55625Y30175D01*
X55556Y30211D01*
X55483Y30255D01*
X55403Y30298D01*
X55235Y30389D01*
X55064Y30480D01*
X54984Y30524D01*
X54908Y30560D01*
X54839Y30593D01*
X54777Y30622D01*
X54773Y30626D01*
X54755Y30633D01*
X54729Y30644D01*
X54697Y30659D01*
X54653Y30673D01*
X54598Y30695D01*
X54540Y30717D01*
X54475Y30742D01*
X54405Y30768D01*
X54325Y30797D01*
X54245Y30823D01*
X54158Y30852D01*
X53976Y30906D01*
X53787Y30954D01*
X53779D01*
X53758Y30961D01*
X53725Y30968D01*
X53677Y30975D01*
X53619Y30986D01*
X53550Y31001D01*
X53474Y31012D01*
X53386Y31026D01*
X53292Y31041D01*
X53190Y31052D01*
X53084Y31066D01*
X52971Y31077D01*
X52859Y31085D01*
X52738Y31092D01*
X52498Y31099D01*
X52495D01*
X52480D01*
X52455D01*
X52425Y31096D01*
X52385D01*
X52334Y31092D01*
X52280Y31088D01*
X52214Y31085D01*
X52141Y31077D01*
X52065Y31066D01*
X51981Y31059D01*
X51887Y31045D01*
X51792Y31030D01*
X51687Y31012D01*
X51581Y30994D01*
X51464Y30972D01*
X51348Y30946D01*
X51224Y30917D01*
X51097Y30884D01*
X50966Y30848D01*
X50831Y30808D01*
X50693Y30764D01*
X50551Y30717D01*
X50409Y30666D01*
X50263Y30611D01*
X50114Y30550D01*
X49965Y30484D01*
X49812Y30411D01*
X49659Y30335D01*
X49506Y30255D01*
X49350Y30167D01*
X49197Y30073D01*
Y30517D01*
X49200D01*
X49204Y30524D01*
X49215Y30531D01*
X49226Y30539D01*
X49262Y30568D01*
X49313Y30604D01*
X49375Y30648D01*
X49448Y30699D01*
X49532Y30753D01*
X49630Y30819D01*
X49735Y30884D01*
X49852Y30954D01*
X49976Y31026D01*
X50107Y31099D01*
X50249Y31172D01*
X50394Y31245D01*
X50547Y31314D01*
X50707Y31383D01*
X50711D01*
X50718Y31387D01*
X50729Y31390D01*
X50747Y31398D01*
X50769Y31405D01*
X50795Y31416D01*
X50824Y31427D01*
X50857Y31438D01*
X50897Y31452D01*
X50937Y31463D01*
X51031Y31496D01*
X51137Y31525D01*
X51257Y31558D01*
X51384Y31594D01*
X51526Y31623D01*
X51672Y31653D01*
X51828Y31682D01*
X51989Y31703D01*
X52156Y31722D01*
X52327Y31733D01*
X52498Y31736D01*
X52502D01*
X52509D01*
X52520D01*
X52535D01*
X52556D01*
X52578Y31733D01*
D02*
G37*
G36*
X53132Y29549D02*
X53172D01*
X53219Y29545D01*
X53273D01*
X53328Y29541D01*
X53394Y29534D01*
X53459Y29530D01*
X53532Y29523D01*
X53681Y29509D01*
X53845Y29483D01*
X54016Y29458D01*
X54194Y29421D01*
X54369Y29377D01*
X54544Y29327D01*
X54715Y29265D01*
X54875Y29192D01*
X54952Y29152D01*
X55021Y29108D01*
X55090Y29061D01*
X55155Y29013D01*
X55163Y29006D01*
X55181Y28992D01*
X55210Y28966D01*
X55246Y28926D01*
X55290Y28879D01*
X55337Y28824D01*
X55392Y28755D01*
X55447Y28679D01*
X55497Y28591D01*
X55552Y28497D01*
X55599Y28395D01*
X55643Y28282D01*
X55680Y28158D01*
X55709Y28031D01*
X55727Y27892D01*
X55734Y27747D01*
Y27721D01*
X55730Y27689D01*
Y27648D01*
X55723Y27597D01*
X55716Y27539D01*
X55705Y27474D01*
X55694Y27401D01*
X55676Y27328D01*
X55654Y27248D01*
X55625Y27168D01*
X55592Y27088D01*
X55556Y27004D01*
X55509Y26924D01*
X55458Y26848D01*
X55399Y26775D01*
X55396Y26771D01*
X55385Y26757D01*
X55363Y26739D01*
X55337Y26713D01*
X55305Y26684D01*
X55261Y26651D01*
X55214Y26615D01*
X55159Y26575D01*
X55097Y26535D01*
X55028Y26495D01*
X54952Y26455D01*
X54868Y26422D01*
X54780Y26385D01*
X54686Y26356D01*
X54584Y26334D01*
X54478Y26316D01*
X54431Y26931D01*
X54435D01*
X54446Y26935D01*
X54467Y26939D01*
X54489Y26946D01*
X54522Y26957D01*
X54555Y26964D01*
X54635Y26993D01*
X54719Y27026D01*
X54806Y27066D01*
X54890Y27113D01*
X54926Y27139D01*
X54959Y27168D01*
X54962Y27172D01*
X54970Y27179D01*
X54984Y27193D01*
X54999Y27212D01*
X55021Y27237D01*
X55042Y27266D01*
X55068Y27299D01*
X55093Y27339D01*
X55115Y27383D01*
X55141Y27430D01*
X55163Y27477D01*
X55185Y27532D01*
X55199Y27590D01*
X55214Y27652D01*
X55221Y27718D01*
X55225Y27783D01*
Y27812D01*
X55221Y27834D01*
Y27860D01*
X55217Y27889D01*
X55210Y27922D01*
X55203Y27962D01*
X55185Y28042D01*
X55155Y28129D01*
X55112Y28216D01*
X55086Y28260D01*
X55057Y28304D01*
X55053Y28307D01*
X55046Y28315D01*
X55035Y28333D01*
X55017Y28351D01*
X54995Y28376D01*
X54970Y28406D01*
X54937Y28435D01*
X54901Y28471D01*
X54861Y28508D01*
X54813Y28544D01*
X54762Y28584D01*
X54708Y28620D01*
X54646Y28660D01*
X54580Y28697D01*
X54511Y28733D01*
X54438Y28766D01*
X54435D01*
X54420Y28773D01*
X54395Y28780D01*
X54362Y28791D01*
X54322Y28806D01*
X54271Y28821D01*
X54209Y28835D01*
X54140Y28850D01*
X54063Y28864D01*
X53976Y28882D01*
X53878Y28897D01*
X53776Y28908D01*
X53663Y28919D01*
X53543Y28930D01*
X53412Y28933D01*
X53273Y28937D01*
X53277Y28933D01*
X53288Y28926D01*
X53306Y28915D01*
X53328Y28897D01*
X53357Y28875D01*
X53390Y28850D01*
X53426Y28821D01*
X53466Y28784D01*
X53506Y28748D01*
X53547Y28708D01*
X53630Y28613D01*
X53710Y28511D01*
X53747Y28453D01*
X53779Y28395D01*
X53783Y28391D01*
X53787Y28380D01*
X53794Y28362D01*
X53805Y28340D01*
X53820Y28307D01*
X53834Y28275D01*
X53849Y28234D01*
X53863Y28187D01*
X53878Y28140D01*
X53892Y28085D01*
X53921Y27972D01*
X53940Y27845D01*
X53947Y27779D01*
Y27685D01*
X53943Y27652D01*
X53940Y27612D01*
X53932Y27558D01*
X53921Y27496D01*
X53907Y27426D01*
X53889Y27350D01*
X53867Y27270D01*
X53834Y27186D01*
X53798Y27099D01*
X53754Y27008D01*
X53699Y26921D01*
X53641Y26833D01*
X53568Y26746D01*
X53488Y26662D01*
X53485Y26658D01*
X53466Y26644D01*
X53441Y26622D01*
X53404Y26593D01*
X53361Y26560D01*
X53306Y26524D01*
X53244Y26484D01*
X53172Y26444D01*
X53092Y26404D01*
X53000Y26364D01*
X52906Y26327D01*
X52800Y26294D01*
X52688Y26265D01*
X52571Y26243D01*
X52444Y26229D01*
X52312Y26225D01*
X52309D01*
X52291D01*
X52265D01*
X52232Y26229D01*
X52189Y26232D01*
X52141Y26236D01*
X52087Y26243D01*
X52025Y26251D01*
X51960Y26262D01*
X51890Y26276D01*
X51818Y26291D01*
X51741Y26313D01*
X51665Y26338D01*
X51588Y26364D01*
X51508Y26396D01*
X51432Y26433D01*
X51428Y26436D01*
X51414Y26444D01*
X51392Y26455D01*
X51366Y26469D01*
X51330Y26491D01*
X51290Y26516D01*
X51250Y26546D01*
X51202Y26578D01*
X51151Y26618D01*
X51100Y26658D01*
X51050Y26706D01*
X50999Y26757D01*
X50947Y26808D01*
X50897Y26866D01*
X50853Y26928D01*
X50809Y26993D01*
X50806Y26997D01*
X50798Y27008D01*
X50791Y27030D01*
X50776Y27055D01*
X50758Y27092D01*
X50740Y27132D01*
X50722Y27175D01*
X50704Y27230D01*
X50682Y27285D01*
X50664Y27346D01*
X50645Y27415D01*
X50627Y27485D01*
X50613Y27561D01*
X50605Y27638D01*
X50598Y27721D01*
X50595Y27805D01*
Y27838D01*
X50598Y27856D01*
Y27878D01*
X50602Y27932D01*
X50613Y27998D01*
X50624Y28074D01*
X50642Y28158D01*
X50667Y28253D01*
X50696Y28351D01*
X50733Y28453D01*
X50780Y28555D01*
X50835Y28660D01*
X50900Y28766D01*
X50977Y28872D01*
X51064Y28970D01*
X51162Y29064D01*
X51170Y29068D01*
X51188Y29086D01*
X51224Y29108D01*
X51271Y29141D01*
X51333Y29177D01*
X51370Y29199D01*
X51410Y29217D01*
X51454Y29239D01*
X51501Y29261D01*
X51555Y29287D01*
X51610Y29308D01*
X51668Y29330D01*
X51730Y29352D01*
X51799Y29377D01*
X51868Y29399D01*
X51945Y29417D01*
X52021Y29439D01*
X52105Y29458D01*
X52192Y29476D01*
X52283Y29494D01*
X52378Y29509D01*
X52476Y29519D01*
X52578Y29530D01*
X52688Y29541D01*
X52797Y29545D01*
X52913Y29552D01*
X53033D01*
X53037D01*
X53051D01*
X53070D01*
X53099D01*
X53132Y29549D01*
D02*
G37*
G36*
X55716Y23517D02*
Y23011D01*
X52451D01*
Y22330D01*
X51883D01*
Y23011D01*
X50678D01*
Y23630D01*
X51883D01*
Y25814D01*
X52451D01*
X55716Y23517D01*
D02*
G37*
G36*
X52811Y19866D02*
X52189D01*
Y21774D01*
X52811D01*
Y19866D01*
D02*
G37*
G36*
X52054Y18709D02*
X52051D01*
X52032Y18705D01*
X52010Y18701D01*
X51978Y18694D01*
X51938Y18683D01*
X51890Y18672D01*
X51839Y18658D01*
X51785Y18640D01*
X51672Y18596D01*
X51610Y18570D01*
X51552Y18541D01*
X51494Y18505D01*
X51439Y18468D01*
X51388Y18425D01*
X51341Y18377D01*
X51337Y18374D01*
X51330Y18367D01*
X51319Y18352D01*
X51304Y18330D01*
X51286Y18305D01*
X51264Y18272D01*
X51246Y18239D01*
X51224Y18199D01*
X51199Y18155D01*
X51180Y18104D01*
X51159Y18053D01*
X51140Y17995D01*
X51126Y17937D01*
X51115Y17875D01*
X51108Y17810D01*
X51104Y17740D01*
Y17719D01*
X51108Y17697D01*
Y17664D01*
X51115Y17628D01*
X51122Y17580D01*
X51133Y17529D01*
X51148Y17475D01*
X51162Y17416D01*
X51184Y17355D01*
X51213Y17293D01*
X51246Y17227D01*
X51282Y17165D01*
X51330Y17100D01*
X51381Y17038D01*
X51439Y16980D01*
X51443Y16976D01*
X51454Y16965D01*
X51475Y16951D01*
X51501Y16932D01*
X51534Y16907D01*
X51574Y16881D01*
X51621Y16852D01*
X51675Y16823D01*
X51737Y16798D01*
X51803Y16769D01*
X51876Y16743D01*
X51956Y16718D01*
X52043Y16699D01*
X52134Y16685D01*
X52229Y16674D01*
X52331Y16670D01*
X52338D01*
X52353D01*
X52382Y16674D01*
X52418D01*
X52462Y16678D01*
X52516Y16685D01*
X52571Y16696D01*
X52636Y16707D01*
X52702Y16725D01*
X52767Y16743D01*
X52837Y16769D01*
X52909Y16798D01*
X52979Y16830D01*
X53044Y16870D01*
X53110Y16918D01*
X53168Y16969D01*
X53172Y16972D01*
X53183Y16983D01*
X53197Y16998D01*
X53215Y17023D01*
X53241Y17052D01*
X53266Y17089D01*
X53292Y17129D01*
X53321Y17176D01*
X53350Y17231D01*
X53375Y17289D01*
X53404Y17351D01*
X53426Y17420D01*
X53445Y17496D01*
X53459Y17577D01*
X53470Y17660D01*
X53474Y17748D01*
Y17777D01*
X53470Y17799D01*
Y17824D01*
X53466Y17857D01*
X53463Y17890D01*
X53456Y17930D01*
X53441Y18013D01*
X53415Y18104D01*
X53383Y18199D01*
X53335Y18290D01*
Y18294D01*
X53328Y18301D01*
X53321Y18312D01*
X53310Y18330D01*
X53281Y18374D01*
X53241Y18428D01*
X53190Y18487D01*
X53132Y18549D01*
X53062Y18610D01*
X52986Y18665D01*
X53062Y19247D01*
X55650Y18760D01*
Y16252D01*
X55061D01*
Y18268D01*
X53703Y18538D01*
X53707Y18534D01*
X53718Y18516D01*
X53732Y18494D01*
X53754Y18458D01*
X53776Y18417D01*
X53805Y18370D01*
X53830Y18312D01*
X53863Y18250D01*
X53892Y18181D01*
X53921Y18108D01*
X53947Y18028D01*
X53969Y17948D01*
X53991Y17861D01*
X54005Y17773D01*
X54016Y17679D01*
X54020Y17587D01*
Y17558D01*
X54016Y17522D01*
X54012Y17478D01*
X54005Y17420D01*
X53994Y17355D01*
X53980Y17278D01*
X53961Y17198D01*
X53940Y17114D01*
X53907Y17023D01*
X53870Y16932D01*
X53827Y16838D01*
X53772Y16743D01*
X53714Y16648D01*
X53641Y16557D01*
X53561Y16470D01*
X53557Y16466D01*
X53539Y16452D01*
X53514Y16426D01*
X53477Y16397D01*
X53434Y16364D01*
X53379Y16324D01*
X53313Y16284D01*
X53241Y16241D01*
X53161Y16201D01*
X53073Y16161D01*
X52975Y16121D01*
X52873Y16084D01*
X52760Y16059D01*
X52640Y16033D01*
X52516Y16019D01*
X52385Y16015D01*
X52382D01*
X52378D01*
X52367D01*
X52356D01*
X52320Y16019D01*
X52272Y16022D01*
X52211Y16026D01*
X52141Y16037D01*
X52065Y16048D01*
X51981Y16066D01*
X51890Y16088D01*
X51796Y16113D01*
X51697Y16146D01*
X51599Y16183D01*
X51497Y16230D01*
X51399Y16284D01*
X51301Y16346D01*
X51206Y16415D01*
X51199Y16423D01*
X51180Y16437D01*
X51151Y16466D01*
X51111Y16503D01*
X51064Y16554D01*
X51013Y16612D01*
X50958Y16681D01*
X50900Y16761D01*
X50842Y16852D01*
X50787Y16951D01*
X50736Y17060D01*
X50689Y17180D01*
X50653Y17307D01*
X50620Y17442D01*
X50602Y17587D01*
X50595Y17740D01*
Y17770D01*
X50598Y17806D01*
X50602Y17853D01*
X50605Y17911D01*
X50616Y17981D01*
X50627Y18057D01*
X50642Y18137D01*
X50664Y18225D01*
X50689Y18316D01*
X50718Y18410D01*
X50755Y18505D01*
X50798Y18596D01*
X50849Y18690D01*
X50911Y18778D01*
X50977Y18861D01*
X50980Y18865D01*
X50995Y18880D01*
X51017Y18902D01*
X51046Y18931D01*
X51086Y18963D01*
X51133Y19004D01*
X51188Y19044D01*
X51250Y19087D01*
X51319Y19131D01*
X51395Y19171D01*
X51479Y19215D01*
X51570Y19255D01*
X51668Y19287D01*
X51774Y19317D01*
X51883Y19342D01*
X51999Y19357D01*
X52054Y18709D01*
D02*
G37*
G36*
X54471Y14963D02*
X54478Y14949D01*
X54493Y14919D01*
X54511Y14883D01*
X54533Y14839D01*
X54562Y14785D01*
X54595Y14727D01*
X54631Y14665D01*
X54675Y14595D01*
X54719Y14523D01*
X54821Y14370D01*
X54933Y14213D01*
X55057Y14064D01*
X55061Y14060D01*
X55072Y14046D01*
X55090Y14028D01*
X55115Y14002D01*
X55148Y13969D01*
X55185Y13933D01*
X55228Y13893D01*
X55272Y13849D01*
X55323Y13806D01*
X55377Y13758D01*
X55490Y13667D01*
X55610Y13584D01*
X55672Y13547D01*
X55734Y13514D01*
Y13114D01*
X50678D01*
Y13733D01*
X54617D01*
X54613Y13736D01*
X54606Y13744D01*
X54595Y13755D01*
X54580Y13773D01*
X54562Y13795D01*
X54537Y13824D01*
X54511Y13857D01*
X54482Y13889D01*
X54453Y13933D01*
X54416Y13977D01*
X54384Y14024D01*
X54344Y14075D01*
X54307Y14133D01*
X54267Y14191D01*
X54187Y14322D01*
X54184Y14326D01*
X54176Y14337D01*
X54165Y14359D01*
X54154Y14384D01*
X54136Y14413D01*
X54114Y14450D01*
X54093Y14493D01*
X54067Y14537D01*
X54016Y14639D01*
X53965Y14748D01*
X53914Y14861D01*
X53870Y14970D01*
X54467D01*
X54471Y14963D01*
D02*
G37*
G36*
X50758Y11603D02*
X50817Y11600D01*
X50878Y11592D01*
X50951Y11581D01*
X51028Y11563D01*
X51104Y11538D01*
X51108D01*
X51119Y11531D01*
X51137Y11523D01*
X51162Y11512D01*
X51195Y11501D01*
X51231Y11483D01*
X51271Y11461D01*
X51315Y11440D01*
X51366Y11414D01*
X51417Y11381D01*
X51530Y11312D01*
X51650Y11228D01*
X51774Y11130D01*
X51777Y11127D01*
X51788Y11116D01*
X51807Y11101D01*
X51832Y11079D01*
X51865Y11050D01*
X51901Y11014D01*
X51945Y10974D01*
X51992Y10923D01*
X52047Y10868D01*
X52105Y10810D01*
X52167Y10744D01*
X52236Y10672D01*
X52305Y10591D01*
X52378Y10508D01*
X52455Y10417D01*
X52535Y10322D01*
X52538Y10318D01*
X52542Y10311D01*
X52553Y10300D01*
X52564Y10286D01*
X52582Y10267D01*
X52600Y10246D01*
X52647Y10191D01*
X52702Y10122D01*
X52771Y10049D01*
X52844Y9965D01*
X52924Y9878D01*
X53008Y9783D01*
X53095Y9692D01*
X53183Y9598D01*
X53273Y9510D01*
X53361Y9423D01*
X53445Y9347D01*
X53528Y9274D01*
X53605Y9216D01*
X53608Y9212D01*
X53623Y9205D01*
X53645Y9190D01*
X53670Y9168D01*
X53707Y9146D01*
X53747Y9125D01*
X53794Y9095D01*
X53845Y9070D01*
X53900Y9044D01*
X53958Y9015D01*
X54085Y8968D01*
X54151Y8950D01*
X54216Y8935D01*
X54282Y8928D01*
X54347Y8924D01*
X54351D01*
X54365D01*
X54384D01*
X54409Y8928D01*
X54442Y8932D01*
X54478Y8939D01*
X54518Y8946D01*
X54562Y8957D01*
X54609Y8972D01*
X54660Y8990D01*
X54711Y9012D01*
X54762Y9037D01*
X54817Y9066D01*
X54868Y9103D01*
X54919Y9143D01*
X54966Y9190D01*
X54970Y9194D01*
X54977Y9201D01*
X54988Y9216D01*
X55006Y9237D01*
X55024Y9263D01*
X55046Y9296D01*
X55072Y9332D01*
X55093Y9372D01*
X55119Y9419D01*
X55141Y9470D01*
X55163Y9529D01*
X55181Y9587D01*
X55199Y9652D01*
X55210Y9721D01*
X55217Y9794D01*
X55221Y9871D01*
Y9914D01*
X55217Y9944D01*
X55214Y9984D01*
X55206Y10027D01*
X55199Y10075D01*
X55188Y10129D01*
X55174Y10184D01*
X55155Y10242D01*
X55133Y10300D01*
X55108Y10362D01*
X55075Y10420D01*
X55039Y10479D01*
X54999Y10537D01*
X54952Y10588D01*
X54948Y10591D01*
X54941Y10599D01*
X54922Y10613D01*
X54904Y10628D01*
X54875Y10650D01*
X54842Y10672D01*
X54802Y10697D01*
X54759Y10719D01*
X54711Y10744D01*
X54653Y10770D01*
X54595Y10792D01*
X54529Y10813D01*
X54457Y10828D01*
X54380Y10843D01*
X54300Y10850D01*
X54213Y10853D01*
X54278Y11490D01*
X54282D01*
X54285D01*
X54296Y11487D01*
X54311D01*
X54347Y11483D01*
X54395Y11472D01*
X54453Y11461D01*
X54522Y11447D01*
X54598Y11429D01*
X54678Y11407D01*
X54766Y11378D01*
X54853Y11345D01*
X54944Y11305D01*
X55035Y11258D01*
X55123Y11207D01*
X55206Y11145D01*
X55286Y11079D01*
X55359Y11003D01*
X55363Y10999D01*
X55374Y10985D01*
X55396Y10959D01*
X55417Y10926D01*
X55447Y10883D01*
X55479Y10832D01*
X55512Y10770D01*
X55549Y10701D01*
X55581Y10621D01*
X55614Y10537D01*
X55647Y10442D01*
X55676Y10340D01*
X55701Y10231D01*
X55720Y10115D01*
X55730Y9991D01*
X55734Y9860D01*
Y9827D01*
X55730Y9791D01*
X55727Y9740D01*
X55723Y9678D01*
X55712Y9609D01*
X55701Y9529D01*
X55683Y9445D01*
X55661Y9354D01*
X55636Y9263D01*
X55603Y9165D01*
X55563Y9070D01*
X55516Y8975D01*
X55465Y8884D01*
X55403Y8797D01*
X55330Y8713D01*
X55326Y8710D01*
X55312Y8695D01*
X55290Y8673D01*
X55257Y8648D01*
X55221Y8615D01*
X55174Y8579D01*
X55119Y8539D01*
X55057Y8498D01*
X54988Y8462D01*
X54912Y8422D01*
X54828Y8386D01*
X54740Y8353D01*
X54646Y8327D01*
X54548Y8305D01*
X54442Y8291D01*
X54333Y8287D01*
X54329D01*
X54318D01*
X54304D01*
X54282D01*
X54253Y8291D01*
X54224Y8295D01*
X54187Y8298D01*
X54147Y8302D01*
X54056Y8316D01*
X53954Y8338D01*
X53849Y8371D01*
X53739Y8411D01*
X53736D01*
X53725Y8418D01*
X53710Y8426D01*
X53689Y8437D01*
X53663Y8448D01*
X53630Y8466D01*
X53594Y8484D01*
X53554Y8509D01*
X53510Y8535D01*
X53463Y8564D01*
X53357Y8637D01*
X53303Y8677D01*
X53244Y8721D01*
X53186Y8771D01*
X53124Y8822D01*
X53121Y8826D01*
X53110Y8837D01*
X53092Y8851D01*
X53066Y8877D01*
X53033Y8910D01*
X52993Y8950D01*
X52946Y8993D01*
X52891Y9048D01*
X52833Y9110D01*
X52767Y9183D01*
X52695Y9259D01*
X52615Y9347D01*
X52531Y9441D01*
X52440Y9543D01*
X52342Y9656D01*
X52240Y9776D01*
X52236Y9783D01*
X52218Y9802D01*
X52196Y9827D01*
X52163Y9863D01*
X52127Y9911D01*
X52083Y9958D01*
X52036Y10013D01*
X51985Y10071D01*
X51879Y10195D01*
X51825Y10253D01*
X51774Y10311D01*
X51723Y10366D01*
X51679Y10413D01*
X51639Y10457D01*
X51603Y10490D01*
X51595Y10497D01*
X51574Y10515D01*
X51541Y10544D01*
X51501Y10581D01*
X51450Y10621D01*
X51395Y10664D01*
X51333Y10708D01*
X51271Y10748D01*
Y8280D01*
X50678D01*
Y11607D01*
X50682D01*
X50689D01*
X50700D01*
X50715D01*
X50736D01*
X50758Y11603D01*
D02*
G37*
G36*
X55800Y7039D02*
X55796Y7035D01*
X55789Y7032D01*
X55778Y7024D01*
X55760Y7010D01*
X55741Y6995D01*
X55716Y6977D01*
X55683Y6955D01*
X55650Y6933D01*
X55614Y6908D01*
X55574Y6879D01*
X55479Y6817D01*
X55377Y6751D01*
X55261Y6678D01*
X55133Y6602D01*
X54999Y6522D01*
X54853Y6442D01*
X54704Y6365D01*
X54551Y6289D01*
X54391Y6216D01*
X54231Y6147D01*
X54067Y6085D01*
X54063D01*
X54060Y6081D01*
X54049Y6078D01*
X54034Y6074D01*
X54016Y6067D01*
X53994Y6060D01*
X53965Y6052D01*
X53936Y6045D01*
X53867Y6023D01*
X53787Y6001D01*
X53692Y5976D01*
X53590Y5950D01*
X53477Y5929D01*
X53354Y5903D01*
X53226Y5881D01*
X53088Y5859D01*
X52946Y5845D01*
X52800Y5830D01*
X52651Y5823D01*
X52498Y5819D01*
X52495D01*
X52487D01*
X52476D01*
X52458D01*
X52433D01*
X52407Y5823D01*
X52374D01*
X52342D01*
X52302Y5827D01*
X52258Y5830D01*
X52160Y5838D01*
X52051Y5849D01*
X51927Y5863D01*
X51796Y5881D01*
X51654Y5907D01*
X51508Y5936D01*
X51352Y5969D01*
X51195Y6012D01*
X51035Y6060D01*
X50871Y6114D01*
X50707Y6176D01*
X50704D01*
X50696Y6180D01*
X50685Y6187D01*
X50671Y6191D01*
X50649Y6202D01*
X50624Y6213D01*
X50595Y6223D01*
X50562Y6238D01*
X50489Y6274D01*
X50402Y6314D01*
X50303Y6362D01*
X50194Y6416D01*
X50081Y6478D01*
X49961Y6544D01*
X49834Y6613D01*
X49706Y6689D01*
X49575Y6769D01*
X49448Y6857D01*
X49320Y6944D01*
X49197Y7039D01*
Y7483D01*
X49200Y7479D01*
X49215Y7472D01*
X49240Y7457D01*
X49270Y7439D01*
X49310Y7414D01*
X49360Y7388D01*
X49415Y7356D01*
X49481Y7323D01*
X49550Y7286D01*
X49630Y7246D01*
X49714Y7203D01*
X49805Y7159D01*
X49903Y7112D01*
X50005Y7064D01*
X50114Y7017D01*
X50227Y6970D01*
X50347Y6922D01*
X50471Y6875D01*
X50598Y6828D01*
X50729Y6780D01*
X50999Y6693D01*
X51286Y6617D01*
X51432Y6584D01*
X51581Y6551D01*
X51730Y6522D01*
X51883Y6500D01*
X52036Y6482D01*
X52189Y6467D01*
X52342Y6460D01*
X52498Y6456D01*
X52502D01*
X52505D01*
X52527D01*
X52564D01*
X52607Y6460D01*
X52666D01*
X52735Y6464D01*
X52815Y6467D01*
X52899Y6475D01*
X52993Y6482D01*
X53095Y6493D01*
X53201Y6504D01*
X53310Y6518D01*
X53426Y6537D01*
X53543Y6555D01*
X53779Y6606D01*
X53787D01*
X53801Y6609D01*
X53830Y6617D01*
X53867Y6628D01*
X53914Y6638D01*
X53969Y6653D01*
X54027Y6671D01*
X54096Y6689D01*
X54169Y6711D01*
X54245Y6737D01*
X54329Y6762D01*
X54413Y6791D01*
X54588Y6857D01*
X54766Y6933D01*
X54769D01*
X54780Y6940D01*
X54799Y6948D01*
X54824Y6959D01*
X54861Y6977D01*
X54901Y6995D01*
X54952Y7021D01*
X55010Y7050D01*
X55079Y7086D01*
X55155Y7126D01*
X55239Y7170D01*
X55334Y7221D01*
X55436Y7275D01*
X55549Y7337D01*
X55669Y7406D01*
X55800Y7483D01*
Y7039D01*
D02*
G37*
G36*
X4575Y67058D02*
X4626Y67054D01*
X4684Y67051D01*
X4757Y67043D01*
X4837Y67032D01*
X4924Y67018D01*
X5022Y67000D01*
X5124Y66978D01*
X5230Y66949D01*
X5343Y66916D01*
X5459Y66876D01*
X5576Y66829D01*
X5692Y66778D01*
X5809Y66716D01*
X5812D01*
X5816Y66712D01*
X5838Y66701D01*
X5867Y66679D01*
X5911Y66650D01*
X5961Y66614D01*
X6023Y66574D01*
X6089Y66523D01*
X6162Y66465D01*
X6238Y66399D01*
X6314Y66326D01*
X6395Y66246D01*
X6475Y66159D01*
X6555Y66064D01*
X6628Y65966D01*
X6700Y65857D01*
X6766Y65744D01*
Y65740D01*
X6769Y65737D01*
X6780Y65715D01*
X6799Y65682D01*
X6820Y65635D01*
X6846Y65580D01*
X6871Y65511D01*
X6904Y65434D01*
X6937Y65351D01*
X6966Y65260D01*
X6999Y65158D01*
X7024Y65052D01*
X7053Y64943D01*
X7072Y64830D01*
X7090Y64710D01*
X7101Y64590D01*
X7104Y64470D01*
Y64441D01*
X7101Y64404D01*
Y64357D01*
X7094Y64299D01*
X7086Y64230D01*
X7075Y64153D01*
X7061Y64066D01*
X7042Y63971D01*
X7021Y63873D01*
X6995Y63767D01*
X6962Y63658D01*
X6922Y63545D01*
X6879Y63429D01*
X6824Y63312D01*
X6766Y63196D01*
Y63192D01*
X6762Y63189D01*
X6751Y63167D01*
X6729Y63138D01*
X6704Y63094D01*
X6668Y63039D01*
X6628Y62981D01*
X6577Y62912D01*
X6522Y62843D01*
X6457Y62766D01*
X6384Y62686D01*
X6307Y62606D01*
X6220Y62526D01*
X6129Y62446D01*
X6027Y62370D01*
X5921Y62297D01*
X5809Y62228D01*
X5801Y62224D01*
X5779Y62213D01*
X5747Y62195D01*
X5699Y62173D01*
X5645Y62148D01*
X5576Y62119D01*
X5499Y62086D01*
X5412Y62053D01*
X5317Y62020D01*
X5219Y61988D01*
X5110Y61958D01*
X4997Y61933D01*
X4880Y61911D01*
X4760Y61893D01*
X4637Y61882D01*
X4509Y61878D01*
X4505D01*
X4502D01*
X4491D01*
X4480D01*
X4444Y61882D01*
X4393D01*
X4334Y61889D01*
X4265Y61897D01*
X4185Y61907D01*
X4094Y61922D01*
X3999Y61940D01*
X3898Y61962D01*
X3792Y61991D01*
X3679Y62024D01*
X3566Y62060D01*
X3450Y62108D01*
X3333Y62159D01*
X3217Y62220D01*
X3210Y62224D01*
X3191Y62235D01*
X3159Y62257D01*
X3115Y62282D01*
X3064Y62319D01*
X3002Y62362D01*
X2937Y62410D01*
X2864Y62468D01*
X2787Y62533D01*
X2711Y62606D01*
X2631Y62683D01*
X2551Y62770D01*
X2471Y62861D01*
X2394Y62963D01*
X2321Y63068D01*
X2256Y63181D01*
X2252Y63189D01*
X2241Y63210D01*
X2223Y63243D01*
X2205Y63287D01*
X2176Y63345D01*
X2150Y63411D01*
X2118Y63487D01*
X2089Y63574D01*
X2056Y63665D01*
X2023Y63767D01*
X1997Y63873D01*
X1972Y63986D01*
X1950Y64102D01*
X1932Y64222D01*
X1921Y64346D01*
X1917Y64470D01*
Y64499D01*
X1921Y64535D01*
Y64586D01*
X1928Y64645D01*
X1936Y64714D01*
X1946Y64794D01*
X1961Y64885D01*
X1979Y64979D01*
X2001Y65082D01*
X2027Y65187D01*
X2059Y65300D01*
X2099Y65413D01*
X2143Y65529D01*
X2198Y65646D01*
X2256Y65762D01*
X2260Y65769D01*
X2270Y65788D01*
X2292Y65820D01*
X2318Y65864D01*
X2354Y65915D01*
X2398Y65973D01*
X2449Y66042D01*
X2503Y66112D01*
X2569Y66188D01*
X2642Y66264D01*
X2718Y66344D01*
X2806Y66425D01*
X2900Y66505D01*
X2998Y66581D01*
X3104Y66654D01*
X3217Y66720D01*
X3224Y66723D01*
X3246Y66734D01*
X3279Y66752D01*
X3322Y66774D01*
X3381Y66799D01*
X3450Y66829D01*
X3526Y66858D01*
X3610Y66891D01*
X3705Y66923D01*
X3803Y66952D01*
X3912Y66982D01*
X4025Y67007D01*
X4141Y67029D01*
X4262Y67047D01*
X4385Y67058D01*
X4509Y67062D01*
X4513D01*
X4516D01*
X4527D01*
X4538D01*
X4575Y67058D01*
D02*
G37*
G36*
X2059Y59716D02*
X2118Y59712D01*
X2180Y59705D01*
X2252Y59694D01*
X2329Y59676D01*
X2405Y59651D01*
X2409D01*
X2420Y59643D01*
X2438Y59636D01*
X2463Y59625D01*
X2496Y59614D01*
X2533Y59596D01*
X2573Y59574D01*
X2616Y59552D01*
X2667Y59527D01*
X2718Y59494D01*
X2831Y59425D01*
X2951Y59341D01*
X3075Y59243D01*
X3079Y59239D01*
X3090Y59228D01*
X3108Y59214D01*
X3133Y59192D01*
X3166Y59163D01*
X3202Y59126D01*
X3246Y59086D01*
X3293Y59035D01*
X3348Y58981D01*
X3406Y58923D01*
X3468Y58857D01*
X3537Y58784D01*
X3606Y58704D01*
X3679Y58621D01*
X3756Y58530D01*
X3836Y58435D01*
X3839Y58431D01*
X3843Y58424D01*
X3854Y58413D01*
X3865Y58398D01*
X3883Y58380D01*
X3901Y58358D01*
X3949Y58304D01*
X4003Y58235D01*
X4072Y58162D01*
X4145Y58078D01*
X4225Y57991D01*
X4309Y57896D01*
X4396Y57805D01*
X4484Y57710D01*
X4575Y57623D01*
X4662Y57536D01*
X4746Y57459D01*
X4829Y57386D01*
X4906Y57328D01*
X4910Y57325D01*
X4924Y57317D01*
X4946Y57303D01*
X4971Y57281D01*
X5008Y57259D01*
X5048Y57237D01*
X5095Y57208D01*
X5146Y57183D01*
X5201Y57157D01*
X5259Y57128D01*
X5386Y57081D01*
X5452Y57063D01*
X5517Y57048D01*
X5583Y57041D01*
X5648Y57037D01*
X5652D01*
X5667D01*
X5685D01*
X5710Y57041D01*
X5743Y57044D01*
X5779Y57052D01*
X5819Y57059D01*
X5863Y57070D01*
X5911Y57084D01*
X5961Y57103D01*
X6012Y57124D01*
X6063Y57150D01*
X6118Y57179D01*
X6169Y57215D01*
X6220Y57256D01*
X6267Y57303D01*
X6271Y57306D01*
X6278Y57314D01*
X6289Y57328D01*
X6307Y57350D01*
X6325Y57376D01*
X6347Y57408D01*
X6373Y57445D01*
X6395Y57485D01*
X6420Y57532D01*
X6442Y57583D01*
X6464Y57641D01*
X6482Y57700D01*
X6500Y57765D01*
X6511Y57834D01*
X6518Y57907D01*
X6522Y57983D01*
Y58027D01*
X6518Y58056D01*
X6515Y58096D01*
X6508Y58140D01*
X6500Y58187D01*
X6489Y58242D01*
X6475Y58297D01*
X6457Y58355D01*
X6435Y58413D01*
X6409Y58475D01*
X6376Y58533D01*
X6340Y58591D01*
X6300Y58650D01*
X6253Y58701D01*
X6249Y58704D01*
X6242Y58711D01*
X6224Y58726D01*
X6205Y58741D01*
X6176Y58762D01*
X6143Y58784D01*
X6103Y58810D01*
X6060Y58832D01*
X6012Y58857D01*
X5954Y58882D01*
X5896Y58904D01*
X5830Y58926D01*
X5758Y58941D01*
X5681Y58955D01*
X5601Y58963D01*
X5514Y58966D01*
X5579Y59603D01*
X5583D01*
X5587D01*
X5597Y59600D01*
X5612D01*
X5648Y59596D01*
X5696Y59585D01*
X5754Y59574D01*
X5823Y59560D01*
X5900Y59541D01*
X5980Y59519D01*
X6067Y59490D01*
X6154Y59458D01*
X6245Y59418D01*
X6336Y59370D01*
X6424Y59319D01*
X6508Y59258D01*
X6588Y59192D01*
X6660Y59115D01*
X6664Y59112D01*
X6675Y59097D01*
X6697Y59072D01*
X6719Y59039D01*
X6748Y58995D01*
X6780Y58944D01*
X6813Y58882D01*
X6850Y58813D01*
X6882Y58733D01*
X6915Y58650D01*
X6948Y58555D01*
X6977Y58453D01*
X7002Y58344D01*
X7021Y58227D01*
X7032Y58104D01*
X7035Y57973D01*
Y57940D01*
X7032Y57903D01*
X7028Y57852D01*
X7024Y57790D01*
X7013Y57721D01*
X7002Y57641D01*
X6984Y57558D01*
X6962Y57467D01*
X6937Y57376D01*
X6904Y57277D01*
X6864Y57183D01*
X6817Y57088D01*
X6766Y56997D01*
X6704Y56910D01*
X6631Y56826D01*
X6628Y56822D01*
X6613Y56808D01*
X6591Y56786D01*
X6558Y56760D01*
X6522Y56728D01*
X6475Y56691D01*
X6420Y56651D01*
X6358Y56611D01*
X6289Y56575D01*
X6213Y56535D01*
X6129Y56498D01*
X6041Y56466D01*
X5947Y56440D01*
X5849Y56418D01*
X5743Y56404D01*
X5634Y56400D01*
X5630D01*
X5619D01*
X5605D01*
X5583D01*
X5554Y56404D01*
X5525Y56407D01*
X5488Y56411D01*
X5448Y56415D01*
X5357Y56429D01*
X5255Y56451D01*
X5150Y56484D01*
X5040Y56524D01*
X5037D01*
X5026Y56531D01*
X5011Y56538D01*
X4990Y56549D01*
X4964Y56560D01*
X4931Y56578D01*
X4895Y56597D01*
X4855Y56622D01*
X4811Y56648D01*
X4764Y56677D01*
X4658Y56749D01*
X4604Y56789D01*
X4546Y56833D01*
X4487Y56884D01*
X4425Y56935D01*
X4422Y56939D01*
X4411Y56950D01*
X4393Y56964D01*
X4367Y56990D01*
X4334Y57023D01*
X4294Y57063D01*
X4247Y57106D01*
X4192Y57161D01*
X4134Y57223D01*
X4069Y57296D01*
X3996Y57372D01*
X3916Y57459D01*
X3832Y57554D01*
X3741Y57656D01*
X3643Y57769D01*
X3541Y57889D01*
X3537Y57896D01*
X3519Y57914D01*
X3497Y57940D01*
X3464Y57976D01*
X3428Y58024D01*
X3384Y58071D01*
X3337Y58125D01*
X3286Y58184D01*
X3181Y58307D01*
X3126Y58366D01*
X3075Y58424D01*
X3024Y58478D01*
X2980Y58526D01*
X2940Y58570D01*
X2904Y58602D01*
X2897Y58609D01*
X2875Y58628D01*
X2842Y58657D01*
X2802Y58693D01*
X2751Y58733D01*
X2696Y58777D01*
X2634Y58821D01*
X2573Y58861D01*
Y56393D01*
X1979D01*
Y59720D01*
X1983D01*
X1990D01*
X2001D01*
X2016D01*
X2038D01*
X2059Y59716D01*
D02*
G37*
G36*
X4578Y55727D02*
X4611D01*
X4684Y55723D01*
X4771Y55719D01*
X4869Y55716D01*
X4975Y55708D01*
X5088Y55698D01*
X5204Y55687D01*
X5445Y55654D01*
X5565Y55632D01*
X5681Y55607D01*
X5794Y55581D01*
X5900Y55548D01*
X5907Y55545D01*
X5925Y55541D01*
X5951Y55530D01*
X5991Y55515D01*
X6034Y55494D01*
X6089Y55472D01*
X6147Y55443D01*
X6209Y55410D01*
X6274Y55377D01*
X6344Y55334D01*
X6417Y55290D01*
X6486Y55243D01*
X6555Y55188D01*
X6620Y55130D01*
X6682Y55068D01*
X6740Y55002D01*
X6744Y54999D01*
X6755Y54984D01*
X6769Y54966D01*
X6788Y54937D01*
X6810Y54900D01*
X6835Y54857D01*
X6860Y54809D01*
X6890Y54751D01*
X6915Y54689D01*
X6941Y54620D01*
X6966Y54544D01*
X6988Y54464D01*
X7010Y54376D01*
X7024Y54285D01*
X7032Y54191D01*
X7035Y54089D01*
Y54049D01*
X7032Y54019D01*
Y53987D01*
X7028Y53943D01*
X7021Y53899D01*
X7013Y53848D01*
X6995Y53739D01*
X6966Y53619D01*
X6926Y53495D01*
X6901Y53437D01*
X6871Y53379D01*
Y53375D01*
X6864Y53364D01*
X6853Y53350D01*
X6842Y53328D01*
X6824Y53302D01*
X6802Y53273D01*
X6780Y53237D01*
X6751Y53201D01*
X6686Y53120D01*
X6602Y53037D01*
X6508Y52953D01*
X6398Y52877D01*
X6395Y52873D01*
X6384Y52869D01*
X6365Y52858D01*
X6344Y52844D01*
X6314Y52826D01*
X6278Y52807D01*
X6238Y52785D01*
X6191Y52764D01*
X6140Y52738D01*
X6082Y52713D01*
X6020Y52687D01*
X5954Y52658D01*
X5885Y52633D01*
X5812Y52611D01*
X5732Y52585D01*
X5652Y52564D01*
X5648D01*
X5630Y52560D01*
X5608Y52553D01*
X5572Y52545D01*
X5528Y52538D01*
X5474Y52527D01*
X5412Y52516D01*
X5339Y52505D01*
X5259Y52494D01*
X5168Y52483D01*
X5070Y52473D01*
X4964Y52465D01*
X4851Y52458D01*
X4727Y52451D01*
X4600Y52447D01*
X4462D01*
X4458D01*
X4451D01*
X4440D01*
X4422D01*
X4403D01*
X4378D01*
X4349Y52451D01*
X4316D01*
X4240Y52454D01*
X4152Y52458D01*
X4058Y52462D01*
X3952Y52469D01*
X3839Y52480D01*
X3723Y52491D01*
X3486Y52523D01*
X3366Y52545D01*
X3250Y52571D01*
X3137Y52600D01*
X3031Y52633D01*
X3024Y52636D01*
X3006Y52640D01*
X2980Y52651D01*
X2940Y52665D01*
X2897Y52687D01*
X2842Y52709D01*
X2784Y52738D01*
X2722Y52767D01*
X2656Y52804D01*
X2587Y52847D01*
X2518Y52891D01*
X2445Y52938D01*
X2376Y52993D01*
X2310Y53051D01*
X2249Y53113D01*
X2190Y53179D01*
X2187Y53182D01*
X2180Y53197D01*
X2165Y53215D01*
X2143Y53244D01*
X2121Y53281D01*
X2096Y53321D01*
X2070Y53372D01*
X2045Y53426D01*
X2016Y53492D01*
X1990Y53561D01*
X1965Y53634D01*
X1943Y53714D01*
X1925Y53801D01*
X1910Y53892D01*
X1899Y53987D01*
X1896Y54089D01*
Y54121D01*
X1899Y54158D01*
X1903Y54209D01*
X1910Y54271D01*
X1925Y54343D01*
X1939Y54420D01*
X1961Y54507D01*
X1987Y54598D01*
X2023Y54689D01*
X2063Y54784D01*
X2114Y54882D01*
X2172Y54977D01*
X2241Y55068D01*
X2321Y55155D01*
X2413Y55235D01*
X2416D01*
X2420Y55239D01*
X2431Y55246D01*
X2442Y55257D01*
X2460Y55268D01*
X2482Y55283D01*
X2503Y55297D01*
X2533Y55312D01*
X2565Y55330D01*
X2602Y55352D01*
X2642Y55370D01*
X2685Y55392D01*
X2736Y55414D01*
X2787Y55436D01*
X2846Y55461D01*
X2904Y55483D01*
X2969Y55505D01*
X3039Y55530D01*
X3111Y55552D01*
X3191Y55574D01*
X3272Y55596D01*
X3359Y55614D01*
X3446Y55636D01*
X3545Y55654D01*
X3643Y55668D01*
X3745Y55683D01*
X3854Y55698D01*
X3967Y55708D01*
X4083Y55719D01*
X4203Y55723D01*
X4331Y55730D01*
X4462D01*
X4465D01*
X4473D01*
X4484D01*
X4502D01*
X4524D01*
X4549D01*
X4578Y55727D01*
D02*
G37*
G36*
X5772Y51337D02*
X5779Y51322D01*
X5794Y51293D01*
X5812Y51257D01*
X5834Y51213D01*
X5863Y51158D01*
X5896Y51100D01*
X5932Y51038D01*
X5976Y50969D01*
X6020Y50896D01*
X6122Y50744D01*
X6234Y50587D01*
X6358Y50438D01*
X6362Y50434D01*
X6373Y50419D01*
X6391Y50401D01*
X6417Y50376D01*
X6449Y50343D01*
X6486Y50307D01*
X6529Y50267D01*
X6573Y50223D01*
X6624Y50179D01*
X6679Y50132D01*
X6791Y50041D01*
X6911Y49957D01*
X6973Y49921D01*
X7035Y49888D01*
Y49488D01*
X1979D01*
Y50107D01*
X5918D01*
X5914Y50110D01*
X5907Y50117D01*
X5896Y50128D01*
X5881Y50147D01*
X5863Y50168D01*
X5838Y50197D01*
X5812Y50230D01*
X5783Y50263D01*
X5754Y50307D01*
X5718Y50350D01*
X5685Y50398D01*
X5645Y50449D01*
X5608Y50507D01*
X5568Y50565D01*
X5488Y50696D01*
X5485Y50700D01*
X5477Y50711D01*
X5466Y50733D01*
X5455Y50758D01*
X5437Y50787D01*
X5415Y50824D01*
X5394Y50867D01*
X5368Y50911D01*
X5317Y51013D01*
X5266Y51122D01*
X5215Y51235D01*
X5172Y51344D01*
X5768D01*
X5772Y51337D01*
D02*
G37*
G36*
X6951Y44603D02*
X6471D01*
X6464Y44607D01*
X6449Y44625D01*
X6417Y44650D01*
X6376Y44686D01*
X6325Y44730D01*
X6264Y44781D01*
X6191Y44839D01*
X6107Y44901D01*
X6016Y44971D01*
X5914Y45047D01*
X5801Y45127D01*
X5681Y45207D01*
X5550Y45294D01*
X5412Y45378D01*
X5266Y45469D01*
X5110Y45557D01*
X5106D01*
X5099Y45560D01*
X5088Y45567D01*
X5073Y45578D01*
X5051Y45589D01*
X5026Y45600D01*
X4997Y45618D01*
X4964Y45633D01*
X4928Y45655D01*
X4884Y45673D01*
X4793Y45720D01*
X4691Y45771D01*
X4575Y45826D01*
X4447Y45884D01*
X4309Y45942D01*
X4167Y46004D01*
X4014Y46062D01*
X3858Y46124D01*
X3697Y46179D01*
X3530Y46233D01*
X3362Y46284D01*
X3355Y46288D01*
X3333Y46292D01*
X3301Y46303D01*
X3253Y46314D01*
X3191Y46328D01*
X3122Y46346D01*
X3042Y46365D01*
X2951Y46383D01*
X2853Y46405D01*
X2747Y46423D01*
X2631Y46445D01*
X2511Y46463D01*
X2387Y46481D01*
X2256Y46496D01*
X2118Y46510D01*
X1979Y46521D01*
Y47158D01*
X1987D01*
X2005D01*
X2041Y47155D01*
X2085D01*
X2143Y47151D01*
X2212Y47144D01*
X2292Y47136D01*
X2380Y47125D01*
X2482Y47114D01*
X2591Y47100D01*
X2707Y47082D01*
X2835Y47060D01*
X2969Y47031D01*
X3111Y47002D01*
X3261Y46969D01*
X3413Y46929D01*
X3417D01*
X3424Y46925D01*
X3435Y46922D01*
X3450Y46918D01*
X3472Y46911D01*
X3497Y46903D01*
X3526Y46896D01*
X3559Y46885D01*
X3632Y46863D01*
X3723Y46834D01*
X3821Y46801D01*
X3934Y46765D01*
X4054Y46721D01*
X4182Y46674D01*
X4316Y46619D01*
X4454Y46565D01*
X4597Y46503D01*
X4742Y46434D01*
X4891Y46365D01*
X5037Y46288D01*
X5040D01*
X5044Y46284D01*
X5055Y46277D01*
X5073Y46270D01*
X5091Y46259D01*
X5113Y46244D01*
X5168Y46215D01*
X5233Y46175D01*
X5314Y46132D01*
X5401Y46077D01*
X5495Y46019D01*
X5597Y45957D01*
X5703Y45888D01*
X5812Y45811D01*
X5925Y45735D01*
X6147Y45571D01*
X6256Y45484D01*
X6358Y45396D01*
Y47864D01*
X6951D01*
Y44603D01*
D02*
G37*
G36*
X7017Y39955D02*
X7013Y39907D01*
Y39849D01*
X7010Y39787D01*
Y39718D01*
X6999Y39572D01*
X6988Y39423D01*
X6977Y39350D01*
X6970Y39281D01*
X6959Y39216D01*
X6944Y39154D01*
Y39150D01*
X6941Y39136D01*
X6933Y39114D01*
X6926Y39081D01*
X6911Y39044D01*
X6897Y39001D01*
X6882Y38954D01*
X6860Y38899D01*
X6813Y38786D01*
X6748Y38662D01*
X6675Y38539D01*
X6631Y38477D01*
X6584Y38418D01*
X6580Y38415D01*
X6569Y38400D01*
X6548Y38378D01*
X6522Y38353D01*
X6489Y38320D01*
X6449Y38280D01*
X6402Y38240D01*
X6351Y38193D01*
X6289Y38146D01*
X6224Y38098D01*
X6154Y38047D01*
X6078Y37996D01*
X5994Y37949D01*
X5911Y37905D01*
X5816Y37861D01*
X5721Y37821D01*
X5714Y37818D01*
X5696Y37814D01*
X5670Y37803D01*
X5630Y37789D01*
X5579Y37774D01*
X5521Y37760D01*
X5452Y37741D01*
X5375Y37720D01*
X5292Y37701D01*
X5197Y37683D01*
X5099Y37669D01*
X4993Y37654D01*
X4884Y37639D01*
X4767Y37629D01*
X4647Y37625D01*
X4524Y37621D01*
X4516D01*
X4498D01*
X4469D01*
X4425Y37625D01*
X4378D01*
X4320Y37629D01*
X4254Y37632D01*
X4182Y37639D01*
X4105Y37647D01*
X4021Y37654D01*
X3850Y37679D01*
X3675Y37712D01*
X3504Y37756D01*
X3501D01*
X3486Y37763D01*
X3461Y37771D01*
X3432Y37782D01*
X3395Y37792D01*
X3352Y37811D01*
X3301Y37829D01*
X3250Y37851D01*
X3133Y37898D01*
X3009Y37960D01*
X2889Y38025D01*
X2773Y38102D01*
X2769Y38105D01*
X2762Y38113D01*
X2744Y38124D01*
X2726Y38138D01*
X2700Y38156D01*
X2671Y38182D01*
X2605Y38236D01*
X2533Y38306D01*
X2456Y38382D01*
X2383Y38469D01*
X2314Y38560D01*
Y38564D01*
X2307Y38571D01*
X2300Y38586D01*
X2289Y38604D01*
X2274Y38630D01*
X2260Y38659D01*
X2241Y38691D01*
X2223Y38728D01*
X2201Y38772D01*
X2180Y38815D01*
X2161Y38866D01*
X2139Y38917D01*
X2099Y39034D01*
X2063Y39161D01*
Y39165D01*
X2059Y39176D01*
X2056Y39197D01*
X2049Y39223D01*
X2045Y39256D01*
X2038Y39296D01*
X2030Y39343D01*
X2023Y39394D01*
X2012Y39452D01*
X2005Y39514D01*
X1997Y39580D01*
X1994Y39652D01*
X1987Y39725D01*
X1983Y39805D01*
X1979Y39969D01*
Y41785D01*
X7017D01*
Y39955D01*
D02*
G37*
G36*
Y36162D02*
X6307D01*
Y36781D01*
X7017D01*
Y36162D01*
D02*
G37*
G36*
X5630D02*
X1979D01*
Y36781D01*
X5630D01*
Y36162D01*
D02*
G37*
G36*
Y34669D02*
X5070D01*
X5073Y34666D01*
X5088Y34658D01*
X5106Y34647D01*
X5131Y34633D01*
X5164Y34615D01*
X5201Y34593D01*
X5281Y34542D01*
X5364Y34480D01*
X5452Y34414D01*
X5488Y34382D01*
X5525Y34349D01*
X5557Y34312D01*
X5583Y34280D01*
Y34276D01*
X5590Y34273D01*
X5594Y34262D01*
X5605Y34247D01*
X5623Y34211D01*
X5648Y34163D01*
X5670Y34101D01*
X5692Y34036D01*
X5707Y33963D01*
X5710Y33883D01*
Y33850D01*
X5707Y33828D01*
X5703Y33799D01*
X5699Y33766D01*
X5692Y33730D01*
X5685Y33687D01*
X5674Y33639D01*
X5663Y33588D01*
X5627Y33483D01*
X5605Y33424D01*
X5576Y33366D01*
X5547Y33308D01*
X5510Y33246D01*
X4939Y33464D01*
Y33468D01*
X4946Y33475D01*
X4950Y33486D01*
X4961Y33505D01*
X4968Y33523D01*
X4979Y33548D01*
X5004Y33606D01*
X5030Y33672D01*
X5048Y33748D01*
X5062Y33832D01*
X5070Y33916D01*
Y33948D01*
X5062Y33989D01*
X5055Y34036D01*
X5040Y34091D01*
X5019Y34152D01*
X4986Y34214D01*
X4946Y34276D01*
X4939Y34283D01*
X4924Y34302D01*
X4895Y34331D01*
X4859Y34363D01*
X4811Y34403D01*
X4753Y34440D01*
X4684Y34476D01*
X4607Y34506D01*
X4604D01*
X4593Y34509D01*
X4575Y34516D01*
X4549Y34520D01*
X4520Y34527D01*
X4484Y34538D01*
X4440Y34545D01*
X4396Y34556D01*
X4342Y34567D01*
X4287Y34575D01*
X4229Y34582D01*
X4167Y34593D01*
X4032Y34604D01*
X3887Y34607D01*
X1979D01*
Y35226D01*
X5630D01*
Y34669D01*
D02*
G37*
G36*
X7017Y32256D02*
X4141D01*
X5630Y30793D01*
Y29992D01*
X4273Y31386D01*
X1979Y29850D01*
Y30614D01*
X3847Y31823D01*
X3424Y32256D01*
X1979D01*
Y32875D01*
X7017D01*
Y32256D01*
D02*
G37*
G36*
Y27098D02*
X3712Y26334D01*
X3705D01*
X3690Y26326D01*
X3661Y26323D01*
X3625Y26312D01*
X3577Y26301D01*
X3523Y26290D01*
X3457Y26275D01*
X3388Y26261D01*
X3315Y26243D01*
X3235Y26228D01*
X3148Y26210D01*
X3060Y26192D01*
X2875Y26155D01*
X2682Y26119D01*
X2685D01*
X2693Y26115D01*
X2704D01*
X2718Y26112D01*
X2736Y26104D01*
X2758Y26101D01*
X2809Y26090D01*
X2875Y26072D01*
X2944Y26057D01*
X3020Y26039D01*
X3100Y26017D01*
X3264Y25977D01*
X3344Y25959D01*
X3417Y25940D01*
X3483Y25922D01*
X3537Y25911D01*
X3585Y25897D01*
X3599Y25893D01*
X3614Y25890D01*
X7017Y24936D01*
Y24132D01*
X4465Y23411D01*
X4462D01*
X4454Y23407D01*
X4440Y23404D01*
X4422Y23400D01*
X4400Y23392D01*
X4371Y23385D01*
X4342Y23378D01*
X4305Y23367D01*
X4265Y23356D01*
X4222Y23345D01*
X4120Y23320D01*
X4010Y23291D01*
X3887Y23261D01*
X3752Y23229D01*
X3614Y23196D01*
X3464Y23163D01*
X3311Y23131D01*
X2998Y23069D01*
X2682Y23018D01*
X2689D01*
X2704Y23014D01*
X2729Y23007D01*
X2765Y22999D01*
X2813Y22988D01*
X2864Y22978D01*
X2929Y22963D01*
X2998Y22949D01*
X3075Y22930D01*
X3159Y22912D01*
X3250Y22894D01*
X3344Y22868D01*
X3446Y22847D01*
X3552Y22821D01*
X3665Y22796D01*
X3777Y22767D01*
X7017Y21977D01*
Y21303D01*
X1979Y22686D01*
Y23334D01*
X5816Y24386D01*
X5823D01*
X5838Y24394D01*
X5860Y24401D01*
X5892Y24408D01*
X5932Y24419D01*
X5972Y24430D01*
X6020Y24444D01*
X6071Y24459D01*
X6173Y24488D01*
X6220Y24499D01*
X6267Y24514D01*
X6311Y24525D01*
X6347Y24535D01*
X6380Y24543D01*
X6406Y24550D01*
X6402D01*
X6391Y24554D01*
X6373Y24557D01*
X6347Y24565D01*
X6318Y24572D01*
X6282Y24579D01*
X6245Y24590D01*
X6202Y24601D01*
X6111Y24623D01*
X6012Y24648D01*
X5911Y24674D01*
X5816Y24699D01*
X1979Y25758D01*
Y26450D01*
X7017Y27779D01*
Y27098D01*
D02*
G37*
G36*
X3872Y20990D02*
X3901D01*
X3934Y20987D01*
X3970D01*
X4010Y20983D01*
X4054Y20976D01*
X4149Y20965D01*
X4254Y20946D01*
X4371Y20925D01*
X4491Y20896D01*
X4615Y20855D01*
X4738Y20812D01*
X4862Y20757D01*
X4982Y20692D01*
X5099Y20619D01*
X5204Y20531D01*
X5303Y20433D01*
X5306Y20426D01*
X5321Y20411D01*
X5339Y20386D01*
X5368Y20349D01*
X5397Y20302D01*
X5430Y20248D01*
X5470Y20186D01*
X5506Y20113D01*
X5543Y20033D01*
X5583Y19945D01*
X5616Y19851D01*
X5648Y19749D01*
X5674Y19643D01*
X5692Y19531D01*
X5707Y19410D01*
X5710Y19287D01*
Y19236D01*
X5707Y19214D01*
X5703Y19163D01*
X5696Y19097D01*
X5685Y19025D01*
X5670Y18941D01*
X5648Y18850D01*
X5623Y18755D01*
X5590Y18653D01*
X5550Y18551D01*
X5503Y18449D01*
X5445Y18348D01*
X5379Y18246D01*
X5303Y18147D01*
X5215Y18056D01*
X5208Y18049D01*
X5193Y18034D01*
X5164Y18013D01*
X5124Y17980D01*
X5073Y17943D01*
X5015Y17903D01*
X4942Y17860D01*
X4862Y17816D01*
X4767Y17772D01*
X4666Y17729D01*
X4556Y17689D01*
X4433Y17652D01*
X4302Y17619D01*
X4163Y17598D01*
X4014Y17580D01*
X3854Y17576D01*
X3850D01*
X3847D01*
X3836D01*
X3825D01*
X3785D01*
X3737Y17580D01*
X3679Y17583D01*
X3610Y17587D01*
X3534Y17594D01*
X3453Y17601D01*
X3366Y17612D01*
X3275Y17627D01*
X3184Y17645D01*
X3090Y17667D01*
X2998Y17692D01*
X2911Y17718D01*
X2827Y17754D01*
X2747Y17791D01*
X2744Y17794D01*
X2729Y17801D01*
X2707Y17812D01*
X2682Y17831D01*
X2645Y17853D01*
X2609Y17878D01*
X2565Y17911D01*
X2518Y17947D01*
X2467Y17987D01*
X2416Y18034D01*
X2365Y18085D01*
X2314Y18140D01*
X2263Y18198D01*
X2212Y18264D01*
X2165Y18333D01*
X2121Y18406D01*
X2118Y18409D01*
X2110Y18424D01*
X2099Y18446D01*
X2089Y18475D01*
X2070Y18515D01*
X2052Y18559D01*
X2030Y18610D01*
X2012Y18664D01*
X1990Y18730D01*
X1968Y18795D01*
X1950Y18868D01*
X1936Y18945D01*
X1921Y19028D01*
X1910Y19112D01*
X1903Y19196D01*
X1899Y19287D01*
Y19319D01*
X1903Y19338D01*
Y19359D01*
X1907Y19414D01*
X1914Y19479D01*
X1925Y19552D01*
X1939Y19636D01*
X1961Y19727D01*
X1987Y19825D01*
X2019Y19924D01*
X2059Y20029D01*
X2107Y20131D01*
X2161Y20233D01*
X2227Y20335D01*
X2300Y20433D01*
X2387Y20524D01*
X2394Y20528D01*
X2409Y20546D01*
X2438Y20568D01*
X2478Y20597D01*
X2529Y20633D01*
X2591Y20674D01*
X2664Y20714D01*
X2747Y20757D01*
X2842Y20801D01*
X2947Y20844D01*
X3064Y20885D01*
X3191Y20921D01*
X3330Y20950D01*
X3475Y20972D01*
X3635Y20990D01*
X3803Y20994D01*
X3807D01*
X3814D01*
X3828D01*
X3847D01*
X3872Y20990D01*
D02*
G37*
G36*
X5630Y16244D02*
X3603D01*
X3599D01*
X3581D01*
X3555D01*
X3526D01*
X3486D01*
X3443Y16240D01*
X3392D01*
X3341D01*
X3232Y16236D01*
X3122Y16229D01*
X3075Y16225D01*
X3028Y16218D01*
X2988Y16215D01*
X2951Y16207D01*
X2947D01*
X2940Y16204D01*
X2929Y16200D01*
X2911Y16196D01*
X2889Y16189D01*
X2867Y16178D01*
X2813Y16153D01*
X2751Y16120D01*
X2685Y16080D01*
X2624Y16025D01*
X2569Y15960D01*
Y15956D01*
X2562Y15952D01*
X2558Y15942D01*
X2547Y15927D01*
X2536Y15909D01*
X2525Y15887D01*
X2500Y15829D01*
X2474Y15763D01*
X2452Y15683D01*
X2438Y15592D01*
X2431Y15494D01*
Y15468D01*
X2434Y15446D01*
Y15421D01*
X2438Y15392D01*
X2442Y15359D01*
X2449Y15326D01*
X2467Y15246D01*
X2489Y15159D01*
X2525Y15064D01*
X2573Y14973D01*
Y14970D01*
X2580Y14962D01*
X2587Y14951D01*
X2598Y14933D01*
X2631Y14889D01*
X2675Y14839D01*
X2729Y14780D01*
X2795Y14726D01*
X2871Y14671D01*
X2958Y14627D01*
X2962D01*
X2969Y14624D01*
X2984Y14616D01*
X3006Y14613D01*
X3031Y14602D01*
X3060Y14595D01*
X3097Y14587D01*
X3140Y14577D01*
X3188Y14566D01*
X3242Y14558D01*
X3301Y14547D01*
X3362Y14540D01*
X3432Y14536D01*
X3508Y14529D01*
X3588Y14525D01*
X3672D01*
X5630D01*
Y13907D01*
X1979D01*
Y14460D01*
X2514D01*
X2507Y14464D01*
X2489Y14478D01*
X2456Y14504D01*
X2420Y14536D01*
X2372Y14580D01*
X2321Y14635D01*
X2263Y14693D01*
X2209Y14766D01*
X2150Y14842D01*
X2096Y14930D01*
X2041Y15024D01*
X1994Y15126D01*
X1957Y15239D01*
X1925Y15359D01*
X1907Y15483D01*
X1899Y15618D01*
Y15650D01*
X1903Y15672D01*
Y15701D01*
X1907Y15734D01*
X1910Y15774D01*
X1914Y15814D01*
X1928Y15909D01*
X1950Y16011D01*
X1979Y16116D01*
X2019Y16222D01*
Y16225D01*
X2027Y16233D01*
X2034Y16247D01*
X2041Y16269D01*
X2052Y16291D01*
X2067Y16316D01*
X2103Y16378D01*
X2150Y16447D01*
X2201Y16517D01*
X2263Y16578D01*
X2329Y16637D01*
X2332D01*
X2336Y16644D01*
X2347Y16648D01*
X2362Y16658D01*
X2380Y16669D01*
X2402Y16680D01*
X2456Y16710D01*
X2525Y16742D01*
X2605Y16775D01*
X2693Y16801D01*
X2791Y16826D01*
X2795D01*
X2798D01*
X2809Y16830D01*
X2827Y16833D01*
X2846D01*
X2871Y16837D01*
X2897Y16840D01*
X2933Y16844D01*
X2969Y16848D01*
X3013Y16851D01*
X3060Y16855D01*
X3111D01*
X3166Y16859D01*
X3228Y16862D01*
X3293D01*
X3366D01*
X5630D01*
Y16244D01*
D02*
G37*
G36*
Y12822D02*
X6533D01*
X6904Y12203D01*
X5630D01*
Y11588D01*
X5150D01*
Y12203D01*
X3013D01*
X3009D01*
X3002D01*
X2988D01*
X2969D01*
X2926D01*
X2871Y12200D01*
X2816Y12196D01*
X2758Y12192D01*
X2711Y12185D01*
X2693Y12178D01*
X2675Y12174D01*
X2671D01*
X2664Y12167D01*
X2649Y12160D01*
X2631Y12149D01*
X2591Y12116D01*
X2573Y12094D01*
X2554Y12069D01*
Y12065D01*
X2547Y12054D01*
X2540Y12039D01*
X2533Y12014D01*
X2525Y11985D01*
X2518Y11948D01*
X2514Y11905D01*
X2511Y11857D01*
Y11817D01*
X2514Y11785D01*
Y11748D01*
X2522Y11701D01*
X2525Y11646D01*
X2533Y11588D01*
X1987Y11497D01*
Y11501D01*
X1983Y11508D01*
Y11523D01*
X1979Y11541D01*
X1976Y11563D01*
X1968Y11592D01*
X1961Y11654D01*
X1950Y11726D01*
X1939Y11806D01*
X1936Y11886D01*
X1932Y11967D01*
Y12021D01*
X1936Y12050D01*
X1939Y12083D01*
X1946Y12156D01*
X1957Y12240D01*
X1976Y12327D01*
X2001Y12411D01*
X2038Y12487D01*
Y12491D01*
X2041Y12494D01*
X2056Y12516D01*
X2081Y12549D01*
X2110Y12589D01*
X2150Y12633D01*
X2198Y12676D01*
X2252Y12716D01*
X2314Y12749D01*
X2318D01*
X2321Y12753D01*
X2332Y12756D01*
X2351Y12760D01*
X2372Y12767D01*
X2398Y12771D01*
X2431Y12778D01*
X2471Y12786D01*
X2518Y12793D01*
X2569Y12800D01*
X2631Y12804D01*
X2696Y12811D01*
X2773Y12815D01*
X2853Y12818D01*
X2947Y12822D01*
X3046D01*
X5150D01*
Y13281D01*
X5630D01*
Y12822D01*
D02*
G37*
G36*
X3836Y11184D02*
X3861D01*
X3890D01*
X3927Y11180D01*
X4003Y11173D01*
X4090Y11162D01*
X4189Y11148D01*
X4298Y11129D01*
X4407Y11104D01*
X4524Y11071D01*
X4644Y11035D01*
X4764Y10987D01*
X4880Y10933D01*
X4993Y10871D01*
X5102Y10798D01*
X5201Y10714D01*
X5208Y10707D01*
X5223Y10693D01*
X5248Y10667D01*
X5281Y10627D01*
X5321Y10580D01*
X5361Y10525D01*
X5408Y10460D01*
X5455Y10383D01*
X5503Y10300D01*
X5550Y10205D01*
X5594Y10107D01*
X5630Y9997D01*
X5663Y9877D01*
X5689Y9753D01*
X5703Y9622D01*
X5710Y9484D01*
Y9451D01*
X5707Y9415D01*
X5703Y9364D01*
X5696Y9298D01*
X5685Y9229D01*
X5670Y9149D01*
X5648Y9062D01*
X5623Y8967D01*
X5590Y8873D01*
X5550Y8771D01*
X5499Y8672D01*
X5445Y8570D01*
X5375Y8476D01*
X5299Y8381D01*
X5212Y8290D01*
X5204Y8286D01*
X5190Y8268D01*
X5161Y8247D01*
X5121Y8217D01*
X5070Y8181D01*
X5008Y8141D01*
X4935Y8101D01*
X4851Y8057D01*
X4757Y8014D01*
X4651Y7970D01*
X4535Y7933D01*
X4411Y7897D01*
X4276Y7868D01*
X4131Y7842D01*
X3974Y7828D01*
X3810Y7824D01*
X3807D01*
X3799D01*
X3788D01*
X3770D01*
X3745D01*
X3719D01*
X3686Y7828D01*
X3646D01*
Y10551D01*
X3639D01*
X3621Y10547D01*
X3588D01*
X3548Y10540D01*
X3497Y10532D01*
X3439Y10525D01*
X3377Y10511D01*
X3308Y10496D01*
X3232Y10478D01*
X3159Y10452D01*
X3082Y10427D01*
X3006Y10394D01*
X2929Y10358D01*
X2857Y10314D01*
X2787Y10267D01*
X2726Y10212D01*
X2722Y10209D01*
X2711Y10198D01*
X2696Y10179D01*
X2675Y10158D01*
X2653Y10128D01*
X2627Y10092D01*
X2598Y10048D01*
X2569Y10001D01*
X2536Y9950D01*
X2511Y9892D01*
X2482Y9830D01*
X2460Y9761D01*
X2438Y9688D01*
X2423Y9612D01*
X2413Y9531D01*
X2409Y9448D01*
Y9415D01*
X2413Y9390D01*
X2416Y9360D01*
X2420Y9328D01*
X2423Y9287D01*
X2431Y9247D01*
X2452Y9156D01*
X2485Y9058D01*
X2503Y9007D01*
X2529Y8960D01*
X2554Y8913D01*
X2587Y8865D01*
X2591Y8862D01*
X2595Y8854D01*
X2605Y8844D01*
X2620Y8825D01*
X2642Y8803D01*
X2664Y8782D01*
X2693Y8756D01*
X2726Y8727D01*
X2765Y8698D01*
X2806Y8665D01*
X2853Y8636D01*
X2904Y8603D01*
X2962Y8570D01*
X3024Y8541D01*
X3090Y8512D01*
X3162Y8483D01*
X3079Y7846D01*
X3071D01*
X3053Y7853D01*
X3024Y7864D01*
X2988Y7875D01*
X2940Y7893D01*
X2886Y7915D01*
X2824Y7941D01*
X2758Y7974D01*
X2693Y8010D01*
X2620Y8050D01*
X2547Y8097D01*
X2474Y8148D01*
X2405Y8203D01*
X2336Y8265D01*
X2270Y8334D01*
X2209Y8407D01*
X2205Y8410D01*
X2194Y8425D01*
X2180Y8447D01*
X2161Y8479D01*
X2136Y8519D01*
X2110Y8570D01*
X2081Y8625D01*
X2056Y8691D01*
X2027Y8763D01*
X1997Y8840D01*
X1972Y8927D01*
X1946Y9018D01*
X1928Y9116D01*
X1914Y9222D01*
X1903Y9335D01*
X1899Y9451D01*
Y9488D01*
X1903Y9506D01*
Y9528D01*
X1907Y9582D01*
X1914Y9651D01*
X1925Y9728D01*
X1939Y9815D01*
X1961Y9910D01*
X1987Y10008D01*
X2019Y10114D01*
X2059Y10219D01*
X2107Y10325D01*
X2161Y10430D01*
X2227Y10532D01*
X2303Y10631D01*
X2391Y10722D01*
X2398Y10725D01*
X2413Y10740D01*
X2442Y10765D01*
X2482Y10795D01*
X2533Y10831D01*
X2595Y10867D01*
X2664Y10911D01*
X2747Y10955D01*
X2842Y10998D01*
X2944Y11038D01*
X3057Y11078D01*
X3181Y11115D01*
X3315Y11144D01*
X3457Y11166D01*
X3610Y11184D01*
X3774Y11188D01*
X3777D01*
X3785D01*
X3796D01*
X3814D01*
X3836Y11184D01*
D02*
G37*
G36*
X5630Y6517D02*
X5070D01*
X5073Y6514D01*
X5088Y6507D01*
X5106Y6496D01*
X5131Y6481D01*
X5164Y6463D01*
X5201Y6441D01*
X5281Y6390D01*
X5364Y6328D01*
X5452Y6263D01*
X5488Y6230D01*
X5525Y6197D01*
X5557Y6161D01*
X5583Y6128D01*
Y6124D01*
X5590Y6121D01*
X5594Y6110D01*
X5605Y6095D01*
X5623Y6059D01*
X5648Y6011D01*
X5670Y5950D01*
X5692Y5884D01*
X5707Y5811D01*
X5710Y5731D01*
Y5698D01*
X5707Y5677D01*
X5703Y5647D01*
X5699Y5615D01*
X5692Y5578D01*
X5685Y5535D01*
X5674Y5487D01*
X5663Y5436D01*
X5627Y5331D01*
X5605Y5273D01*
X5576Y5214D01*
X5547Y5156D01*
X5510Y5094D01*
X4939Y5313D01*
Y5316D01*
X4946Y5324D01*
X4950Y5334D01*
X4961Y5353D01*
X4968Y5371D01*
X4979Y5396D01*
X5004Y5455D01*
X5030Y5520D01*
X5048Y5597D01*
X5062Y5680D01*
X5070Y5764D01*
Y5797D01*
X5062Y5837D01*
X5055Y5884D01*
X5040Y5939D01*
X5019Y6001D01*
X4986Y6063D01*
X4946Y6124D01*
X4939Y6132D01*
X4924Y6150D01*
X4895Y6179D01*
X4859Y6212D01*
X4811Y6252D01*
X4753Y6288D01*
X4684Y6325D01*
X4607Y6354D01*
X4604D01*
X4593Y6357D01*
X4575Y6365D01*
X4549Y6368D01*
X4520Y6375D01*
X4484Y6386D01*
X4440Y6394D01*
X4396Y6405D01*
X4342Y6416D01*
X4287Y6423D01*
X4229Y6430D01*
X4167Y6441D01*
X4032Y6452D01*
X3887Y6456D01*
X1979D01*
Y7074D01*
X5630D01*
Y6517D01*
D02*
G37*
G36*
X3166Y4363D02*
X3162D01*
X3151Y4359D01*
X3130Y4355D01*
X3104Y4352D01*
X3075Y4344D01*
X3039Y4333D01*
X2998Y4323D01*
X2958Y4308D01*
X2867Y4272D01*
X2773Y4221D01*
X2726Y4191D01*
X2682Y4159D01*
X2642Y4119D01*
X2602Y4079D01*
X2598Y4075D01*
X2595Y4068D01*
X2583Y4053D01*
X2573Y4035D01*
X2558Y4010D01*
X2540Y3980D01*
X2522Y3948D01*
X2507Y3908D01*
X2489Y3864D01*
X2471Y3813D01*
X2452Y3758D01*
X2438Y3700D01*
X2427Y3635D01*
X2416Y3565D01*
X2413Y3493D01*
X2409Y3416D01*
Y3376D01*
X2413Y3347D01*
Y3311D01*
X2420Y3271D01*
X2423Y3227D01*
X2431Y3176D01*
X2452Y3074D01*
X2482Y2968D01*
X2525Y2870D01*
X2551Y2823D01*
X2580Y2783D01*
X2583Y2779D01*
X2587Y2776D01*
X2598Y2765D01*
X2613Y2750D01*
X2649Y2717D01*
X2696Y2677D01*
X2755Y2641D01*
X2827Y2608D01*
X2864Y2594D01*
X2904Y2583D01*
X2944Y2579D01*
X2988Y2575D01*
X2991D01*
X2998D01*
X3009D01*
X3020Y2579D01*
X3060Y2586D01*
X3108Y2597D01*
X3159Y2619D01*
X3213Y2652D01*
X3239Y2674D01*
X3268Y2699D01*
X3293Y2728D01*
X3315Y2761D01*
X3319Y2768D01*
X3322Y2776D01*
X3330Y2787D01*
X3337Y2805D01*
X3348Y2826D01*
X3359Y2856D01*
X3373Y2885D01*
X3388Y2925D01*
X3402Y2968D01*
X3421Y3023D01*
X3439Y3081D01*
X3457Y3147D01*
X3479Y3220D01*
X3501Y3303D01*
X3523Y3394D01*
Y3398D01*
X3526Y3402D01*
X3530Y3424D01*
X3541Y3460D01*
X3552Y3504D01*
X3566Y3562D01*
X3585Y3624D01*
X3603Y3693D01*
X3625Y3769D01*
X3672Y3926D01*
X3723Y4082D01*
X3748Y4155D01*
X3774Y4224D01*
X3799Y4286D01*
X3821Y4341D01*
Y4344D01*
X3828Y4352D01*
X3836Y4366D01*
X3843Y4385D01*
X3858Y4406D01*
X3872Y4432D01*
X3912Y4490D01*
X3959Y4552D01*
X4018Y4617D01*
X4087Y4683D01*
X4167Y4738D01*
X4171D01*
X4178Y4745D01*
X4189Y4749D01*
X4207Y4759D01*
X4225Y4770D01*
X4251Y4781D01*
X4280Y4792D01*
X4312Y4803D01*
X4385Y4829D01*
X4469Y4850D01*
X4560Y4865D01*
X4658Y4872D01*
X4662D01*
X4669D01*
X4684D01*
X4698Y4869D01*
X4720D01*
X4746Y4865D01*
X4808Y4858D01*
X4877Y4847D01*
X4953Y4825D01*
X5030Y4799D01*
X5110Y4763D01*
X5113D01*
X5121Y4759D01*
X5131Y4752D01*
X5146Y4741D01*
X5183Y4716D01*
X5230Y4683D01*
X5284Y4639D01*
X5343Y4585D01*
X5401Y4526D01*
X5455Y4457D01*
X5459Y4450D01*
X5474Y4432D01*
X5492Y4399D01*
X5517Y4352D01*
X5547Y4297D01*
X5576Y4232D01*
X5605Y4152D01*
X5634Y4064D01*
Y4061D01*
X5638Y4053D01*
X5641Y4039D01*
X5645Y4021D01*
X5652Y3999D01*
X5659Y3969D01*
X5667Y3937D01*
X5674Y3904D01*
X5685Y3824D01*
X5699Y3733D01*
X5707Y3635D01*
X5710Y3529D01*
Y3456D01*
X5707Y3420D01*
X5703Y3376D01*
X5699Y3325D01*
X5696Y3271D01*
X5689Y3216D01*
X5681Y3154D01*
X5659Y3027D01*
X5627Y2896D01*
X5587Y2772D01*
Y2768D01*
X5579Y2757D01*
X5576Y2739D01*
X5565Y2717D01*
X5550Y2692D01*
X5536Y2663D01*
X5499Y2590D01*
X5452Y2513D01*
X5394Y2433D01*
X5328Y2361D01*
X5292Y2324D01*
X5252Y2295D01*
X5248Y2292D01*
X5241Y2288D01*
X5230Y2280D01*
X5212Y2270D01*
X5193Y2255D01*
X5168Y2241D01*
X5135Y2226D01*
X5102Y2208D01*
X5062Y2190D01*
X5022Y2171D01*
X4975Y2153D01*
X4924Y2139D01*
X4869Y2120D01*
X4815Y2102D01*
X4687Y2077D01*
X4604Y2681D01*
X4607D01*
X4615Y2685D01*
X4629D01*
X4651Y2692D01*
X4673Y2695D01*
X4702Y2706D01*
X4764Y2728D01*
X4833Y2761D01*
X4906Y2801D01*
X4979Y2856D01*
X5011Y2888D01*
X5040Y2925D01*
X5044Y2929D01*
X5048Y2932D01*
X5055Y2947D01*
X5066Y2961D01*
X5077Y2983D01*
X5091Y3005D01*
X5106Y3034D01*
X5121Y3067D01*
X5135Y3107D01*
X5150Y3147D01*
X5164Y3194D01*
X5175Y3241D01*
X5186Y3296D01*
X5193Y3354D01*
X5201Y3416D01*
Y3522D01*
X5197Y3551D01*
Y3587D01*
X5193Y3627D01*
X5190Y3671D01*
X5183Y3718D01*
X5168Y3820D01*
X5142Y3922D01*
X5124Y3969D01*
X5106Y4013D01*
X5084Y4057D01*
X5059Y4093D01*
Y4097D01*
X5051Y4101D01*
X5033Y4122D01*
X5004Y4152D01*
X4964Y4184D01*
X4917Y4217D01*
X4862Y4246D01*
X4800Y4268D01*
X4764Y4272D01*
X4731Y4275D01*
X4727D01*
X4709D01*
X4687Y4272D01*
X4658Y4264D01*
X4626Y4257D01*
X4589Y4246D01*
X4549Y4228D01*
X4513Y4202D01*
X4509Y4199D01*
X4498Y4188D01*
X4480Y4170D01*
X4454Y4144D01*
X4429Y4112D01*
X4403Y4068D01*
X4374Y4021D01*
X4349Y3962D01*
Y3959D01*
X4345Y3951D01*
X4342Y3940D01*
X4338Y3926D01*
X4331Y3908D01*
X4327Y3886D01*
X4316Y3860D01*
X4309Y3827D01*
X4298Y3788D01*
X4283Y3744D01*
X4269Y3693D01*
X4254Y3635D01*
X4236Y3569D01*
X4214Y3493D01*
X4192Y3413D01*
Y3409D01*
X4189Y3405D01*
X4185Y3384D01*
X4174Y3351D01*
X4163Y3307D01*
X4149Y3252D01*
X4131Y3190D01*
X4112Y3121D01*
X4090Y3052D01*
X4047Y2899D01*
X3996Y2747D01*
X3974Y2677D01*
X3949Y2608D01*
X3927Y2550D01*
X3905Y2495D01*
Y2492D01*
X3901Y2484D01*
X3894Y2470D01*
X3883Y2452D01*
X3872Y2430D01*
X3858Y2404D01*
X3821Y2346D01*
X3774Y2280D01*
X3719Y2215D01*
X3654Y2149D01*
X3577Y2088D01*
X3574D01*
X3566Y2080D01*
X3555Y2073D01*
X3541Y2066D01*
X3519Y2051D01*
X3494Y2040D01*
X3464Y2026D01*
X3432Y2011D01*
X3395Y2000D01*
X3355Y1986D01*
X3268Y1960D01*
X3166Y1946D01*
X3053Y1938D01*
X3049D01*
X3039D01*
X3024D01*
X3002Y1942D01*
X2973D01*
X2940Y1949D01*
X2904Y1953D01*
X2864Y1960D01*
X2777Y1982D01*
X2678Y2015D01*
X2627Y2037D01*
X2573Y2059D01*
X2522Y2088D01*
X2471Y2120D01*
X2467Y2124D01*
X2460Y2128D01*
X2445Y2139D01*
X2427Y2153D01*
X2402Y2171D01*
X2376Y2197D01*
X2347Y2222D01*
X2314Y2255D01*
X2281Y2288D01*
X2249Y2328D01*
X2212Y2372D01*
X2176Y2419D01*
X2143Y2470D01*
X2110Y2524D01*
X2078Y2583D01*
X2049Y2644D01*
Y2648D01*
X2041Y2659D01*
X2034Y2677D01*
X2027Y2703D01*
X2016Y2736D01*
X2001Y2776D01*
X1987Y2819D01*
X1976Y2867D01*
X1961Y2921D01*
X1946Y2979D01*
X1936Y3045D01*
X1921Y3111D01*
X1907Y3256D01*
X1899Y3413D01*
Y3445D01*
X1903Y3482D01*
Y3529D01*
X1910Y3591D01*
X1914Y3656D01*
X1925Y3733D01*
X1936Y3817D01*
X1950Y3904D01*
X1972Y3991D01*
X1994Y4082D01*
X2023Y4173D01*
X2056Y4261D01*
X2096Y4348D01*
X2143Y4428D01*
X2194Y4501D01*
X2198Y4505D01*
X2209Y4515D01*
X2227Y4537D01*
X2249Y4559D01*
X2281Y4588D01*
X2318Y4625D01*
X2362Y4661D01*
X2416Y4698D01*
X2474Y4738D01*
X2536Y4781D01*
X2609Y4818D01*
X2689Y4858D01*
X2773Y4894D01*
X2867Y4923D01*
X2966Y4952D01*
X3071Y4974D01*
X3166Y4363D01*
D02*
G37*
G36*
X51486Y120512D02*
X49619Y119303D01*
X50041Y118870D01*
X51486D01*
Y118251D01*
X46448D01*
Y118870D01*
X49324D01*
X47835Y120333D01*
Y121134D01*
X49193Y119740D01*
X51486Y121276D01*
Y120512D01*
D02*
G37*
G36*
X49117Y117443D02*
X49149D01*
X49226Y117440D01*
X49313Y117436D01*
X49408Y117432D01*
X49513Y117425D01*
X49626Y117414D01*
X49742Y117403D01*
X49979Y117370D01*
X50099Y117349D01*
X50216Y117323D01*
X50329Y117294D01*
X50434Y117261D01*
X50441Y117258D01*
X50460Y117254D01*
X50485Y117243D01*
X50525Y117228D01*
X50569Y117207D01*
X50623Y117185D01*
X50682Y117156D01*
X50744Y117127D01*
X50809Y117090D01*
X50878Y117046D01*
X50947Y117003D01*
X51020Y116955D01*
X51089Y116901D01*
X51155Y116843D01*
X51217Y116781D01*
X51275Y116715D01*
X51279Y116712D01*
X51286Y116697D01*
X51301Y116679D01*
X51322Y116650D01*
X51344Y116613D01*
X51370Y116573D01*
X51395Y116522D01*
X51421Y116468D01*
X51450Y116402D01*
X51475Y116333D01*
X51501Y116260D01*
X51522Y116180D01*
X51541Y116093D01*
X51555Y116002D01*
X51566Y115907D01*
X51570Y115805D01*
Y115772D01*
X51566Y115736D01*
X51562Y115685D01*
X51555Y115623D01*
X51541Y115550D01*
X51526Y115474D01*
X51504Y115387D01*
X51479Y115296D01*
X51442Y115205D01*
X51402Y115110D01*
X51351Y115012D01*
X51293Y114917D01*
X51224Y114826D01*
X51144Y114739D01*
X51053Y114659D01*
X51049D01*
X51046Y114655D01*
X51035Y114648D01*
X51024Y114637D01*
X51006Y114626D01*
X50984Y114611D01*
X50962Y114597D01*
X50933Y114582D01*
X50900Y114564D01*
X50864Y114542D01*
X50824Y114524D01*
X50780Y114502D01*
X50729Y114480D01*
X50678Y114459D01*
X50620Y114433D01*
X50561Y114411D01*
X50496Y114389D01*
X50427Y114364D01*
X50354Y114342D01*
X50274Y114320D01*
X50194Y114298D01*
X50107Y114280D01*
X50019Y114258D01*
X49921Y114240D01*
X49823Y114225D01*
X49721Y114211D01*
X49611Y114196D01*
X49499Y114186D01*
X49382Y114174D01*
X49262Y114171D01*
X49135Y114164D01*
X49004D01*
X49000D01*
X48993D01*
X48982D01*
X48964D01*
X48942D01*
X48916D01*
X48887Y114167D01*
X48854D01*
X48782Y114171D01*
X48694Y114174D01*
X48596Y114178D01*
X48490Y114186D01*
X48378Y114196D01*
X48261Y114207D01*
X48021Y114240D01*
X47901Y114262D01*
X47784Y114287D01*
X47671Y114313D01*
X47566Y114346D01*
X47559Y114349D01*
X47540Y114353D01*
X47515Y114364D01*
X47475Y114378D01*
X47431Y114400D01*
X47376Y114422D01*
X47318Y114451D01*
X47256Y114484D01*
X47191Y114517D01*
X47122Y114560D01*
X47049Y114604D01*
X46980Y114651D01*
X46911Y114706D01*
X46845Y114764D01*
X46783Y114826D01*
X46725Y114892D01*
X46721Y114895D01*
X46710Y114910D01*
X46696Y114928D01*
X46678Y114957D01*
X46656Y114994D01*
X46630Y115037D01*
X46605Y115085D01*
X46576Y115143D01*
X46550Y115205D01*
X46525Y115274D01*
X46499Y115350D01*
X46477Y115430D01*
X46456Y115518D01*
X46441Y115609D01*
X46434Y115703D01*
X46430Y115805D01*
Y115845D01*
X46434Y115874D01*
Y115907D01*
X46437Y115951D01*
X46445Y115995D01*
X46452Y116045D01*
X46470Y116155D01*
X46499Y116275D01*
X46539Y116399D01*
X46565Y116457D01*
X46594Y116515D01*
Y116519D01*
X46601Y116530D01*
X46612Y116544D01*
X46623Y116566D01*
X46641Y116592D01*
X46663Y116621D01*
X46685Y116657D01*
X46714Y116693D01*
X46780Y116773D01*
X46863Y116857D01*
X46958Y116941D01*
X47067Y117017D01*
X47071Y117021D01*
X47082Y117025D01*
X47100Y117036D01*
X47122Y117050D01*
X47151Y117068D01*
X47187Y117087D01*
X47227Y117108D01*
X47275Y117130D01*
X47326Y117156D01*
X47384Y117181D01*
X47446Y117207D01*
X47511Y117236D01*
X47580Y117261D01*
X47653Y117283D01*
X47733Y117309D01*
X47813Y117330D01*
X47817D01*
X47835Y117334D01*
X47857Y117341D01*
X47893Y117349D01*
X47937Y117356D01*
X47992Y117367D01*
X48054Y117378D01*
X48126Y117389D01*
X48206Y117400D01*
X48298Y117411D01*
X48396Y117421D01*
X48501Y117429D01*
X48614Y117436D01*
X48738Y117443D01*
X48865Y117447D01*
X49004D01*
X49007D01*
X49015D01*
X49025D01*
X49044D01*
X49062D01*
X49087D01*
X49117Y117443D01*
D02*
G37*
G36*
X51486Y111961D02*
X47548D01*
X47551Y111958D01*
X47559Y111951D01*
X47570Y111940D01*
X47584Y111921D01*
X47602Y111899D01*
X47628Y111870D01*
X47653Y111838D01*
X47682Y111805D01*
X47711Y111761D01*
X47748Y111717D01*
X47781Y111670D01*
X47821Y111619D01*
X47857Y111561D01*
X47897Y111503D01*
X47977Y111372D01*
X47981Y111368D01*
X47988Y111357D01*
X47999Y111335D01*
X48010Y111310D01*
X48028Y111281D01*
X48050Y111244D01*
X48072Y111201D01*
X48097Y111157D01*
X48148Y111055D01*
X48199Y110946D01*
X48250Y110833D01*
X48294Y110724D01*
X47697D01*
X47693Y110731D01*
X47686Y110746D01*
X47671Y110775D01*
X47653Y110811D01*
X47631Y110855D01*
X47602Y110909D01*
X47570Y110968D01*
X47533Y111030D01*
X47489Y111099D01*
X47446Y111171D01*
X47344Y111324D01*
X47231Y111481D01*
X47107Y111630D01*
X47104Y111634D01*
X47093Y111648D01*
X47074Y111667D01*
X47049Y111692D01*
X47016Y111725D01*
X46980Y111761D01*
X46936Y111801D01*
X46892Y111845D01*
X46841Y111889D01*
X46787Y111936D01*
X46674Y112027D01*
X46554Y112111D01*
X46492Y112147D01*
X46430Y112180D01*
Y112580D01*
X51486D01*
Y111961D01*
D02*
G37*
G36*
X61307Y121269D02*
X61314Y121254D01*
X61329Y121225D01*
X61347Y121189D01*
X61369Y121145D01*
X61398Y121090D01*
X61431Y121032D01*
X61467Y120970D01*
X61511Y120901D01*
X61554Y120828D01*
X61656Y120676D01*
X61769Y120519D01*
X61893Y120370D01*
X61896Y120366D01*
X61907Y120352D01*
X61926Y120333D01*
X61951Y120308D01*
X61984Y120275D01*
X62020Y120239D01*
X62064Y120199D01*
X62108Y120155D01*
X62159Y120111D01*
X62213Y120064D01*
X62326Y119973D01*
X62446Y119889D01*
X62508Y119853D01*
X62570Y119820D01*
Y119420D01*
X57514D01*
Y120039D01*
X61452D01*
X61449Y120042D01*
X61441Y120050D01*
X61431Y120060D01*
X61416Y120079D01*
X61398Y120100D01*
X61372Y120130D01*
X61347Y120162D01*
X61318Y120195D01*
X61288Y120239D01*
X61252Y120282D01*
X61219Y120330D01*
X61179Y120381D01*
X61143Y120439D01*
X61103Y120497D01*
X61023Y120628D01*
X61019Y120632D01*
X61012Y120643D01*
X61001Y120665D01*
X60990Y120690D01*
X60972Y120719D01*
X60950Y120756D01*
X60928Y120799D01*
X60903Y120843D01*
X60852Y120945D01*
X60801Y121054D01*
X60750Y121167D01*
X60706Y121276D01*
X61303D01*
X61307Y121269D01*
D02*
G37*
G36*
X60113Y117833D02*
X60146D01*
X60218Y117829D01*
X60306Y117825D01*
X60404Y117822D01*
X60510Y117815D01*
X60622Y117804D01*
X60739Y117793D01*
X60979Y117760D01*
X61099Y117738D01*
X61216Y117713D01*
X61329Y117687D01*
X61434Y117654D01*
X61441Y117651D01*
X61460Y117647D01*
X61485Y117636D01*
X61525Y117622D01*
X61569Y117600D01*
X61623Y117578D01*
X61682Y117549D01*
X61744Y117516D01*
X61809Y117483D01*
X61878Y117440D01*
X61951Y117396D01*
X62020Y117349D01*
X62089Y117294D01*
X62155Y117236D01*
X62217Y117174D01*
X62275Y117108D01*
X62279Y117105D01*
X62290Y117090D01*
X62304Y117072D01*
X62322Y117043D01*
X62344Y117007D01*
X62370Y116963D01*
X62395Y116916D01*
X62424Y116857D01*
X62450Y116795D01*
X62475Y116726D01*
X62501Y116650D01*
X62523Y116570D01*
X62544Y116482D01*
X62559Y116391D01*
X62566Y116297D01*
X62570Y116195D01*
Y116155D01*
X62566Y116126D01*
Y116093D01*
X62563Y116049D01*
X62555Y116006D01*
X62548Y115954D01*
X62530Y115845D01*
X62501Y115725D01*
X62461Y115601D01*
X62435Y115543D01*
X62406Y115485D01*
Y115481D01*
X62399Y115470D01*
X62388Y115456D01*
X62377Y115434D01*
X62359Y115409D01*
X62337Y115379D01*
X62315Y115343D01*
X62286Y115307D01*
X62220Y115226D01*
X62137Y115143D01*
X62042Y115059D01*
X61933Y114983D01*
X61929Y114979D01*
X61918Y114975D01*
X61900Y114964D01*
X61878Y114950D01*
X61849Y114932D01*
X61813Y114913D01*
X61773Y114892D01*
X61725Y114870D01*
X61674Y114844D01*
X61616Y114819D01*
X61554Y114793D01*
X61489Y114764D01*
X61420Y114739D01*
X61347Y114717D01*
X61267Y114691D01*
X61187Y114670D01*
X61183D01*
X61165Y114666D01*
X61143Y114659D01*
X61107Y114651D01*
X61063Y114644D01*
X61008Y114633D01*
X60946Y114622D01*
X60874Y114611D01*
X60794Y114600D01*
X60703Y114590D01*
X60604Y114579D01*
X60499Y114571D01*
X60386Y114564D01*
X60262Y114557D01*
X60135Y114553D01*
X59996D01*
X59993D01*
X59985D01*
X59974D01*
X59956D01*
X59938D01*
X59913D01*
X59883Y114557D01*
X59851D01*
X59774Y114560D01*
X59687Y114564D01*
X59592Y114568D01*
X59487Y114575D01*
X59374Y114586D01*
X59257Y114597D01*
X59021Y114629D01*
X58901Y114651D01*
X58784Y114677D01*
X58671Y114706D01*
X58566Y114739D01*
X58559Y114742D01*
X58540Y114746D01*
X58515Y114757D01*
X58475Y114771D01*
X58431Y114793D01*
X58376Y114815D01*
X58318Y114844D01*
X58256Y114873D01*
X58191Y114910D01*
X58122Y114953D01*
X58053Y114997D01*
X57980Y115044D01*
X57911Y115099D01*
X57845Y115157D01*
X57783Y115219D01*
X57725Y115285D01*
X57721Y115288D01*
X57714Y115303D01*
X57700Y115321D01*
X57678Y115350D01*
X57656Y115387D01*
X57630Y115427D01*
X57605Y115478D01*
X57579Y115532D01*
X57550Y115598D01*
X57525Y115667D01*
X57499Y115740D01*
X57477Y115820D01*
X57459Y115907D01*
X57445Y115998D01*
X57434Y116093D01*
X57430Y116195D01*
Y116227D01*
X57434Y116264D01*
X57437Y116315D01*
X57445Y116377D01*
X57459Y116449D01*
X57474Y116526D01*
X57496Y116613D01*
X57521Y116704D01*
X57558Y116795D01*
X57598Y116890D01*
X57649Y116988D01*
X57707Y117083D01*
X57776Y117174D01*
X57856Y117261D01*
X57947Y117341D01*
X57951D01*
X57954Y117345D01*
X57965Y117352D01*
X57976Y117363D01*
X57994Y117374D01*
X58016Y117389D01*
X58038Y117403D01*
X58067Y117418D01*
X58100Y117436D01*
X58136Y117458D01*
X58176Y117476D01*
X58220Y117498D01*
X58271Y117520D01*
X58322Y117542D01*
X58380Y117567D01*
X58438Y117589D01*
X58504Y117611D01*
X58573Y117636D01*
X58646Y117658D01*
X58726Y117680D01*
X58806Y117702D01*
X58893Y117720D01*
X58981Y117742D01*
X59079Y117760D01*
X59177Y117774D01*
X59279Y117789D01*
X59389Y117804D01*
X59501Y117815D01*
X59618Y117825D01*
X59738Y117829D01*
X59865Y117836D01*
X59996D01*
X60000D01*
X60007D01*
X60018D01*
X60036D01*
X60058D01*
X60084D01*
X60113Y117833D01*
D02*
G37*
G36*
X62552Y113130D02*
X59676D01*
X61165Y111667D01*
Y110866D01*
X59807Y112260D01*
X57514Y110724D01*
Y111488D01*
X59381Y112697D01*
X58959Y113130D01*
X57514D01*
Y113749D01*
X62552D01*
Y113130D01*
D02*
G37*
G36*
X39307Y121269D02*
X39314Y121254D01*
X39329Y121225D01*
X39347Y121189D01*
X39369Y121145D01*
X39398Y121090D01*
X39430Y121032D01*
X39467Y120970D01*
X39511Y120901D01*
X39554Y120828D01*
X39656Y120676D01*
X39769Y120519D01*
X39893Y120370D01*
X39896Y120366D01*
X39907Y120352D01*
X39926Y120333D01*
X39951Y120308D01*
X39984Y120275D01*
X40020Y120239D01*
X40064Y120199D01*
X40108Y120155D01*
X40159Y120111D01*
X40213Y120064D01*
X40326Y119973D01*
X40446Y119889D01*
X40508Y119853D01*
X40570Y119820D01*
Y119420D01*
X35514D01*
Y120039D01*
X39452D01*
X39449Y120042D01*
X39441Y120050D01*
X39430Y120060D01*
X39416Y120079D01*
X39398Y120100D01*
X39372Y120130D01*
X39347Y120162D01*
X39318Y120195D01*
X39288Y120239D01*
X39252Y120282D01*
X39219Y120330D01*
X39179Y120381D01*
X39143Y120439D01*
X39103Y120497D01*
X39023Y120628D01*
X39019Y120632D01*
X39012Y120643D01*
X39001Y120665D01*
X38990Y120690D01*
X38972Y120719D01*
X38950Y120756D01*
X38928Y120799D01*
X38903Y120843D01*
X38852Y120945D01*
X38801Y121054D01*
X38750Y121167D01*
X38706Y121276D01*
X39303D01*
X39307Y121269D01*
D02*
G37*
G36*
X38113Y117833D02*
X38146D01*
X38218Y117829D01*
X38306Y117825D01*
X38404Y117822D01*
X38510Y117815D01*
X38622Y117804D01*
X38739Y117793D01*
X38979Y117760D01*
X39099Y117738D01*
X39216Y117713D01*
X39329Y117687D01*
X39434Y117654D01*
X39441Y117651D01*
X39460Y117647D01*
X39485Y117636D01*
X39525Y117622D01*
X39569Y117600D01*
X39623Y117578D01*
X39682Y117549D01*
X39744Y117516D01*
X39809Y117483D01*
X39878Y117440D01*
X39951Y117396D01*
X40020Y117349D01*
X40089Y117294D01*
X40155Y117236D01*
X40217Y117174D01*
X40275Y117108D01*
X40279Y117105D01*
X40290Y117090D01*
X40304Y117072D01*
X40322Y117043D01*
X40344Y117007D01*
X40370Y116963D01*
X40395Y116916D01*
X40424Y116857D01*
X40450Y116795D01*
X40475Y116726D01*
X40501Y116650D01*
X40523Y116570D01*
X40544Y116482D01*
X40559Y116391D01*
X40566Y116297D01*
X40570Y116195D01*
Y116155D01*
X40566Y116126D01*
Y116093D01*
X40562Y116049D01*
X40555Y116006D01*
X40548Y115954D01*
X40530Y115845D01*
X40501Y115725D01*
X40461Y115601D01*
X40435Y115543D01*
X40406Y115485D01*
Y115481D01*
X40399Y115470D01*
X40388Y115456D01*
X40377Y115434D01*
X40359Y115409D01*
X40337Y115379D01*
X40315Y115343D01*
X40286Y115307D01*
X40220Y115226D01*
X40137Y115143D01*
X40042Y115059D01*
X39933Y114983D01*
X39929Y114979D01*
X39918Y114975D01*
X39900Y114964D01*
X39878Y114950D01*
X39849Y114932D01*
X39813Y114913D01*
X39773Y114892D01*
X39725Y114870D01*
X39674Y114844D01*
X39616Y114819D01*
X39554Y114793D01*
X39489Y114764D01*
X39420Y114739D01*
X39347Y114717D01*
X39267Y114691D01*
X39187Y114670D01*
X39183D01*
X39165Y114666D01*
X39143Y114659D01*
X39107Y114651D01*
X39063Y114644D01*
X39008Y114633D01*
X38946Y114622D01*
X38874Y114611D01*
X38794Y114600D01*
X38702Y114590D01*
X38604Y114579D01*
X38499Y114571D01*
X38386Y114564D01*
X38262Y114557D01*
X38135Y114553D01*
X37996D01*
X37993D01*
X37985D01*
X37975D01*
X37956D01*
X37938D01*
X37913D01*
X37883Y114557D01*
X37851D01*
X37774Y114560D01*
X37687Y114564D01*
X37592Y114568D01*
X37487Y114575D01*
X37374Y114586D01*
X37257Y114597D01*
X37021Y114629D01*
X36901Y114651D01*
X36784Y114677D01*
X36671Y114706D01*
X36566Y114739D01*
X36559Y114742D01*
X36540Y114746D01*
X36515Y114757D01*
X36475Y114771D01*
X36431Y114793D01*
X36377Y114815D01*
X36318Y114844D01*
X36256Y114873D01*
X36191Y114910D01*
X36122Y114953D01*
X36053Y114997D01*
X35980Y115044D01*
X35911Y115099D01*
X35845Y115157D01*
X35783Y115219D01*
X35725Y115285D01*
X35721Y115288D01*
X35714Y115303D01*
X35699Y115321D01*
X35678Y115350D01*
X35656Y115387D01*
X35630Y115427D01*
X35605Y115478D01*
X35579Y115532D01*
X35550Y115598D01*
X35525Y115667D01*
X35499Y115740D01*
X35478Y115820D01*
X35459Y115907D01*
X35445Y115998D01*
X35434Y116093D01*
X35430Y116195D01*
Y116227D01*
X35434Y116264D01*
X35437Y116315D01*
X35445Y116377D01*
X35459Y116449D01*
X35474Y116526D01*
X35496Y116613D01*
X35521Y116704D01*
X35557Y116795D01*
X35598Y116890D01*
X35649Y116988D01*
X35707Y117083D01*
X35776Y117174D01*
X35856Y117261D01*
X35947Y117341D01*
X35951D01*
X35954Y117345D01*
X35965Y117352D01*
X35976Y117363D01*
X35994Y117374D01*
X36016Y117389D01*
X36038Y117403D01*
X36067Y117418D01*
X36100Y117436D01*
X36136Y117458D01*
X36176Y117476D01*
X36220Y117498D01*
X36271Y117520D01*
X36322Y117542D01*
X36380Y117567D01*
X36438Y117589D01*
X36504Y117611D01*
X36573Y117636D01*
X36646Y117658D01*
X36726Y117680D01*
X36806Y117702D01*
X36893Y117720D01*
X36981Y117742D01*
X37079Y117760D01*
X37177Y117774D01*
X37279Y117789D01*
X37389Y117804D01*
X37501Y117815D01*
X37618Y117825D01*
X37738Y117829D01*
X37865Y117836D01*
X37996D01*
X38000D01*
X38007D01*
X38018D01*
X38036D01*
X38058D01*
X38084D01*
X38113Y117833D01*
D02*
G37*
G36*
X40552Y113130D02*
X37676D01*
X39165Y111667D01*
Y110866D01*
X37807Y112260D01*
X35514Y110724D01*
Y111488D01*
X37381Y112697D01*
X36959Y113130D01*
X35514D01*
Y113749D01*
X40552D01*
Y113130D01*
D02*
G37*
%LPC*%
G36*
X55123Y70837D02*
X53321D01*
Y69476D01*
X53325Y69432D01*
X53328Y69381D01*
X53335Y69319D01*
X53343Y69254D01*
X53350Y69181D01*
X53379Y69032D01*
X53397Y68955D01*
X53423Y68879D01*
X53448Y68806D01*
X53481Y68737D01*
X53517Y68675D01*
X53561Y68620D01*
X53565Y68617D01*
X53572Y68609D01*
X53587Y68595D01*
X53605Y68577D01*
X53630Y68558D01*
X53659Y68533D01*
X53696Y68507D01*
X53736Y68482D01*
X53783Y68457D01*
X53830Y68435D01*
X53889Y68409D01*
X53947Y68391D01*
X54012Y68373D01*
X54085Y68358D01*
X54158Y68351D01*
X54238Y68347D01*
X54242D01*
X54253D01*
X54267D01*
X54293Y68351D01*
X54318D01*
X54351Y68355D01*
X54387Y68362D01*
X54424Y68366D01*
X54507Y68387D01*
X54598Y68417D01*
X54689Y68453D01*
X54733Y68478D01*
X54777Y68507D01*
X54780D01*
X54788Y68515D01*
X54799Y68526D01*
X54813Y68537D01*
X54853Y68573D01*
X54901Y68620D01*
X54948Y68682D01*
X54999Y68751D01*
X55042Y68835D01*
X55075Y68930D01*
Y68933D01*
X55079Y68937D01*
Y68948D01*
X55083Y68963D01*
X55086Y68981D01*
X55090Y69006D01*
X55093Y69035D01*
X55101Y69072D01*
X55104Y69112D01*
X55108Y69155D01*
X55112Y69206D01*
X55115Y69265D01*
X55119Y69327D01*
Y69396D01*
X55123Y69468D01*
Y70837D01*
D02*
G37*
G36*
X55159Y66134D02*
X53496D01*
Y64627D01*
X53499Y64591D01*
Y64543D01*
X53503Y64496D01*
X53506Y64442D01*
X53517Y64329D01*
X53536Y64209D01*
X53557Y64092D01*
X53572Y64041D01*
X53587Y63990D01*
Y63987D01*
X53590Y63979D01*
X53597Y63965D01*
X53605Y63947D01*
X53616Y63925D01*
X53627Y63903D01*
X53659Y63845D01*
X53703Y63779D01*
X53754Y63714D01*
X53816Y63652D01*
X53889Y63597D01*
X53892D01*
X53900Y63590D01*
X53910Y63586D01*
X53925Y63575D01*
X53943Y63564D01*
X53969Y63553D01*
X54023Y63528D01*
X54089Y63506D01*
X54165Y63484D01*
X54249Y63470D01*
X54340Y63462D01*
X54344D01*
X54355D01*
X54373D01*
X54398Y63466D01*
X54431Y63470D01*
X54464Y63477D01*
X54504Y63484D01*
X54548Y63495D01*
X54591Y63510D01*
X54638Y63528D01*
X54689Y63546D01*
X54737Y63572D01*
X54788Y63604D01*
X54835Y63637D01*
X54882Y63677D01*
X54926Y63724D01*
X54930Y63728D01*
X54937Y63735D01*
X54948Y63754D01*
X54962Y63772D01*
X54981Y63801D01*
X54999Y63837D01*
X55021Y63877D01*
X55042Y63925D01*
X55064Y63976D01*
X55086Y64038D01*
X55104Y64107D01*
X55123Y64179D01*
X55137Y64260D01*
X55148Y64347D01*
X55155Y64442D01*
X55159Y64543D01*
Y66134D01*
D02*
G37*
G36*
X53226Y61246D02*
X53121D01*
X53117D01*
X53110D01*
X53099D01*
X53081D01*
X53059Y61242D01*
X53033D01*
X53004D01*
X52971Y61238D01*
X52895Y61231D01*
X52804Y61220D01*
X52706Y61206D01*
X52600Y61184D01*
X52487Y61158D01*
X52371Y61126D01*
X52251Y61085D01*
X52131Y61038D01*
X52014Y60984D01*
X51898Y60918D01*
X51788Y60845D01*
X51687Y60758D01*
X51679Y60751D01*
X51665Y60736D01*
X51639Y60707D01*
X51606Y60671D01*
X51566Y60620D01*
X51523Y60565D01*
X51475Y60496D01*
X51428Y60419D01*
X51377Y60336D01*
X51330Y60241D01*
X51286Y60139D01*
X51246Y60030D01*
X51213Y59917D01*
X51188Y59793D01*
X51173Y59662D01*
X51166Y59528D01*
Y59495D01*
X51170Y59477D01*
Y59455D01*
X51173Y59404D01*
X51180Y59338D01*
X51195Y59266D01*
X51210Y59182D01*
X51231Y59091D01*
X51261Y58996D01*
X51293Y58894D01*
X51337Y58792D01*
X51388Y58690D01*
X51450Y58585D01*
X51519Y58483D01*
X51603Y58385D01*
X51694Y58290D01*
X51701Y58283D01*
X51719Y58268D01*
X51748Y58246D01*
X51792Y58214D01*
X51847Y58177D01*
X51912Y58137D01*
X51989Y58090D01*
X52080Y58046D01*
X52182Y57999D01*
X52291Y57955D01*
X52414Y57915D01*
X52549Y57879D01*
X52695Y57846D01*
X52851Y57824D01*
X53015Y57806D01*
X53193Y57802D01*
X53201D01*
X53219D01*
X53252D01*
X53295Y57806D01*
X53350Y57810D01*
X53412Y57813D01*
X53481Y57820D01*
X53557Y57828D01*
X53637Y57839D01*
X53725Y57853D01*
X53812Y57871D01*
X53903Y57890D01*
X53994Y57915D01*
X54085Y57944D01*
X54176Y57977D01*
X54264Y58013D01*
X54267Y58017D01*
X54285Y58024D01*
X54307Y58035D01*
X54340Y58053D01*
X54376Y58075D01*
X54424Y58101D01*
X54471Y58130D01*
X54526Y58166D01*
X54580Y58206D01*
X54638Y58254D01*
X54697Y58301D01*
X54755Y58355D01*
X54813Y58417D01*
X54871Y58479D01*
X54922Y58548D01*
X54973Y58621D01*
X54977Y58625D01*
X54984Y58639D01*
X54995Y58661D01*
X55013Y58690D01*
X55032Y58730D01*
X55053Y58774D01*
X55079Y58825D01*
X55101Y58883D01*
X55126Y58949D01*
X55148Y59018D01*
X55170Y59091D01*
X55188Y59171D01*
X55206Y59251D01*
X55217Y59338D01*
X55225Y59429D01*
X55228Y59520D01*
Y59553D01*
X55225Y59589D01*
X55221Y59637D01*
X55214Y59699D01*
X55203Y59772D01*
X55188Y59852D01*
X55166Y59935D01*
X55141Y60030D01*
X55108Y60128D01*
X55068Y60227D01*
X55024Y60332D01*
X54966Y60434D01*
X54901Y60536D01*
X54828Y60638D01*
X54740Y60736D01*
X54733Y60743D01*
X54719Y60758D01*
X54689Y60783D01*
X54646Y60816D01*
X54595Y60853D01*
X54526Y60896D01*
X54449Y60944D01*
X54358Y60991D01*
X54253Y61038D01*
X54132Y61085D01*
X53998Y61126D01*
X53852Y61166D01*
X53692Y61198D01*
X53605Y61213D01*
X53517Y61224D01*
X53423Y61235D01*
X53325Y61238D01*
X53226Y61246D01*
D02*
G37*
G36*
X52312Y28842D02*
X52309D01*
X52298D01*
X52280D01*
X52258Y28839D01*
X52229D01*
X52196Y28835D01*
X52156Y28831D01*
X52116Y28824D01*
X52021Y28810D01*
X51919Y28784D01*
X51810Y28751D01*
X51697Y28708D01*
X51694D01*
X51687Y28700D01*
X51668Y28693D01*
X51650Y28682D01*
X51625Y28668D01*
X51599Y28653D01*
X51534Y28609D01*
X51461Y28558D01*
X51388Y28493D01*
X51315Y28416D01*
X51253Y28333D01*
Y28329D01*
X51246Y28322D01*
X51239Y28307D01*
X51231Y28289D01*
X51221Y28267D01*
X51206Y28242D01*
X51191Y28213D01*
X51180Y28176D01*
X51151Y28100D01*
X51126Y28012D01*
X51111Y27918D01*
X51104Y27820D01*
Y27801D01*
X51108Y27779D01*
Y27754D01*
X51115Y27721D01*
X51122Y27681D01*
X51130Y27638D01*
X51144Y27587D01*
X51159Y27536D01*
X51180Y27481D01*
X51206Y27426D01*
X51235Y27368D01*
X51271Y27314D01*
X51315Y27255D01*
X51363Y27201D01*
X51417Y27146D01*
X51421Y27143D01*
X51432Y27135D01*
X51450Y27121D01*
X51475Y27103D01*
X51508Y27081D01*
X51544Y27055D01*
X51592Y27030D01*
X51643Y27004D01*
X51701Y26979D01*
X51767Y26953D01*
X51836Y26928D01*
X51912Y26906D01*
X51996Y26888D01*
X52083Y26873D01*
X52178Y26866D01*
X52276Y26862D01*
X52283D01*
X52298D01*
X52327D01*
X52364Y26866D01*
X52407Y26869D01*
X52458Y26877D01*
X52513Y26884D01*
X52575Y26899D01*
X52640Y26913D01*
X52706Y26931D01*
X52775Y26953D01*
X52844Y26979D01*
X52909Y27011D01*
X52975Y27051D01*
X53040Y27092D01*
X53099Y27143D01*
X53102Y27146D01*
X53113Y27153D01*
X53128Y27172D01*
X53146Y27193D01*
X53168Y27219D01*
X53193Y27252D01*
X53223Y27292D01*
X53252Y27332D01*
X53277Y27383D01*
X53306Y27434D01*
X53332Y27492D01*
X53354Y27554D01*
X53372Y27619D01*
X53386Y27689D01*
X53397Y27765D01*
X53401Y27841D01*
Y27860D01*
X53397Y27881D01*
Y27911D01*
X53390Y27947D01*
X53386Y27991D01*
X53375Y28034D01*
X53364Y28085D01*
X53346Y28140D01*
X53328Y28198D01*
X53303Y28256D01*
X53273Y28318D01*
X53241Y28376D01*
X53197Y28438D01*
X53153Y28497D01*
X53099Y28551D01*
X53095Y28555D01*
X53084Y28562D01*
X53066Y28577D01*
X53044Y28595D01*
X53015Y28620D01*
X52979Y28642D01*
X52935Y28671D01*
X52888Y28697D01*
X52833Y28722D01*
X52775Y28751D01*
X52709Y28773D01*
X52640Y28795D01*
X52564Y28817D01*
X52484Y28831D01*
X52400Y28839D01*
X52312Y28842D01*
D02*
G37*
G36*
X52451Y25210D02*
Y23630D01*
X54722D01*
X52451Y25210D01*
D02*
G37*
G36*
X4509Y66632D02*
X4502D01*
X4484D01*
X4454Y66628D01*
X4414D01*
X4363Y66625D01*
X4305Y66618D01*
X4240Y66607D01*
X4163Y66596D01*
X4083Y66581D01*
X3999Y66563D01*
X3912Y66541D01*
X3818Y66512D01*
X3723Y66479D01*
X3628Y66443D01*
X3530Y66399D01*
X3432Y66348D01*
X3424Y66344D01*
X3410Y66334D01*
X3381Y66319D01*
X3348Y66294D01*
X3304Y66264D01*
X3253Y66232D01*
X3199Y66188D01*
X3140Y66141D01*
X3075Y66086D01*
X3009Y66028D01*
X2944Y65959D01*
X2878Y65890D01*
X2813Y65813D01*
X2747Y65729D01*
X2689Y65642D01*
X2631Y65547D01*
X2627Y65540D01*
X2620Y65526D01*
X2605Y65496D01*
X2587Y65456D01*
X2565Y65409D01*
X2540Y65355D01*
X2514Y65289D01*
X2489Y65220D01*
X2463Y65140D01*
X2438Y65056D01*
X2413Y64969D01*
X2391Y64874D01*
X2372Y64776D01*
X2358Y64677D01*
X2351Y64575D01*
X2347Y64470D01*
Y64445D01*
X2351Y64415D01*
Y64375D01*
X2354Y64324D01*
X2362Y64266D01*
X2372Y64201D01*
X2383Y64124D01*
X2398Y64048D01*
X2416Y63960D01*
X2438Y63873D01*
X2467Y63782D01*
X2500Y63687D01*
X2536Y63589D01*
X2580Y63494D01*
X2631Y63396D01*
X2634Y63389D01*
X2645Y63374D01*
X2660Y63345D01*
X2685Y63312D01*
X2715Y63269D01*
X2747Y63218D01*
X2791Y63163D01*
X2838Y63101D01*
X2893Y63039D01*
X2951Y62974D01*
X3020Y62908D01*
X3090Y62839D01*
X3166Y62774D01*
X3250Y62712D01*
X3337Y62650D01*
X3432Y62595D01*
X3439Y62592D01*
X3453Y62584D01*
X3483Y62570D01*
X3523Y62552D01*
X3570Y62530D01*
X3625Y62504D01*
X3690Y62479D01*
X3759Y62450D01*
X3839Y62424D01*
X3923Y62399D01*
X4010Y62373D01*
X4105Y62352D01*
X4203Y62333D01*
X4302Y62319D01*
X4403Y62311D01*
X4509Y62308D01*
X4516D01*
X4535D01*
X4564D01*
X4604Y62311D01*
X4655Y62315D01*
X4713Y62322D01*
X4782Y62333D01*
X4855Y62344D01*
X4935Y62359D01*
X5019Y62377D01*
X5110Y62402D01*
X5201Y62432D01*
X5299Y62464D01*
X5394Y62504D01*
X5492Y62548D01*
X5590Y62599D01*
X5597Y62603D01*
X5612Y62613D01*
X5641Y62628D01*
X5677Y62654D01*
X5721Y62683D01*
X5772Y62719D01*
X5827Y62759D01*
X5889Y62810D01*
X5951Y62865D01*
X6016Y62927D01*
X6085Y62992D01*
X6151Y63065D01*
X6216Y63141D01*
X6278Y63225D01*
X6340Y63316D01*
X6395Y63411D01*
X6398Y63418D01*
X6406Y63433D01*
X6420Y63462D01*
X6438Y63498D01*
X6460Y63545D01*
X6482Y63604D01*
X6508Y63665D01*
X6537Y63738D01*
X6562Y63815D01*
X6588Y63895D01*
X6609Y63982D01*
X6631Y64077D01*
X6649Y64171D01*
X6664Y64270D01*
X6671Y64368D01*
X6675Y64470D01*
Y64525D01*
X6671Y64565D01*
X6668Y64612D01*
X6660Y64670D01*
X6653Y64736D01*
X6639Y64808D01*
X6624Y64885D01*
X6606Y64969D01*
X6584Y65056D01*
X6558Y65147D01*
X6526Y65242D01*
X6486Y65340D01*
X6446Y65434D01*
X6395Y65533D01*
X6391Y65540D01*
X6380Y65555D01*
X6365Y65584D01*
X6344Y65617D01*
X6314Y65660D01*
X6278Y65711D01*
X6238Y65766D01*
X6191Y65828D01*
X6136Y65890D01*
X6074Y65959D01*
X6009Y66024D01*
X5936Y66093D01*
X5860Y66159D01*
X5776Y66221D01*
X5685Y66283D01*
X5590Y66341D01*
X5583Y66344D01*
X5568Y66352D01*
X5539Y66366D01*
X5499Y66385D01*
X5452Y66410D01*
X5397Y66432D01*
X5332Y66461D01*
X5259Y66487D01*
X5183Y66512D01*
X5099Y66541D01*
X5008Y66563D01*
X4913Y66585D01*
X4818Y66607D01*
X4717Y66621D01*
X4615Y66628D01*
X4509Y66632D01*
D02*
G37*
%LPD*%
G36*
X4578Y65820D02*
X4618D01*
X4662Y65813D01*
X4717Y65810D01*
X4771Y65802D01*
X4833Y65795D01*
X4895Y65780D01*
X5026Y65751D01*
X5161Y65707D01*
X5226Y65682D01*
X5292Y65653D01*
X5295Y65649D01*
X5306Y65646D01*
X5325Y65635D01*
X5346Y65620D01*
X5375Y65602D01*
X5408Y65584D01*
X5441Y65558D01*
X5481Y65529D01*
X5521Y65496D01*
X5561Y65460D01*
X5645Y65376D01*
X5728Y65278D01*
X5765Y65223D01*
X5798Y65165D01*
X5801Y65162D01*
X5805Y65151D01*
X5812Y65132D01*
X5823Y65107D01*
X5838Y65078D01*
X5852Y65041D01*
X5867Y65001D01*
X5885Y64954D01*
X5900Y64903D01*
X5914Y64845D01*
X5929Y64787D01*
X5943Y64721D01*
X5961Y64586D01*
X5969Y64514D01*
Y64394D01*
X5965Y64361D01*
X5961Y64321D01*
X5958Y64277D01*
X5951Y64226D01*
X5940Y64171D01*
X5914Y64051D01*
X5896Y63986D01*
X5874Y63924D01*
X5849Y63858D01*
X5819Y63797D01*
X5787Y63735D01*
X5747Y63676D01*
X5743Y63673D01*
X5736Y63662D01*
X5725Y63647D01*
X5707Y63629D01*
X5685Y63604D01*
X5659Y63574D01*
X5627Y63545D01*
X5590Y63513D01*
X5550Y63476D01*
X5506Y63443D01*
X5455Y63407D01*
X5404Y63374D01*
X5346Y63341D01*
X5288Y63312D01*
X5223Y63283D01*
X5153Y63261D01*
X5055Y63669D01*
X5059D01*
X5066Y63673D01*
X5081Y63680D01*
X5099Y63687D01*
X5117Y63698D01*
X5142Y63713D01*
X5201Y63746D01*
X5263Y63789D01*
X5328Y63844D01*
X5390Y63906D01*
X5445Y63978D01*
Y63982D01*
X5452Y63986D01*
X5459Y64000D01*
X5466Y64015D01*
X5477Y64033D01*
X5488Y64055D01*
X5514Y64113D01*
X5539Y64182D01*
X5561Y64262D01*
X5576Y64354D01*
X5583Y64452D01*
Y64488D01*
X5579Y64517D01*
X5576Y64550D01*
X5568Y64590D01*
X5557Y64634D01*
X5547Y64681D01*
X5532Y64732D01*
X5514Y64783D01*
X5492Y64838D01*
X5463Y64892D01*
X5430Y64947D01*
X5394Y65001D01*
X5350Y65052D01*
X5299Y65103D01*
X5295Y65107D01*
X5284Y65114D01*
X5270Y65125D01*
X5248Y65143D01*
X5219Y65162D01*
X5183Y65183D01*
X5139Y65205D01*
X5091Y65231D01*
X5037Y65253D01*
X4979Y65278D01*
X4910Y65300D01*
X4837Y65318D01*
X4760Y65336D01*
X4676Y65347D01*
X4586Y65355D01*
X4491Y65358D01*
X4484D01*
X4469D01*
X4440D01*
X4403Y65355D01*
X4360Y65351D01*
X4309Y65343D01*
X4254Y65336D01*
X4192Y65329D01*
X4065Y65300D01*
X3999Y65282D01*
X3930Y65256D01*
X3868Y65231D01*
X3807Y65198D01*
X3748Y65162D01*
X3694Y65118D01*
X3690Y65114D01*
X3683Y65107D01*
X3668Y65092D01*
X3650Y65074D01*
X3632Y65049D01*
X3610Y65020D01*
X3585Y64987D01*
X3559Y64947D01*
X3534Y64907D01*
X3508Y64859D01*
X3486Y64805D01*
X3468Y64750D01*
X3450Y64692D01*
X3435Y64630D01*
X3428Y64561D01*
X3424Y64492D01*
Y64463D01*
X3428Y64441D01*
X3432Y64412D01*
X3435Y64383D01*
X3439Y64346D01*
X3446Y64306D01*
X3468Y64222D01*
X3501Y64131D01*
X3519Y64084D01*
X3545Y64040D01*
X3570Y63993D01*
X3603Y63949D01*
X3606Y63946D01*
X3610Y63938D01*
X3621Y63928D01*
X3635Y63909D01*
X3654Y63891D01*
X3675Y63869D01*
X3701Y63848D01*
X3730Y63822D01*
X3799Y63767D01*
X3883Y63717D01*
X3981Y63673D01*
X4036Y63651D01*
X4090Y63636D01*
X3967Y63214D01*
X3963D01*
X3949Y63218D01*
X3927Y63225D01*
X3894Y63236D01*
X3858Y63250D01*
X3818Y63265D01*
X3770Y63283D01*
X3719Y63309D01*
X3665Y63338D01*
X3610Y63367D01*
X3552Y63403D01*
X3494Y63443D01*
X3435Y63491D01*
X3381Y63538D01*
X3330Y63593D01*
X3279Y63655D01*
X3275Y63658D01*
X3268Y63669D01*
X3257Y63687D01*
X3239Y63713D01*
X3221Y63746D01*
X3199Y63786D01*
X3177Y63829D01*
X3151Y63880D01*
X3130Y63938D01*
X3104Y64000D01*
X3082Y64066D01*
X3064Y64139D01*
X3046Y64215D01*
X3035Y64295D01*
X3028Y64379D01*
X3024Y64466D01*
Y64492D01*
X3028Y64525D01*
X3031Y64568D01*
X3035Y64619D01*
X3046Y64677D01*
X3057Y64743D01*
X3071Y64816D01*
X3093Y64892D01*
X3119Y64972D01*
X3151Y65052D01*
X3188Y65136D01*
X3232Y65216D01*
X3286Y65300D01*
X3344Y65376D01*
X3413Y65449D01*
X3417Y65453D01*
X3432Y65464D01*
X3453Y65482D01*
X3486Y65507D01*
X3526Y65536D01*
X3574Y65569D01*
X3632Y65602D01*
X3697Y65635D01*
X3770Y65671D01*
X3850Y65704D01*
X3941Y65737D01*
X4039Y65766D01*
X4145Y65788D01*
X4254Y65810D01*
X4374Y65820D01*
X4502Y65824D01*
X4505D01*
X4524D01*
X4546D01*
X4578Y65820D01*
D02*
G37*
%LPC*%
G36*
X4575Y55093D02*
X4462D01*
X4458D01*
X4447D01*
X4433D01*
X4407D01*
X4378D01*
X4345Y55090D01*
X4305D01*
X4262D01*
X4214Y55086D01*
X4163D01*
X4047Y55079D01*
X3923Y55068D01*
X3792Y55057D01*
X3654Y55042D01*
X3515Y55024D01*
X3377Y54999D01*
X3242Y54973D01*
X3115Y54940D01*
X3002Y54900D01*
X2947Y54878D01*
X2900Y54857D01*
X2853Y54831D01*
X2813Y54806D01*
X2809Y54802D01*
X2795Y54791D01*
X2777Y54777D01*
X2751Y54755D01*
X2718Y54726D01*
X2685Y54689D01*
X2645Y54653D01*
X2609Y54606D01*
X2573Y54558D01*
X2533Y54504D01*
X2500Y54445D01*
X2471Y54380D01*
X2442Y54314D01*
X2423Y54242D01*
X2409Y54165D01*
X2405Y54089D01*
Y54071D01*
X2409Y54049D01*
X2413Y54019D01*
X2416Y53983D01*
X2427Y53939D01*
X2438Y53892D01*
X2456Y53841D01*
X2478Y53786D01*
X2503Y53728D01*
X2536Y53670D01*
X2576Y53608D01*
X2624Y53550D01*
X2678Y53488D01*
X2740Y53430D01*
X2813Y53375D01*
X2816Y53372D01*
X2835Y53364D01*
X2860Y53350D01*
X2897Y53328D01*
X2947Y53306D01*
X3009Y53284D01*
X3082Y53255D01*
X3173Y53230D01*
X3224Y53215D01*
X3279Y53204D01*
X3333Y53190D01*
X3395Y53175D01*
X3461Y53164D01*
X3530Y53153D01*
X3603Y53139D01*
X3683Y53128D01*
X3763Y53120D01*
X3850Y53110D01*
X3941Y53102D01*
X4036Y53095D01*
X4134Y53091D01*
X4240Y53088D01*
X4349Y53084D01*
X4462D01*
X4465D01*
X4476D01*
X4495D01*
X4516D01*
X4546D01*
X4578D01*
X4618Y53088D01*
X4662D01*
X4709Y53091D01*
X4764D01*
X4877Y53099D01*
X5001Y53110D01*
X5135Y53120D01*
X5270Y53135D01*
X5408Y53153D01*
X5547Y53179D01*
X5681Y53208D01*
X5809Y53241D01*
X5921Y53281D01*
X5976Y53302D01*
X6023Y53324D01*
X6071Y53350D01*
X6111Y53375D01*
X6114Y53379D01*
X6129Y53390D01*
X6147Y53404D01*
X6176Y53426D01*
X6205Y53455D01*
X6242Y53488D01*
X6278Y53528D01*
X6318Y53572D01*
X6355Y53623D01*
X6391Y53677D01*
X6427Y53736D01*
X6457Y53801D01*
X6486Y53870D01*
X6504Y53939D01*
X6518Y54016D01*
X6522Y54096D01*
Y54114D01*
X6518Y54136D01*
X6515Y54165D01*
X6511Y54202D01*
X6504Y54245D01*
X6493Y54289D01*
X6478Y54340D01*
X6457Y54394D01*
X6435Y54449D01*
X6406Y54507D01*
X6369Y54562D01*
X6329Y54620D01*
X6282Y54675D01*
X6224Y54726D01*
X6162Y54777D01*
X6158Y54780D01*
X6140Y54791D01*
X6111Y54806D01*
X6071Y54828D01*
X6016Y54849D01*
X5951Y54875D01*
X5870Y54904D01*
X5776Y54933D01*
X5725Y54951D01*
X5667Y54966D01*
X5608Y54980D01*
X5543Y54991D01*
X5477Y55006D01*
X5404Y55020D01*
X5328Y55031D01*
X5248Y55042D01*
X5164Y55053D01*
X5077Y55064D01*
X4986Y55072D01*
X4891Y55079D01*
X4789Y55086D01*
X4684Y55090D01*
X4575Y55093D01*
D02*
G37*
G36*
X6424Y41119D02*
X2573D01*
Y39962D01*
X2576Y39922D01*
Y39875D01*
X2580Y39820D01*
X2583Y39762D01*
X2595Y39638D01*
X2613Y39507D01*
X2634Y39379D01*
X2649Y39321D01*
X2664Y39267D01*
Y39263D01*
X2667Y39256D01*
X2675Y39237D01*
X2682Y39219D01*
X2689Y39194D01*
X2704Y39168D01*
X2733Y39103D01*
X2769Y39030D01*
X2813Y38954D01*
X2867Y38881D01*
X2926Y38812D01*
X2929Y38808D01*
X2937Y38801D01*
X2951Y38790D01*
X2969Y38772D01*
X2991Y38753D01*
X3020Y38732D01*
X3057Y38706D01*
X3093Y38677D01*
X3137Y38648D01*
X3184Y38619D01*
X3239Y38586D01*
X3293Y38557D01*
X3355Y38528D01*
X3421Y38498D01*
X3490Y38469D01*
X3563Y38444D01*
X3566D01*
X3581Y38437D01*
X3603Y38433D01*
X3635Y38422D01*
X3672Y38411D01*
X3719Y38400D01*
X3774Y38389D01*
X3836Y38375D01*
X3901Y38364D01*
X3978Y38353D01*
X4058Y38342D01*
X4141Y38331D01*
X4233Y38320D01*
X4327Y38317D01*
X4429Y38309D01*
X4535D01*
X4538D01*
X4542D01*
X4553D01*
X4571D01*
X4589D01*
X4611D01*
X4666Y38313D01*
X4731Y38317D01*
X4808Y38324D01*
X4891Y38331D01*
X4982Y38342D01*
X5077Y38357D01*
X5179Y38375D01*
X5277Y38393D01*
X5379Y38418D01*
X5477Y38451D01*
X5572Y38484D01*
X5663Y38524D01*
X5747Y38571D01*
X5750Y38575D01*
X5765Y38582D01*
X5787Y38597D01*
X5816Y38619D01*
X5849Y38644D01*
X5889Y38673D01*
X5932Y38706D01*
X5980Y38746D01*
X6027Y38790D01*
X6074Y38837D01*
X6122Y38892D01*
X6169Y38946D01*
X6213Y39004D01*
X6253Y39066D01*
X6289Y39132D01*
X6318Y39201D01*
Y39205D01*
X6322Y39212D01*
X6329Y39230D01*
X6336Y39252D01*
X6344Y39281D01*
X6351Y39318D01*
X6362Y39361D01*
X6373Y39408D01*
X6380Y39467D01*
X6391Y39529D01*
X6398Y39601D01*
X6409Y39678D01*
X6413Y39765D01*
X6420Y39856D01*
X6424Y39955D01*
Y41119D01*
D02*
G37*
G36*
X3803Y20357D02*
X3799D01*
X3796D01*
X3785D01*
X3774D01*
X3737Y20353D01*
X3690D01*
X3632Y20346D01*
X3563Y20342D01*
X3490Y20331D01*
X3410Y20320D01*
X3326Y20302D01*
X3239Y20284D01*
X3151Y20258D01*
X3068Y20229D01*
X2980Y20193D01*
X2900Y20153D01*
X2824Y20109D01*
X2755Y20055D01*
X2751Y20051D01*
X2740Y20040D01*
X2722Y20022D01*
X2700Y20000D01*
X2675Y19971D01*
X2645Y19934D01*
X2613Y19891D01*
X2583Y19843D01*
X2551Y19793D01*
X2518Y19734D01*
X2489Y19669D01*
X2463Y19603D01*
X2442Y19531D01*
X2423Y19450D01*
X2413Y19370D01*
X2409Y19287D01*
Y19265D01*
X2413Y19243D01*
X2416Y19210D01*
X2420Y19170D01*
X2427Y19123D01*
X2438Y19072D01*
X2452Y19017D01*
X2471Y18959D01*
X2492Y18897D01*
X2522Y18832D01*
X2558Y18766D01*
X2598Y18704D01*
X2642Y18639D01*
X2696Y18577D01*
X2758Y18519D01*
X2762Y18515D01*
X2777Y18504D01*
X2795Y18489D01*
X2824Y18471D01*
X2860Y18446D01*
X2908Y18420D01*
X2962Y18395D01*
X3024Y18366D01*
X3093Y18337D01*
X3173Y18311D01*
X3261Y18282D01*
X3355Y18260D01*
X3461Y18242D01*
X3574Y18227D01*
X3694Y18216D01*
X3825Y18213D01*
X3828D01*
X3832D01*
X3854D01*
X3890Y18216D01*
X3934D01*
X3992Y18224D01*
X4058Y18227D01*
X4127Y18238D01*
X4207Y18253D01*
X4287Y18267D01*
X4371Y18289D01*
X4454Y18315D01*
X4542Y18344D01*
X4622Y18380D01*
X4702Y18420D01*
X4778Y18468D01*
X4848Y18522D01*
X4851Y18526D01*
X4862Y18537D01*
X4880Y18555D01*
X4902Y18577D01*
X4928Y18606D01*
X4957Y18642D01*
X4990Y18686D01*
X5022Y18733D01*
X5055Y18784D01*
X5088Y18843D01*
X5117Y18904D01*
X5142Y18974D01*
X5164Y19046D01*
X5183Y19123D01*
X5193Y19203D01*
X5197Y19287D01*
Y19308D01*
X5193Y19330D01*
Y19363D01*
X5186Y19403D01*
X5179Y19450D01*
X5168Y19501D01*
X5153Y19556D01*
X5135Y19614D01*
X5113Y19676D01*
X5084Y19742D01*
X5051Y19807D01*
X5011Y19869D01*
X4964Y19934D01*
X4910Y19996D01*
X4848Y20055D01*
X4844Y20058D01*
X4833Y20069D01*
X4811Y20084D01*
X4782Y20102D01*
X4746Y20124D01*
X4702Y20149D01*
X4647Y20178D01*
X4589Y20204D01*
X4516Y20233D01*
X4440Y20262D01*
X4356Y20288D01*
X4262Y20310D01*
X4160Y20328D01*
X4047Y20342D01*
X3930Y20353D01*
X3803Y20357D01*
D02*
G37*
G36*
X4156Y10518D02*
Y8476D01*
X4160D01*
X4178Y8479D01*
X4200D01*
X4233Y8487D01*
X4269Y8490D01*
X4312Y8501D01*
X4363Y8509D01*
X4414Y8523D01*
X4527Y8552D01*
X4640Y8592D01*
X4749Y8647D01*
X4800Y8680D01*
X4844Y8712D01*
X4848Y8716D01*
X4859Y8727D01*
X4877Y8742D01*
X4899Y8767D01*
X4928Y8796D01*
X4957Y8829D01*
X4990Y8873D01*
X5022Y8920D01*
X5055Y8971D01*
X5088Y9029D01*
X5117Y9091D01*
X5146Y9160D01*
X5168Y9233D01*
X5186Y9313D01*
X5197Y9393D01*
X5201Y9481D01*
Y9521D01*
X5197Y9550D01*
X5193Y9590D01*
X5186Y9630D01*
X5175Y9677D01*
X5164Y9728D01*
X5150Y9786D01*
X5131Y9841D01*
X5106Y9903D01*
X5081Y9961D01*
X5048Y10023D01*
X5008Y10085D01*
X4964Y10143D01*
X4913Y10198D01*
X4910Y10201D01*
X4899Y10209D01*
X4884Y10223D01*
X4862Y10245D01*
X4833Y10267D01*
X4797Y10292D01*
X4757Y10318D01*
X4713Y10347D01*
X4662Y10376D01*
X4604Y10405D01*
X4542Y10430D01*
X4473Y10456D01*
X4403Y10478D01*
X4323Y10496D01*
X4243Y10511D01*
X4156Y10518D01*
D02*
G37*
G36*
X49117Y116810D02*
X49004D01*
X49000D01*
X48989D01*
X48971D01*
X48949D01*
X48920D01*
X48887D01*
X48847Y116806D01*
X48803D01*
X48756Y116803D01*
X48702D01*
X48589Y116795D01*
X48465Y116784D01*
X48330Y116773D01*
X48195Y116759D01*
X48057Y116741D01*
X47919Y116715D01*
X47784Y116686D01*
X47657Y116653D01*
X47544Y116613D01*
X47489Y116592D01*
X47442Y116570D01*
X47395Y116544D01*
X47355Y116519D01*
X47351Y116515D01*
X47337Y116504D01*
X47318Y116490D01*
X47289Y116468D01*
X47260Y116439D01*
X47224Y116406D01*
X47187Y116366D01*
X47147Y116322D01*
X47111Y116271D01*
X47074Y116217D01*
X47038Y116158D01*
X47009Y116093D01*
X46980Y116024D01*
X46962Y115954D01*
X46947Y115878D01*
X46943Y115798D01*
Y115780D01*
X46947Y115758D01*
X46951Y115729D01*
X46954Y115692D01*
X46962Y115649D01*
X46973Y115605D01*
X46987Y115554D01*
X47009Y115499D01*
X47031Y115445D01*
X47060Y115387D01*
X47096Y115332D01*
X47136Y115274D01*
X47184Y115219D01*
X47242Y115168D01*
X47304Y115117D01*
X47307Y115114D01*
X47326Y115103D01*
X47355Y115088D01*
X47395Y115066D01*
X47449Y115044D01*
X47515Y115019D01*
X47595Y114990D01*
X47690Y114961D01*
X47741Y114943D01*
X47799Y114928D01*
X47857Y114913D01*
X47923Y114902D01*
X47988Y114888D01*
X48061Y114873D01*
X48137Y114863D01*
X48217Y114852D01*
X48301Y114841D01*
X48388Y114830D01*
X48480Y114822D01*
X48574Y114815D01*
X48676Y114808D01*
X48782Y114804D01*
X48891Y114801D01*
X49004D01*
X49007D01*
X49018D01*
X49033D01*
X49058D01*
X49087D01*
X49120Y114804D01*
X49160D01*
X49204D01*
X49251Y114808D01*
X49302D01*
X49419Y114815D01*
X49542Y114826D01*
X49673Y114837D01*
X49812Y114852D01*
X49950Y114870D01*
X50088Y114895D01*
X50223Y114921D01*
X50350Y114953D01*
X50463Y114994D01*
X50518Y115015D01*
X50565Y115037D01*
X50612Y115063D01*
X50653Y115088D01*
X50656Y115092D01*
X50671Y115103D01*
X50689Y115117D01*
X50714Y115139D01*
X50747Y115168D01*
X50780Y115205D01*
X50820Y115241D01*
X50856Y115288D01*
X50893Y115336D01*
X50933Y115390D01*
X50966Y115448D01*
X50995Y115514D01*
X51024Y115580D01*
X51042Y115652D01*
X51057Y115729D01*
X51060Y115805D01*
Y115823D01*
X51057Y115845D01*
X51053Y115874D01*
X51049Y115911D01*
X51038Y115954D01*
X51028Y116002D01*
X51009Y116053D01*
X50987Y116107D01*
X50962Y116166D01*
X50929Y116224D01*
X50889Y116286D01*
X50842Y116344D01*
X50787Y116406D01*
X50725Y116464D01*
X50653Y116519D01*
X50649Y116522D01*
X50631Y116530D01*
X50605Y116544D01*
X50569Y116566D01*
X50518Y116588D01*
X50456Y116610D01*
X50383Y116639D01*
X50292Y116664D01*
X50241Y116679D01*
X50187Y116690D01*
X50132Y116704D01*
X50070Y116719D01*
X50005Y116730D01*
X49935Y116741D01*
X49863Y116755D01*
X49783Y116766D01*
X49703Y116773D01*
X49615Y116784D01*
X49524Y116792D01*
X49430Y116799D01*
X49331Y116803D01*
X49226Y116806D01*
X49117Y116810D01*
D02*
G37*
G36*
X60109Y117199D02*
X59996D01*
X59993D01*
X59982D01*
X59967D01*
X59942D01*
X59913D01*
X59880Y117196D01*
X59840D01*
X59796D01*
X59749Y117192D01*
X59698D01*
X59581Y117185D01*
X59458Y117174D01*
X59327Y117163D01*
X59188Y117148D01*
X59050Y117130D01*
X58912Y117105D01*
X58777Y117079D01*
X58649Y117046D01*
X58537Y117007D01*
X58482Y116985D01*
X58435Y116963D01*
X58388Y116937D01*
X58347Y116912D01*
X58344Y116908D01*
X58329Y116897D01*
X58311Y116883D01*
X58286Y116861D01*
X58253Y116832D01*
X58220Y116795D01*
X58180Y116759D01*
X58144Y116712D01*
X58107Y116664D01*
X58067Y116610D01*
X58034Y116551D01*
X58005Y116486D01*
X57976Y116420D01*
X57958Y116348D01*
X57943Y116271D01*
X57940Y116195D01*
Y116176D01*
X57943Y116155D01*
X57947Y116126D01*
X57951Y116089D01*
X57962Y116045D01*
X57973Y115998D01*
X57991Y115947D01*
X58012Y115893D01*
X58038Y115834D01*
X58071Y115776D01*
X58111Y115714D01*
X58158Y115656D01*
X58213Y115594D01*
X58275Y115536D01*
X58347Y115481D01*
X58351Y115478D01*
X58369Y115470D01*
X58395Y115456D01*
X58431Y115434D01*
X58482Y115412D01*
X58544Y115390D01*
X58617Y115361D01*
X58708Y115336D01*
X58759Y115321D01*
X58813Y115310D01*
X58868Y115296D01*
X58930Y115281D01*
X58995Y115270D01*
X59065Y115259D01*
X59137Y115245D01*
X59217Y115234D01*
X59298Y115226D01*
X59385Y115216D01*
X59476Y115208D01*
X59570Y115201D01*
X59669Y115197D01*
X59774Y115194D01*
X59883Y115190D01*
X59996D01*
X60000D01*
X60011D01*
X60029D01*
X60051D01*
X60080D01*
X60113D01*
X60153Y115194D01*
X60197D01*
X60244Y115197D01*
X60299D01*
X60411Y115205D01*
X60535Y115216D01*
X60670Y115226D01*
X60804Y115241D01*
X60943Y115259D01*
X61081Y115285D01*
X61216Y115314D01*
X61343Y115347D01*
X61456Y115387D01*
X61511Y115409D01*
X61558Y115430D01*
X61605Y115456D01*
X61645Y115481D01*
X61649Y115485D01*
X61664Y115496D01*
X61682Y115510D01*
X61711Y115532D01*
X61740Y115561D01*
X61776Y115594D01*
X61813Y115634D01*
X61853Y115678D01*
X61889Y115729D01*
X61926Y115783D01*
X61962Y115842D01*
X61991Y115907D01*
X62020Y115976D01*
X62038Y116045D01*
X62053Y116122D01*
X62057Y116202D01*
Y116220D01*
X62053Y116242D01*
X62049Y116271D01*
X62046Y116308D01*
X62038Y116351D01*
X62028Y116395D01*
X62013Y116446D01*
X61991Y116500D01*
X61969Y116555D01*
X61940Y116613D01*
X61904Y116668D01*
X61864Y116726D01*
X61816Y116781D01*
X61758Y116832D01*
X61696Y116883D01*
X61693Y116886D01*
X61674Y116897D01*
X61645Y116912D01*
X61605Y116934D01*
X61551Y116955D01*
X61485Y116981D01*
X61405Y117010D01*
X61310Y117039D01*
X61259Y117057D01*
X61201Y117072D01*
X61143Y117087D01*
X61077Y117097D01*
X61012Y117112D01*
X60939Y117127D01*
X60863Y117138D01*
X60783Y117148D01*
X60699Y117159D01*
X60611Y117170D01*
X60520Y117177D01*
X60426Y117185D01*
X60324Y117192D01*
X60218Y117196D01*
X60109Y117199D01*
D02*
G37*
G36*
X38109D02*
X37996D01*
X37993D01*
X37982D01*
X37967D01*
X37942D01*
X37913D01*
X37880Y117196D01*
X37840D01*
X37796D01*
X37749Y117192D01*
X37698D01*
X37581Y117185D01*
X37458Y117174D01*
X37327Y117163D01*
X37188Y117148D01*
X37050Y117130D01*
X36912Y117105D01*
X36777Y117079D01*
X36650Y117046D01*
X36537Y117007D01*
X36482Y116985D01*
X36435Y116963D01*
X36388Y116937D01*
X36347Y116912D01*
X36344Y116908D01*
X36329Y116897D01*
X36311Y116883D01*
X36286Y116861D01*
X36253Y116832D01*
X36220Y116795D01*
X36180Y116759D01*
X36144Y116712D01*
X36107Y116664D01*
X36067Y116610D01*
X36034Y116551D01*
X36005Y116486D01*
X35976Y116420D01*
X35958Y116348D01*
X35943Y116271D01*
X35940Y116195D01*
Y116176D01*
X35943Y116155D01*
X35947Y116126D01*
X35951Y116089D01*
X35962Y116045D01*
X35972Y115998D01*
X35991Y115947D01*
X36013Y115893D01*
X36038Y115834D01*
X36071Y115776D01*
X36111Y115714D01*
X36158Y115656D01*
X36213Y115594D01*
X36275Y115536D01*
X36347Y115481D01*
X36351Y115478D01*
X36369Y115470D01*
X36395Y115456D01*
X36431Y115434D01*
X36482Y115412D01*
X36544Y115390D01*
X36617Y115361D01*
X36708Y115336D01*
X36759Y115321D01*
X36813Y115310D01*
X36868Y115296D01*
X36930Y115281D01*
X36995Y115270D01*
X37064Y115259D01*
X37137Y115245D01*
X37217Y115234D01*
X37297Y115226D01*
X37385Y115216D01*
X37476Y115208D01*
X37571Y115201D01*
X37669Y115197D01*
X37774Y115194D01*
X37883Y115190D01*
X37996D01*
X38000D01*
X38011D01*
X38029D01*
X38051D01*
X38080D01*
X38113D01*
X38153Y115194D01*
X38197D01*
X38244Y115197D01*
X38298D01*
X38411Y115205D01*
X38535Y115216D01*
X38670Y115226D01*
X38804Y115241D01*
X38943Y115259D01*
X39081Y115285D01*
X39216Y115314D01*
X39343Y115347D01*
X39456Y115387D01*
X39511Y115409D01*
X39558Y115430D01*
X39605Y115456D01*
X39645Y115481D01*
X39649Y115485D01*
X39663Y115496D01*
X39682Y115510D01*
X39711Y115532D01*
X39740Y115561D01*
X39776Y115594D01*
X39813Y115634D01*
X39853Y115678D01*
X39889Y115729D01*
X39926Y115783D01*
X39962Y115842D01*
X39991Y115907D01*
X40020Y115976D01*
X40038Y116045D01*
X40053Y116122D01*
X40057Y116202D01*
Y116220D01*
X40053Y116242D01*
X40049Y116271D01*
X40046Y116308D01*
X40038Y116351D01*
X40027Y116395D01*
X40013Y116446D01*
X39991Y116500D01*
X39969Y116555D01*
X39940Y116613D01*
X39904Y116668D01*
X39864Y116726D01*
X39816Y116781D01*
X39758Y116832D01*
X39696Y116883D01*
X39693Y116886D01*
X39674Y116897D01*
X39645Y116912D01*
X39605Y116934D01*
X39551Y116955D01*
X39485Y116981D01*
X39405Y117010D01*
X39310Y117039D01*
X39259Y117057D01*
X39201Y117072D01*
X39143Y117087D01*
X39077Y117097D01*
X39012Y117112D01*
X38939Y117127D01*
X38863Y117138D01*
X38783Y117148D01*
X38699Y117159D01*
X38612Y117170D01*
X38521Y117177D01*
X38426Y117185D01*
X38324Y117192D01*
X38218Y117196D01*
X38109Y117199D01*
D02*
G37*
%LPD*%
D10*
X50500Y143500D02*
X50690Y142543D01*
X51232Y141732D01*
X52043Y141190D01*
X53000Y141000D01*
X53957Y141190D01*
X54768Y141732D01*
X55310Y142543D01*
X55500Y143500D01*
X60000Y123500D02*
Y126000D01*
Y106000D02*
Y108000D01*
X56500D02*
X63500D01*
X56500Y123500D02*
X63500D01*
X56500Y108000D02*
Y123500D01*
X63500Y108000D02*
Y123500D01*
X31209Y143500D02*
X50500D01*
X55500D02*
X74791D01*
Y3500D02*
Y143500D01*
X31209Y3500D02*
X74791D01*
X31209D02*
Y143500D01*
X38000Y123500D02*
Y126000D01*
Y106000D02*
Y108000D01*
X34500D02*
X41500D01*
X34500Y123500D02*
X41500D01*
X34500Y108000D02*
Y123500D01*
X41500Y108000D02*
Y123500D01*
X49000D02*
Y126000D01*
Y106000D02*
Y108000D01*
X45500D02*
X52500D01*
X45500Y123500D02*
X52500D01*
X45500Y108000D02*
Y123500D01*
X52500Y108000D02*
Y123500D01*
D11*
X3688Y104522D02*
X4344Y105178D01*
X5656D01*
X6312Y104522D01*
Y103866D01*
X5656Y103210D01*
X5000D01*
X5656D01*
X6312Y102554D01*
Y101898D01*
X5656Y101242D01*
X4344D01*
X3688Y101898D01*
X6312Y95102D02*
X3688D01*
X6312Y97726D01*
Y98382D01*
X5656Y99038D01*
X4344D01*
X3688Y98382D01*
X4344Y88962D02*
X5656D01*
X5000D01*
Y92898D01*
X4344Y92242D01*
X6312Y86102D02*
X5656Y86758D01*
X4344D01*
X3688Y86102D01*
Y83478D01*
X4344Y82822D01*
X5656D01*
X6312Y83478D01*
Y84790D01*
X5000D01*
M02*
