M48
;Layer_Color=9474304
;FILE_FORMAT=2:5
INCH,TZ
;TYPE=PLATED
T1F00S00C0.01181
T2F00S00C0.03150
T3F00S00C0.03937
%
T01
X44000Y139000
T02
X23000Y8500
Y18500
Y28500
Y38500
Y48500
Y58500
Y68500
Y78500
Y88500
Y98500
Y108500
Y118500
Y128500
Y138500
X38000Y131000
X49000
X60000
X83000Y128500
Y138500
Y118500
Y108500
Y98500
Y88500
Y78500
Y68500
Y58500
Y48500
Y38500
Y28500
Y18500
Y8500
X60000Y101000
X49000
X38000
T03
X13000Y8500
Y18500
Y28500
Y38500
Y48500
Y58500
Y68500
Y78500
Y88500
Y98500
Y108500
Y118500
X5000Y122000
Y132000
Y142000
Y112000
X73000Y108500
Y98500
Y88500
Y78500
Y68500
Y58500
Y48500
Y38500
Y28500
Y18500
Y8500
Y118500
M30
