G04*
G04 #@! TF.GenerationSoftware,Altium Limited,Altium Designer,21.0.9 (235)*
G04*
G04 Layer_Physical_Order=1*
G04 Layer_Color=255*
%FSLAX25Y25*%
%MOIN*%
G70*
G04*
G04 #@! TF.SameCoordinates,E712B7E2-4447-4AEC-BC64-13D1A33EA5FB*
G04*
G04*
G04 #@! TF.FilePolarity,Positive*
G04*
G01*
G75*
%ADD17C,0.05906*%
%ADD18C,0.01968*%
%ADD19C,0.02362*%
%ADD20C,0.01575*%
%ADD21R,0.06693X0.06693*%
%ADD22C,0.06693*%
%ADD23C,0.07087*%
%ADD24R,0.09843X0.06299*%
%ADD25O,0.09843X0.06299*%
%ADD26C,0.01968*%
G36*
X87980Y141537D02*
X87480Y141384D01*
X86757Y141939D01*
X85799Y142336D01*
X84772Y142471D01*
X81228D01*
X80201Y142336D01*
X79243Y141939D01*
X78420Y141308D01*
X77789Y140486D01*
X77393Y139528D01*
X77257Y138500D01*
X77393Y137472D01*
X77789Y136514D01*
X78420Y135692D01*
X79243Y135061D01*
X80201Y134664D01*
X81228Y134529D01*
X84772D01*
X85799Y134664D01*
X86757Y135061D01*
X87480Y135616D01*
X87980Y135463D01*
Y131537D01*
X87480Y131384D01*
X86757Y131939D01*
X85799Y132336D01*
X84772Y132471D01*
X81228D01*
X80201Y132336D01*
X79243Y131939D01*
X78616Y131458D01*
X72296Y137777D01*
X71710Y138169D01*
X71019Y138306D01*
X54500D01*
X53809Y138169D01*
X53223Y137777D01*
X50521Y135076D01*
X49570Y135331D01*
X48430D01*
X47328Y135036D01*
X46341Y134465D01*
X45535Y133659D01*
X44964Y132672D01*
X44669Y131570D01*
Y130430D01*
X44924Y129479D01*
X42937Y127491D01*
X41323D01*
X41116Y127991D01*
X41465Y128341D01*
X42036Y129328D01*
X42331Y130430D01*
Y131570D01*
X42036Y132672D01*
X41465Y133659D01*
X40659Y134465D01*
X39672Y135036D01*
X38570Y135331D01*
X37786D01*
X33198Y139919D01*
X32546Y140354D01*
X31778Y140507D01*
X28709D01*
Y142437D01*
X17291D01*
Y140507D01*
X9331D01*
X9134Y140705D01*
Y145981D01*
X87980D01*
Y141537D01*
D02*
G37*
G36*
X75048Y123096D02*
X74857Y122634D01*
X68866D01*
Y122272D01*
X64465D01*
X63489Y122144D01*
X62579Y121767D01*
X61798Y121168D01*
X57559Y116928D01*
X56959Y116147D01*
X56582Y115237D01*
X56454Y114261D01*
Y104772D01*
X51127D01*
X50672Y105036D01*
X49570Y105331D01*
X48430D01*
X47328Y105036D01*
X46873Y104772D01*
X40127D01*
X39672Y105036D01*
X38570Y105331D01*
X37430D01*
X36328Y105036D01*
X35341Y104465D01*
X34535Y103659D01*
X33964Y102672D01*
X33669Y101570D01*
Y100430D01*
X33964Y99328D01*
X34535Y98341D01*
X35341Y97535D01*
X36328Y96964D01*
X37430Y96669D01*
X38570D01*
X39672Y96964D01*
X40127Y97228D01*
X46873D01*
X47328Y96964D01*
X48430Y96669D01*
X49570D01*
X50672Y96964D01*
X51127Y97228D01*
X57873D01*
X58328Y96964D01*
X59430Y96669D01*
X60570D01*
X61672Y96964D01*
X62659Y97535D01*
X63465Y98341D01*
X64036Y99328D01*
X64331Y100430D01*
Y101570D01*
X64036Y102672D01*
X63998Y102736D01*
Y112698D01*
X66028Y114728D01*
X68866D01*
Y114366D01*
X77134D01*
Y116790D01*
X77634Y116890D01*
X77789Y116515D01*
X78420Y115692D01*
X79243Y115061D01*
X80201Y114664D01*
X81228Y114529D01*
X84772D01*
X85799Y114664D01*
X86757Y115061D01*
X87480Y115616D01*
X87980Y115463D01*
Y111537D01*
X87480Y111384D01*
X86757Y111939D01*
X85799Y112336D01*
X84772Y112471D01*
X81228D01*
X80201Y112336D01*
X79243Y111939D01*
X78420Y111308D01*
X77806Y110507D01*
X76615D01*
X76308Y111038D01*
X75538Y111808D01*
X74596Y112352D01*
X73544Y112634D01*
X72456D01*
X71404Y112352D01*
X70462Y111808D01*
X69692Y111038D01*
X69148Y110096D01*
X68866Y109044D01*
Y107956D01*
X69148Y106904D01*
X69692Y105962D01*
X70462Y105192D01*
X71404Y104648D01*
X72456Y104366D01*
X73544D01*
X74596Y104648D01*
X75538Y105192D01*
X76308Y105962D01*
X76615Y106493D01*
X77806D01*
X78420Y105692D01*
X79243Y105061D01*
X80201Y104664D01*
X81228Y104529D01*
X84772D01*
X85799Y104664D01*
X86757Y105061D01*
X87480Y105616D01*
X87980Y105463D01*
Y101537D01*
X87480Y101384D01*
X86757Y101939D01*
X85799Y102336D01*
X84772Y102471D01*
X81228D01*
X80201Y102336D01*
X79243Y101939D01*
X78420Y101308D01*
X77806Y100507D01*
X76615D01*
X76308Y101038D01*
X75538Y101808D01*
X74596Y102352D01*
X73544Y102634D01*
X72456D01*
X71404Y102352D01*
X70462Y101808D01*
X69692Y101038D01*
X69148Y100096D01*
X68866Y99044D01*
Y97956D01*
X69148Y96904D01*
X69692Y95962D01*
X70462Y95192D01*
X71404Y94648D01*
X72456Y94366D01*
X73544D01*
X74596Y94648D01*
X75538Y95192D01*
X76308Y95962D01*
X76615Y96493D01*
X77806D01*
X78420Y95692D01*
X79243Y95061D01*
X80201Y94664D01*
X81228Y94529D01*
X84772D01*
X85799Y94664D01*
X86757Y95061D01*
X87480Y95616D01*
X87980Y95463D01*
Y91537D01*
X87480Y91384D01*
X86757Y91939D01*
X85799Y92336D01*
X84772Y92471D01*
X81228D01*
X80201Y92336D01*
X79243Y91939D01*
X78420Y91308D01*
X77789Y90486D01*
X77471Y89717D01*
X76944Y89752D01*
X76852Y90096D01*
X76308Y91038D01*
X75538Y91808D01*
X74596Y92352D01*
X73544Y92634D01*
X72456D01*
X71404Y92352D01*
X70462Y91808D01*
X69692Y91038D01*
X69148Y90096D01*
X68866Y89044D01*
Y87956D01*
X69148Y86904D01*
X69692Y85962D01*
X70032Y85622D01*
X69824Y85122D01*
X69035D01*
X68344Y84985D01*
X67758Y84593D01*
X66605Y83440D01*
X66213Y82854D01*
X66075Y82163D01*
Y63618D01*
X66213Y62927D01*
X66605Y62341D01*
X69085Y59860D01*
X68866Y59044D01*
Y57956D01*
X69148Y56904D01*
X69692Y55962D01*
X70462Y55192D01*
X71404Y54648D01*
X72456Y54366D01*
X73544D01*
X74596Y54648D01*
X75538Y55192D01*
X76308Y55962D01*
X76852Y56904D01*
X76854Y56911D01*
X77381Y56945D01*
X77604Y56407D01*
X78269Y55541D01*
X79136Y54875D01*
X80145Y54457D01*
X81228Y54315D01*
X82500D01*
Y58500D01*
Y62685D01*
X81228D01*
X80145Y62543D01*
X79136Y62125D01*
X78269Y61459D01*
X77604Y60593D01*
X77381Y60055D01*
X76854Y60089D01*
X76852Y60096D01*
X76308Y61038D01*
X75538Y61808D01*
X74596Y62352D01*
X73544Y62634D01*
X72456D01*
X71639Y62415D01*
X69688Y64366D01*
Y65259D01*
X70188Y65466D01*
X70462Y65192D01*
X71404Y64648D01*
X72456Y64366D01*
X73544D01*
X74596Y64648D01*
X75538Y65192D01*
X76308Y65962D01*
X76615Y66493D01*
X77806D01*
X78420Y65692D01*
X79243Y65061D01*
X80201Y64664D01*
X81228Y64529D01*
X84772D01*
X85799Y64664D01*
X86757Y65061D01*
X87480Y65616D01*
X87981Y65463D01*
Y61898D01*
X87480Y61652D01*
X86864Y62125D01*
X85855Y62543D01*
X84772Y62685D01*
X83500D01*
Y58500D01*
Y54315D01*
X84772D01*
X85855Y54457D01*
X86864Y54875D01*
X87480Y55348D01*
X87981Y55102D01*
Y51537D01*
X87480Y51384D01*
X86757Y51939D01*
X85799Y52336D01*
X84772Y52471D01*
X81228D01*
X80201Y52336D01*
X79243Y51939D01*
X78420Y51308D01*
X77806Y50507D01*
X76615D01*
X76308Y51038D01*
X75538Y51808D01*
X74596Y52352D01*
X73544Y52634D01*
X72456D01*
X71404Y52352D01*
X70462Y51808D01*
X69692Y51038D01*
X69148Y50096D01*
X68866Y49044D01*
Y47956D01*
X69148Y46904D01*
X69692Y45962D01*
X70462Y45192D01*
X71404Y44648D01*
X72456Y44366D01*
X73544D01*
X74596Y44648D01*
X75538Y45192D01*
X76308Y45962D01*
X76615Y46493D01*
X77806D01*
X78420Y45692D01*
X79243Y45061D01*
X80201Y44664D01*
X81228Y44529D01*
X84772D01*
X85799Y44664D01*
X86757Y45061D01*
X87480Y45616D01*
X87981Y45463D01*
Y41537D01*
X87480Y41384D01*
X86757Y41939D01*
X85799Y42336D01*
X84772Y42471D01*
X81228D01*
X80201Y42336D01*
X79243Y41939D01*
X78420Y41308D01*
X77806Y40507D01*
X76615D01*
X76308Y41038D01*
X75538Y41808D01*
X74596Y42352D01*
X73544Y42634D01*
X72456D01*
X71404Y42352D01*
X70462Y41808D01*
X69692Y41038D01*
X69148Y40096D01*
X68866Y39044D01*
Y37956D01*
X69148Y36904D01*
X69692Y35962D01*
X70462Y35192D01*
X71404Y34648D01*
X72456Y34366D01*
X73544D01*
X74596Y34648D01*
X75538Y35192D01*
X76308Y35962D01*
X76615Y36493D01*
X77806D01*
X78420Y35692D01*
X79243Y35061D01*
X80201Y34664D01*
X81228Y34529D01*
X84772D01*
X85799Y34664D01*
X86757Y35061D01*
X87480Y35616D01*
X87981Y35463D01*
Y31537D01*
X87480Y31384D01*
X86757Y31939D01*
X85799Y32336D01*
X84772Y32471D01*
X81228D01*
X80201Y32336D01*
X79243Y31939D01*
X78420Y31308D01*
X77806Y30507D01*
X76615D01*
X76308Y31038D01*
X75538Y31808D01*
X74596Y32352D01*
X73544Y32634D01*
X72456D01*
X71404Y32352D01*
X70462Y31808D01*
X69692Y31038D01*
X69148Y30096D01*
X68866Y29044D01*
Y27956D01*
X69148Y26904D01*
X69692Y25962D01*
X70462Y25192D01*
X71404Y24648D01*
X72456Y24366D01*
X73544D01*
X74596Y24648D01*
X75538Y25192D01*
X76308Y25962D01*
X76615Y26493D01*
X77806D01*
X78420Y25692D01*
X79243Y25061D01*
X80201Y24664D01*
X81228Y24529D01*
X84772D01*
X85799Y24664D01*
X86757Y25061D01*
X87480Y25616D01*
X87981Y25463D01*
Y21537D01*
X87480Y21384D01*
X86757Y21939D01*
X85799Y22336D01*
X84772Y22471D01*
X81228D01*
X80201Y22336D01*
X79243Y21939D01*
X78420Y21308D01*
X77806Y20507D01*
X76615D01*
X76308Y21038D01*
X75538Y21808D01*
X74596Y22352D01*
X73544Y22634D01*
X72456D01*
X71404Y22352D01*
X70462Y21808D01*
X69692Y21038D01*
X69148Y20096D01*
X68866Y19044D01*
Y17956D01*
X69148Y16904D01*
X69692Y15962D01*
X70462Y15192D01*
X71404Y14648D01*
X72456Y14366D01*
X73544D01*
X74596Y14648D01*
X75538Y15192D01*
X76308Y15962D01*
X76615Y16493D01*
X77806D01*
X78420Y15692D01*
X79243Y15061D01*
X80201Y14664D01*
X81228Y14529D01*
X84772D01*
X85799Y14664D01*
X86757Y15061D01*
X87480Y15616D01*
X87981Y15463D01*
Y11537D01*
X87480Y11384D01*
X86757Y11939D01*
X85799Y12336D01*
X84772Y12471D01*
X81228D01*
X80201Y12336D01*
X79243Y11939D01*
X78420Y11308D01*
X77806Y10507D01*
X76615D01*
X76308Y11038D01*
X75538Y11808D01*
X74596Y12352D01*
X73544Y12634D01*
X72456D01*
X71404Y12352D01*
X70462Y11808D01*
X69692Y11038D01*
X69148Y10096D01*
X68866Y9044D01*
Y7956D01*
X69148Y6904D01*
X69692Y5962D01*
X70462Y5192D01*
X71404Y4648D01*
X72456Y4366D01*
X73544D01*
X74596Y4648D01*
X75538Y5192D01*
X76308Y5962D01*
X76615Y6493D01*
X77806D01*
X78420Y5692D01*
X79243Y5061D01*
X80201Y4664D01*
X81228Y4529D01*
X84772D01*
X85799Y4664D01*
X86757Y5061D01*
X87480Y5616D01*
X87981Y5463D01*
Y1020D01*
X1020D01*
X1020Y109236D01*
X1503Y109365D01*
X1522Y109331D01*
X2331Y108522D01*
X3322Y107950D01*
X4428Y107653D01*
X4500D01*
Y112000D01*
X5000D01*
Y112500D01*
X9346D01*
Y112572D01*
X9050Y113678D01*
X8941Y113866D01*
X9230Y114366D01*
X17134D01*
Y116493D01*
X17806D01*
X18420Y115692D01*
X19243Y115061D01*
X20201Y114664D01*
X21228Y114529D01*
X24772D01*
X25799Y114664D01*
X26757Y115061D01*
X27580Y115692D01*
X28211Y116515D01*
X28607Y117472D01*
X28743Y118500D01*
X28607Y119528D01*
X28211Y120485D01*
X27728Y121115D01*
X27972Y121615D01*
X31111D01*
X31642Y121260D01*
X32333Y121123D01*
X51929D01*
X52620Y121260D01*
X53206Y121652D01*
X58479Y126924D01*
X59430Y126669D01*
X60570D01*
X61672Y126964D01*
X62659Y127535D01*
X63465Y128341D01*
X64036Y129328D01*
X64262Y130172D01*
X67971D01*
X75048Y123096D01*
D02*
G37*
%LPC*%
G36*
X44500Y140941D02*
Y139500D01*
X45941D01*
X45682Y140124D01*
X45124Y140682D01*
X44500Y140941D01*
D02*
G37*
G36*
X43500D02*
X42876Y140682D01*
X42318Y140124D01*
X42059Y139500D01*
X43500D01*
Y140941D01*
D02*
G37*
G36*
X45941Y138500D02*
X44500D01*
Y137059D01*
X45124Y137318D01*
X45682Y137876D01*
X45941Y138500D01*
D02*
G37*
G36*
X43500D02*
X42059D01*
X42318Y137876D01*
X42876Y137318D01*
X43500Y137059D01*
Y138500D01*
D02*
G37*
G36*
X13544Y112634D02*
X12456D01*
X11404Y112352D01*
X10462Y111808D01*
X9784Y111131D01*
X9334Y111380D01*
X9346Y111428D01*
Y111500D01*
X5500D01*
Y107653D01*
X5572D01*
X6678Y107950D01*
X7669Y108522D01*
X8406Y109259D01*
X8737Y109142D01*
X8867Y109047D01*
X8866Y109044D01*
Y107956D01*
X9148Y106904D01*
X9692Y105962D01*
X10462Y105192D01*
X11404Y104648D01*
X12456Y104366D01*
X13544D01*
X14596Y104648D01*
X15538Y105192D01*
X16308Y105962D01*
X16615Y106493D01*
X17806D01*
X18420Y105692D01*
X19243Y105061D01*
X20201Y104664D01*
X21228Y104529D01*
X24772D01*
X25799Y104664D01*
X26757Y105061D01*
X27580Y105692D01*
X28211Y106515D01*
X28607Y107472D01*
X28743Y108500D01*
X28607Y109528D01*
X28211Y110485D01*
X27580Y111308D01*
X26757Y111939D01*
X25799Y112336D01*
X24772Y112471D01*
X21228D01*
X20201Y112336D01*
X19243Y111939D01*
X18420Y111308D01*
X17806Y110507D01*
X16615D01*
X16308Y111038D01*
X15538Y111808D01*
X14596Y112352D01*
X13544Y112634D01*
D02*
G37*
G36*
Y102634D02*
X12456D01*
X11404Y102352D01*
X10462Y101808D01*
X9692Y101038D01*
X9148Y100096D01*
X8866Y99044D01*
Y97956D01*
X9148Y96904D01*
X9692Y95962D01*
X10462Y95192D01*
X11404Y94648D01*
X12456Y94366D01*
X13544D01*
X14596Y94648D01*
X15538Y95192D01*
X16308Y95962D01*
X16615Y96493D01*
X17806D01*
X18420Y95692D01*
X19243Y95061D01*
X20201Y94664D01*
X21228Y94529D01*
X24772D01*
X25799Y94664D01*
X26757Y95061D01*
X27580Y95692D01*
X28211Y96514D01*
X28607Y97472D01*
X28743Y98500D01*
X28607Y99528D01*
X28211Y100486D01*
X27580Y101308D01*
X26757Y101939D01*
X25799Y102336D01*
X24772Y102471D01*
X21228D01*
X20201Y102336D01*
X19243Y101939D01*
X18420Y101308D01*
X17806Y100507D01*
X16615D01*
X16308Y101038D01*
X15538Y101808D01*
X14596Y102352D01*
X13544Y102634D01*
D02*
G37*
G36*
Y92634D02*
X12456D01*
X11404Y92352D01*
X10462Y91808D01*
X9692Y91038D01*
X9148Y90096D01*
X8866Y89044D01*
Y87956D01*
X9148Y86904D01*
X9692Y85962D01*
X10462Y85192D01*
X11404Y84648D01*
X12456Y84366D01*
X13544D01*
X14596Y84648D01*
X15538Y85192D01*
X16308Y85962D01*
X16615Y86493D01*
X17806D01*
X18420Y85692D01*
X19243Y85061D01*
X20201Y84664D01*
X21228Y84529D01*
X24772D01*
X25799Y84664D01*
X26757Y85061D01*
X27580Y85692D01*
X28211Y86515D01*
X28607Y87472D01*
X28743Y88500D01*
X28607Y89528D01*
X28211Y90486D01*
X27580Y91308D01*
X26757Y91939D01*
X25799Y92336D01*
X24772Y92471D01*
X21228D01*
X20201Y92336D01*
X19243Y91939D01*
X18420Y91308D01*
X17806Y90507D01*
X16615D01*
X16308Y91038D01*
X15538Y91808D01*
X14596Y92352D01*
X13544Y92634D01*
D02*
G37*
G36*
Y82634D02*
X12456D01*
X11404Y82352D01*
X10462Y81808D01*
X9692Y81038D01*
X9148Y80096D01*
X8866Y79044D01*
Y77956D01*
X9148Y76904D01*
X9692Y75962D01*
X10462Y75192D01*
X11404Y74648D01*
X12456Y74366D01*
X13544D01*
X14596Y74648D01*
X15538Y75192D01*
X16308Y75962D01*
X16615Y76493D01*
X17806D01*
X18420Y75692D01*
X19243Y75061D01*
X20201Y74664D01*
X21228Y74529D01*
X24772D01*
X25799Y74664D01*
X26757Y75061D01*
X27580Y75692D01*
X28211Y76515D01*
X28607Y77472D01*
X28743Y78500D01*
X28607Y79528D01*
X28211Y80485D01*
X27580Y81308D01*
X26757Y81939D01*
X25799Y82336D01*
X24772Y82471D01*
X21228D01*
X20201Y82336D01*
X19243Y81939D01*
X18420Y81308D01*
X17806Y80507D01*
X16615D01*
X16308Y81038D01*
X15538Y81808D01*
X14596Y82352D01*
X13544Y82634D01*
D02*
G37*
G36*
Y72634D02*
X12456D01*
X11404Y72352D01*
X10462Y71808D01*
X9692Y71038D01*
X9148Y70096D01*
X8866Y69044D01*
Y67956D01*
X9148Y66904D01*
X9692Y65962D01*
X10462Y65192D01*
X11404Y64648D01*
X12456Y64366D01*
X13544D01*
X14596Y64648D01*
X15538Y65192D01*
X16308Y65962D01*
X16615Y66493D01*
X17806D01*
X18420Y65692D01*
X19243Y65061D01*
X20201Y64664D01*
X21228Y64529D01*
X24772D01*
X25799Y64664D01*
X26757Y65061D01*
X27580Y65692D01*
X28211Y66514D01*
X28607Y67472D01*
X28743Y68500D01*
X28607Y69528D01*
X28211Y70486D01*
X27580Y71308D01*
X26757Y71939D01*
X25799Y72336D01*
X24772Y72471D01*
X21228D01*
X20201Y72336D01*
X19243Y71939D01*
X18420Y71308D01*
X17806Y70507D01*
X16615D01*
X16308Y71038D01*
X15538Y71808D01*
X14596Y72352D01*
X13544Y72634D01*
D02*
G37*
G36*
Y62634D02*
X12456D01*
X11404Y62352D01*
X10462Y61808D01*
X9692Y61038D01*
X9148Y60096D01*
X8866Y59044D01*
Y57956D01*
X9148Y56904D01*
X9692Y55962D01*
X10462Y55192D01*
X11404Y54648D01*
X12456Y54366D01*
X13544D01*
X14596Y54648D01*
X15538Y55192D01*
X16308Y55962D01*
X16615Y56493D01*
X17806D01*
X18420Y55692D01*
X19243Y55061D01*
X20201Y54664D01*
X21228Y54529D01*
X24772D01*
X25799Y54664D01*
X26757Y55061D01*
X27580Y55692D01*
X28211Y56515D01*
X28607Y57472D01*
X28743Y58500D01*
X28607Y59528D01*
X28211Y60486D01*
X27580Y61308D01*
X26757Y61939D01*
X25799Y62336D01*
X24772Y62471D01*
X21228D01*
X20201Y62336D01*
X19243Y61939D01*
X18420Y61308D01*
X17806Y60507D01*
X16615D01*
X16308Y61038D01*
X15538Y61808D01*
X14596Y62352D01*
X13544Y62634D01*
D02*
G37*
G36*
Y52634D02*
X12456D01*
X11404Y52352D01*
X10462Y51808D01*
X9692Y51038D01*
X9148Y50096D01*
X8866Y49044D01*
Y47956D01*
X9148Y46904D01*
X9692Y45962D01*
X10462Y45192D01*
X11404Y44648D01*
X12456Y44366D01*
X13544D01*
X14596Y44648D01*
X15538Y45192D01*
X16308Y45962D01*
X16615Y46493D01*
X17806D01*
X18420Y45692D01*
X19243Y45061D01*
X20201Y44664D01*
X21228Y44529D01*
X24772D01*
X25799Y44664D01*
X26757Y45061D01*
X27580Y45692D01*
X28211Y46514D01*
X28607Y47472D01*
X28743Y48500D01*
X28607Y49528D01*
X28211Y50485D01*
X27580Y51308D01*
X26757Y51939D01*
X25799Y52336D01*
X24772Y52471D01*
X21228D01*
X20201Y52336D01*
X19243Y51939D01*
X18420Y51308D01*
X17806Y50507D01*
X16615D01*
X16308Y51038D01*
X15538Y51808D01*
X14596Y52352D01*
X13544Y52634D01*
D02*
G37*
G36*
Y42634D02*
X12456D01*
X11404Y42352D01*
X10462Y41808D01*
X9692Y41038D01*
X9148Y40096D01*
X8866Y39044D01*
Y37956D01*
X9148Y36904D01*
X9692Y35962D01*
X10462Y35192D01*
X11404Y34648D01*
X12456Y34366D01*
X13544D01*
X14596Y34648D01*
X15538Y35192D01*
X16308Y35962D01*
X16615Y36493D01*
X17806D01*
X18420Y35692D01*
X19243Y35061D01*
X20201Y34664D01*
X21228Y34529D01*
X24772D01*
X25799Y34664D01*
X26757Y35061D01*
X27580Y35692D01*
X28211Y36514D01*
X28607Y37472D01*
X28743Y38500D01*
X28607Y39528D01*
X28211Y40486D01*
X27580Y41308D01*
X26757Y41939D01*
X25799Y42336D01*
X24772Y42471D01*
X21228D01*
X20201Y42336D01*
X19243Y41939D01*
X18420Y41308D01*
X17806Y40507D01*
X16615D01*
X16308Y41038D01*
X15538Y41808D01*
X14596Y42352D01*
X13544Y42634D01*
D02*
G37*
G36*
Y32634D02*
X12456D01*
X11404Y32352D01*
X10462Y31808D01*
X9692Y31038D01*
X9148Y30096D01*
X8866Y29044D01*
Y27956D01*
X9148Y26904D01*
X9692Y25962D01*
X10462Y25192D01*
X11404Y24648D01*
X12456Y24366D01*
X13544D01*
X14596Y24648D01*
X15538Y25192D01*
X16308Y25962D01*
X16615Y26493D01*
X17806D01*
X18420Y25692D01*
X19243Y25061D01*
X20201Y24664D01*
X21228Y24529D01*
X24772D01*
X25799Y24664D01*
X26757Y25061D01*
X27580Y25692D01*
X28211Y26515D01*
X28607Y27472D01*
X28743Y28500D01*
X28607Y29528D01*
X28211Y30485D01*
X27580Y31308D01*
X26757Y31939D01*
X25799Y32336D01*
X24772Y32471D01*
X21228D01*
X20201Y32336D01*
X19243Y31939D01*
X18420Y31308D01*
X17806Y30507D01*
X16615D01*
X16308Y31038D01*
X15538Y31808D01*
X14596Y32352D01*
X13544Y32634D01*
D02*
G37*
G36*
Y22634D02*
X12456D01*
X11404Y22352D01*
X10462Y21808D01*
X9692Y21038D01*
X9148Y20096D01*
X8866Y19044D01*
Y17956D01*
X9148Y16904D01*
X9692Y15962D01*
X10462Y15192D01*
X11404Y14648D01*
X12456Y14366D01*
X13544D01*
X14596Y14648D01*
X15538Y15192D01*
X16308Y15962D01*
X16615Y16493D01*
X17806D01*
X18420Y15692D01*
X19243Y15061D01*
X20201Y14664D01*
X21228Y14529D01*
X24772D01*
X25799Y14664D01*
X26757Y15061D01*
X27580Y15692D01*
X28211Y16514D01*
X28607Y17472D01*
X28743Y18500D01*
X28607Y19528D01*
X28211Y20485D01*
X27580Y21308D01*
X26757Y21939D01*
X25799Y22336D01*
X24772Y22471D01*
X21228D01*
X20201Y22336D01*
X19243Y21939D01*
X18420Y21308D01*
X17806Y20507D01*
X16615D01*
X16308Y21038D01*
X15538Y21808D01*
X14596Y22352D01*
X13544Y22634D01*
D02*
G37*
G36*
X24772Y12685D02*
X23500D01*
Y9000D01*
X28891D01*
X28814Y9583D01*
X28396Y10593D01*
X27731Y11460D01*
X26864Y12125D01*
X25855Y12543D01*
X24772Y12685D01*
D02*
G37*
G36*
X12500Y12846D02*
X12428D01*
X11322Y12550D01*
X10331Y11978D01*
X9522Y11169D01*
X8950Y10178D01*
X8653Y9072D01*
Y9000D01*
X12500D01*
Y12846D01*
D02*
G37*
G36*
X28891Y8000D02*
X23500D01*
Y4315D01*
X24772D01*
X25855Y4457D01*
X26864Y4875D01*
X27731Y5540D01*
X28396Y6407D01*
X28814Y7417D01*
X28891Y8000D01*
D02*
G37*
G36*
X13572Y12846D02*
X13500D01*
Y8500D01*
Y4154D01*
X13572D01*
X14678Y4450D01*
X15669Y5022D01*
X16478Y5831D01*
X16957Y6661D01*
X17496Y6668D01*
X17604Y6407D01*
X18269Y5540D01*
X19136Y4875D01*
X20145Y4457D01*
X21228Y4315D01*
X22500D01*
Y8500D01*
Y12685D01*
X21228D01*
X20145Y12543D01*
X19136Y12125D01*
X18269Y11460D01*
X17604Y10593D01*
X17496Y10332D01*
X16957Y10339D01*
X16478Y11169D01*
X15669Y11978D01*
X14678Y12550D01*
X13572Y12846D01*
D02*
G37*
G36*
X12500Y8000D02*
X8653D01*
Y7928D01*
X8950Y6822D01*
X9522Y5831D01*
X10331Y5022D01*
X11322Y4450D01*
X12428Y4154D01*
X12500D01*
Y8000D01*
D02*
G37*
%LPD*%
D17*
X60226Y101226D02*
Y114261D01*
X64465Y118500D02*
X73000D01*
X60226Y114261D02*
X64465Y118500D01*
X5000Y16478D02*
Y112000D01*
Y16478D02*
X12978Y8500D01*
X13000D01*
X60000Y101000D02*
X60226Y101226D01*
X38000Y101000D02*
X49000D01*
X60000D01*
X13000Y8500D02*
X23000D01*
D18*
X78190Y129329D02*
X82171D01*
X54500Y136500D02*
X71019D01*
X82171Y129329D02*
X83000Y128500D01*
X71019Y136500D02*
X78190Y129329D01*
X51929Y122929D02*
X60979Y131979D01*
X32333Y122929D02*
X51929D01*
X68720Y131979D02*
X82198Y118500D01*
X60979Y131979D02*
X68720D01*
X82198Y118500D02*
X83000D01*
X49903Y131903D02*
X54500Y136500D01*
X49903Y131903D02*
Y131903D01*
X43685Y125685D02*
X49903Y131903D01*
X5904Y132904D02*
X7998D01*
X5000Y132000D02*
X5904Y132904D01*
X7998D02*
X8515Y133421D01*
X26810D01*
X31841Y123421D02*
X32333Y122929D01*
X19347Y123421D02*
X31841D01*
X19150Y123618D02*
X19347Y123421D01*
X8920Y123618D02*
X19150D01*
X8206Y122904D02*
X8920Y123618D01*
X5904Y122904D02*
X8206D01*
X5000Y122000D02*
X5904Y122904D01*
X34546Y125685D02*
X43685D01*
X26810Y133421D02*
X34546Y125685D01*
X67882Y63618D02*
Y82163D01*
X69035Y83316D01*
X70463D01*
X67882Y63618D02*
X73000Y58500D01*
X75514Y83776D02*
X80238Y88500D01*
X83000D01*
X75375Y83776D02*
X75514D01*
D19*
X31778Y138500D02*
X38000Y132278D01*
X8500Y138500D02*
X31778D01*
X38000Y131000D02*
Y132278D01*
X5000Y142000D02*
X8500Y138500D01*
X73000Y48500D02*
X83000D01*
X73000Y38500D02*
X83000D01*
X73000Y108500D02*
X83000D01*
X73000Y98500D02*
X83000D01*
X73000Y78500D02*
X83000D01*
X73000Y68500D02*
X83000D01*
X73000Y28500D02*
X83000D01*
X73000Y18500D02*
X83000D01*
X73000Y8500D02*
X83000D01*
X13000Y18500D02*
X23000D01*
X13000Y28500D02*
X23000D01*
X13000Y38500D02*
X23000D01*
X13000Y48500D02*
X23000D01*
X13000Y58500D02*
X23000D01*
X13000Y68500D02*
X23000D01*
X13000Y78500D02*
X23000D01*
X13000Y88500D02*
X23000D01*
X13000Y98500D02*
X23000D01*
X13000Y108500D02*
X23000D01*
X13000Y118500D02*
X23000D01*
D20*
X24772Y8500D02*
X69772Y53500D01*
X76228D01*
X81228Y58500D01*
X83000D01*
X23000Y8500D02*
X24772D01*
X70568Y83421D02*
X74881D01*
X70463Y83316D02*
X70568Y83421D01*
X74881D02*
X75235Y83776D01*
X75375D01*
D21*
X5000Y142000D02*
D03*
X13000Y118500D02*
D03*
X73000D02*
D03*
D22*
X5000Y132000D02*
D03*
Y122000D02*
D03*
Y112000D02*
D03*
X13000Y48500D02*
D03*
Y58500D02*
D03*
Y68500D02*
D03*
Y78500D02*
D03*
Y88500D02*
D03*
Y98500D02*
D03*
Y108500D02*
D03*
Y38500D02*
D03*
Y28500D02*
D03*
Y18500D02*
D03*
Y8500D02*
D03*
X73000Y48500D02*
D03*
Y58500D02*
D03*
Y68500D02*
D03*
Y78500D02*
D03*
Y88500D02*
D03*
Y98500D02*
D03*
Y108500D02*
D03*
Y38500D02*
D03*
Y28500D02*
D03*
Y18500D02*
D03*
Y8500D02*
D03*
D23*
X60000Y101000D02*
D03*
Y131000D02*
D03*
X38000Y101000D02*
D03*
Y131000D02*
D03*
X49000Y101000D02*
D03*
Y131000D02*
D03*
D24*
X23000Y138500D02*
D03*
D25*
Y128500D02*
D03*
Y118500D02*
D03*
Y108500D02*
D03*
Y98500D02*
D03*
Y88500D02*
D03*
Y78500D02*
D03*
Y68500D02*
D03*
Y58500D02*
D03*
Y48500D02*
D03*
Y38500D02*
D03*
Y28500D02*
D03*
Y18500D02*
D03*
Y8500D02*
D03*
X83000Y138500D02*
D03*
Y128500D02*
D03*
Y118500D02*
D03*
Y108500D02*
D03*
Y98500D02*
D03*
Y88500D02*
D03*
Y78500D02*
D03*
Y68500D02*
D03*
Y58500D02*
D03*
Y48500D02*
D03*
Y38500D02*
D03*
Y28500D02*
D03*
Y18500D02*
D03*
Y8500D02*
D03*
D26*
X44000Y139000D02*
D03*
M02*
