G04*
G04 #@! TF.GenerationSoftware,Altium Limited,Altium Designer,21.0.9 (235)*
G04*
G04 Layer_Color=16711935*
%FSLAX25Y25*%
%MOIN*%
G70*
G04*
G04 #@! TF.SameCoordinates,E712B7E2-4447-4AEC-BC64-13D1A33EA5FB*
G04*
G04*
G04 #@! TF.FilePolarity,Negative*
G04*
G01*
G75*
%ADD12R,0.06992X0.06992*%
%ADD13C,0.06992*%
%ADD14C,0.07386*%
%ADD15R,0.10142X0.06598*%
%ADD16O,0.10142X0.06598*%
D12*
X5000Y142000D02*
D03*
X13000Y118500D02*
D03*
X73000D02*
D03*
D13*
X5000Y132000D02*
D03*
Y122000D02*
D03*
Y112000D02*
D03*
X13000Y48500D02*
D03*
Y58500D02*
D03*
Y68500D02*
D03*
Y78500D02*
D03*
Y88500D02*
D03*
Y98500D02*
D03*
Y108500D02*
D03*
Y38500D02*
D03*
Y28500D02*
D03*
Y18500D02*
D03*
Y8500D02*
D03*
X73000Y48500D02*
D03*
Y58500D02*
D03*
Y68500D02*
D03*
Y78500D02*
D03*
Y88500D02*
D03*
Y98500D02*
D03*
Y108500D02*
D03*
Y38500D02*
D03*
Y28500D02*
D03*
Y18500D02*
D03*
Y8500D02*
D03*
D14*
X60000Y101000D02*
D03*
Y131000D02*
D03*
X38000Y101000D02*
D03*
Y131000D02*
D03*
X49000Y101000D02*
D03*
Y131000D02*
D03*
D15*
X23000Y138500D02*
D03*
D16*
Y128500D02*
D03*
Y118500D02*
D03*
Y108500D02*
D03*
Y98500D02*
D03*
Y88500D02*
D03*
Y78500D02*
D03*
Y68500D02*
D03*
Y58500D02*
D03*
Y48500D02*
D03*
Y38500D02*
D03*
Y28500D02*
D03*
Y18500D02*
D03*
Y8500D02*
D03*
X83000Y138500D02*
D03*
Y128500D02*
D03*
Y118500D02*
D03*
Y108500D02*
D03*
Y98500D02*
D03*
Y88500D02*
D03*
Y78500D02*
D03*
Y68500D02*
D03*
Y58500D02*
D03*
Y48500D02*
D03*
Y38500D02*
D03*
Y28500D02*
D03*
Y18500D02*
D03*
Y8500D02*
D03*
M02*
